<svg width="13" height="9" viewBox="0 0 13 9" fill="none" xmlns="http://www.w3.org/2000/svg">
<path d="M6.23 7.03C6.36333 7.15667 6.43 7.3 6.43 7.46C6.43 7.61333 6.37 7.75 6.25 7.87C6.13667 7.98333 6 8.04 5.84 8.04C5.67333 8.04 5.52 7.97 5.38 7.83L2.05 4.71V7.41C2.05 7.60333 1.99 7.76 1.87 7.88C1.75667 8 1.6 8.06 1.4 8.06C1.20667 8.06 1.05 8 0.93 7.88C0.816667 7.76 0.76 7.60333 0.76 7.41V1.54C0.76 1.34667 0.816667 1.19333 0.93 1.08C1.05 0.96 1.20667 0.9 1.4 0.9C1.6 0.9 1.75667 0.96 1.87 1.08C1.99 1.19333 2.05 1.34667 2.05 1.54V4.11L5.27 1.09C5.39 0.97 5.52667 0.909999 5.68 0.909999C5.83333 0.909999 5.96667 0.97 6.08 1.09C6.2 1.20333 6.26 1.33667 6.26 1.49C6.26 1.64333 6.19333 1.78333 6.06 1.91L3.37 4.37L6.23 7.03ZM11.6834 1.12C11.8034 0.973333 11.9468 0.9 12.1134 0.9C12.2668 0.9 12.4034 0.96 12.5234 1.08C12.6434 1.19333 12.7034 1.33 12.7034 1.49C12.7034 1.62333 12.6534 1.75 12.5534 1.87L10.2834 4.64V7.41C10.2834 7.61667 10.2234 7.77667 10.1034 7.89C9.98344 8.00333 9.8301 8.06 9.64344 8.06C9.4501 8.06 9.29344 8.00333 9.17344 7.89C9.05344 7.77667 8.99344 7.61667 8.99344 7.41V4.64L6.72344 1.87C6.62344 1.75 6.57344 1.62333 6.57344 1.49C6.57344 1.33 6.63344 1.19333 6.75344 1.08C6.87344 0.96 7.0101 0.9 7.16344 0.9C7.3301 0.9 7.47344 0.973333 7.59344 1.12L9.64344 3.66L11.6834 1.12Z" fill="#234CAD"/>
</svg>
