<svg width="16" height="9" viewBox="0 0 16 9" fill="none" xmlns="http://www.w3.org/2000/svg">
<path d="M7.02 0.9C7.20667 0.9 7.35667 0.96 7.47 1.08C7.58333 1.19333 7.64 1.34667 7.64 1.54V7.46C7.64 7.64667 7.58667 7.79333 7.48 7.9C7.37333 8.00667 7.23333 8.06 7.06 8.06C6.88667 8.06 6.75 8.00667 6.65 7.9C6.55 7.79333 6.5 7.64667 6.5 7.46V3.34L4.8 6.56C4.72 6.70667 4.63333 6.81667 4.54 6.89C4.44667 6.95667 4.33667 6.99 4.21 6.99C4.08333 6.99 3.97333 6.95667 3.88 6.89C3.78667 6.82333 3.7 6.71333 3.62 6.56L1.91 3.39V7.46C1.91 7.64 1.85667 7.78667 1.75 7.9C1.65 8.00667 1.51333 8.06 1.34 8.06C1.16667 8.06 1.03 8.00667 0.93 7.9C0.83 7.79333 0.78 7.64667 0.78 7.46V1.54C0.78 1.34667 0.833333 1.19333 0.94 1.08C1.05333 0.96 1.20333 0.9 1.39 0.9C1.65 0.9 1.85333 1.04333 2 1.33L4.22 5.56L6.43 1.33C6.57667 1.04333 6.77333 0.9 7.02 0.9ZM14.5382 4.19C14.6915 4.19 14.8149 4.23667 14.9082 4.33C15.0015 4.41667 15.0482 4.53333 15.0482 4.68V6.83C15.0482 7.13667 15.0082 7.35333 14.9282 7.48C14.8482 7.60667 14.6849 7.71 14.4382 7.79C14.1715 7.88333 13.8615 7.95667 13.5082 8.01C13.1549 8.06333 12.8149 8.09 12.4882 8.09C11.7615 8.09 11.1315 7.94667 10.5982 7.66C10.0649 7.37333 9.65487 6.96 9.3682 6.42C9.0882 5.87333 8.9482 5.22333 8.9482 4.47C8.9482 3.73 9.0882 3.09 9.3682 2.55C9.65487 2.00333 10.0582 1.58667 10.5782 1.3C11.0982 1.00667 11.7115 0.86 12.4182 0.86C13.3582 0.86 14.1282 1.11333 14.7282 1.62C14.8082 1.69333 14.8649 1.76667 14.8982 1.84C14.9382 1.91333 14.9582 2 14.9582 2.1C14.9582 2.24667 14.9182 2.37 14.8382 2.47C14.7582 2.57 14.6615 2.62 14.5482 2.62C14.4749 2.62 14.4082 2.61 14.3482 2.59C14.2882 2.56333 14.2182 2.52333 14.1382 2.47C13.8449 2.26333 13.5715 2.12 13.3182 2.04C13.0649 1.95333 12.7782 1.91 12.4582 1.91C11.7315 1.91 11.1815 2.12667 10.8082 2.56C10.4415 2.98667 10.2582 3.62333 10.2582 4.47C10.2582 6.20333 11.0182 7.07 12.5382 7.07C12.9915 7.07 13.4449 7.00667 13.8982 6.88V5.11H12.7682C12.6082 5.11 12.4815 5.07 12.3882 4.99C12.3015 4.91 12.2582 4.79667 12.2582 4.65C12.2582 4.50333 12.3015 4.39 12.3882 4.31C12.4815 4.23 12.6082 4.19 12.7682 4.19H14.5382Z" fill="#234CAD"/>
</svg>
