<svg width="12" height="8" viewBox="0 0 12 8" fill="none" xmlns="http://www.w3.org/2000/svg">
<path d="M5 4.7C5.12667 4.7 5.23 4.74333 5.31 4.83C5.39667 4.91 5.44 5.01333 5.44 5.14C5.44 5.26667 5.39667 5.37333 5.31 5.46C5.23 5.54 5.12667 5.58 5 5.58H3.44V7.13C3.44 7.25667 3.39667 7.36333 3.31 7.45C3.23 7.53667 3.12667 7.58 3 7.58C2.87333 7.58 2.76667 7.53667 2.68 7.45C2.6 7.36333 2.56 7.25667 2.56 7.13V5.58H1C0.873333 5.58 0.766667 5.54 0.68 5.46C0.6 5.37333 0.56 5.26667 0.56 5.14C0.56 5.01333 0.6 4.91 0.68 4.83C0.766667 4.74333 0.873333 4.7 1 4.7H2.56V3.14C2.56 3.01333 2.6 2.91 2.68 2.83C2.76667 2.74333 2.87333 2.7 3 2.7C3.12667 2.7 3.23 2.74333 3.31 2.83C3.39667 2.91 3.44 3.01333 3.44 3.14V4.7H5ZM10.9761 6.96C11.3761 6.96 11.5761 7.13 11.5761 7.47C11.5761 7.82333 11.3761 8 10.9761 8H7.17609C7.00276 8 6.86609 7.95 6.76609 7.85C6.66609 7.74333 6.61609 7.61333 6.61609 7.46C6.61609 7.26 6.69276 7.08 6.84609 6.92L9.12609 4.47C9.40609 4.16333 9.60943 3.88333 9.73609 3.63C9.86943 3.37 9.93609 3.11333 9.93609 2.86C9.93609 2.54667 9.84609 2.30667 9.66609 2.14C9.48609 1.97333 9.22943 1.89 8.89609 1.89C8.62276 1.89 8.35609 1.94333 8.09609 2.05C7.84276 2.15 7.58609 2.29 7.32609 2.47C7.25943 2.51667 7.19276 2.55667 7.12609 2.59C7.05943 2.61667 6.99276 2.63 6.92609 2.63C6.81276 2.63 6.71276 2.57667 6.62609 2.47C6.54609 2.36333 6.50609 2.23667 6.50609 2.09C6.50609 1.99 6.52276 1.90333 6.55609 1.83C6.59609 1.75667 6.65609 1.68667 6.73609 1.62C7.02943 1.38667 7.37276 1.20333 7.76609 1.07C8.15943 0.93 8.55276 0.86 8.94609 0.86C9.63276 0.86 10.1794 1.03333 10.5861 1.38C10.9994 1.72667 11.2061 2.19333 11.2061 2.78C11.2061 3.18667 11.1194 3.57 10.9461 3.93C10.7728 4.28333 10.4794 4.68 10.0661 5.12L8.33609 6.96H10.9761Z" fill="#234CAD"/>
</svg>
