<svg width="10" height="9" viewBox="0 0 10 9" fill="none" xmlns="http://www.w3.org/2000/svg">
<path d="M7.15 7.23C7.19 7.31667 7.21 7.40333 7.21 7.49C7.21 7.64333 7.14667 7.77333 7.02 7.88C6.9 7.98667 6.76 8.04 6.6 8.04C6.49333 8.04 6.39333 8.01333 6.3 7.96C6.20667 7.9 6.13333 7.81 6.08 7.69L5.48 6.35H1.96L1.36 7.69C1.30667 7.81 1.23333 7.9 1.14 7.96C1.04667 8.01333 0.943333 8.04 0.83 8.04C0.676667 8.04 0.536667 7.98667 0.41 7.88C0.283333 7.77333 0.22 7.64333 0.22 7.49C0.22 7.40333 0.24 7.31667 0.28 7.23L3.04 1.3C3.1 1.16667 3.19 1.06667 3.31 1C3.43667 0.926666 3.57 0.89 3.71 0.89C3.85 0.89 3.98 0.926666 4.1 1C4.22667 1.06667 4.32 1.16667 4.38 1.3L7.15 7.23ZM2.4 5.35H5.04L3.72 2.38L2.4 5.35ZM8.82188 8.06C8.62854 8.06 8.47188 8 8.35188 7.88C8.23854 7.76 8.18188 7.60333 8.18188 7.41V1.54C8.18188 1.34667 8.23854 1.19333 8.35188 1.08C8.47188 0.96 8.62854 0.9 8.82188 0.9C9.02188 0.9 9.17854 0.96 9.29188 1.08C9.41188 1.19333 9.47188 1.34667 9.47188 1.54V7.41C9.47188 7.60333 9.41188 7.76 9.29188 7.88C9.17854 8 9.02188 8.06 8.82188 8.06Z" fill="#234CAD"/>
</svg>
