<svg width="722" height="422" viewBox="0 0 722 422" fill="none" xmlns="http://www.w3.org/2000/svg">
<g opacity="0.1" filter="url(#filter0_f_8786_317)">
<rect x="136" y="136" width="450" height="150" rx="20" fill="url(#paint0_linear_8786_317)"/>
</g>
<rect x="186" y="136" width="350" height="100" rx="20" fill="white"/>
<g clip-path="url(#clip0_8786_317)">
<path d="M285.036 197.54C285.18 197.54 285.288 197.58 285.36 197.66C285.44 197.732 285.48 197.828 285.48 197.948C285.48 198.06 285.444 198.184 285.372 198.32L281.388 205.82C281.292 205.996 281.152 206.084 280.968 206.084C280.84 206.084 280.724 206.04 280.62 205.952C280.524 205.864 280.476 205.756 280.476 205.628C280.476 205.54 280.504 205.452 280.56 205.364L284.304 198.368H280.164C280.02 198.368 279.908 198.332 279.828 198.26C279.756 198.188 279.72 198.088 279.72 197.96C279.72 197.824 279.756 197.72 279.828 197.648C279.908 197.576 280.02 197.54 280.164 197.54H285.036ZM287.551 204.704C287.751 204.704 287.911 204.784 288.031 204.944C288.159 205.096 288.223 205.328 288.223 205.64C288.223 206.272 288.019 206.804 287.611 207.236C287.531 207.324 287.439 207.368 287.335 207.368C287.255 207.368 287.183 207.336 287.119 207.272C287.055 207.216 287.023 207.148 287.023 207.068C287.023 206.98 287.055 206.904 287.119 206.84C287.327 206.624 287.459 206.356 287.515 206.036C287.339 206.02 287.191 205.956 287.071 205.844C286.959 205.724 286.903 205.572 286.903 205.388C286.903 205.188 286.963 205.024 287.083 204.896C287.211 204.768 287.367 204.704 287.551 204.704ZM292.538 206.096C291.57 206.096 290.834 205.728 290.33 204.992C289.826 204.256 289.574 203.184 289.574 201.776C289.574 200.36 289.826 199.284 290.33 198.548C290.834 197.812 291.57 197.444 292.538 197.444C293.506 197.444 294.242 197.812 294.746 198.548C295.25 199.276 295.502 200.348 295.502 201.764C295.502 203.18 295.25 204.256 294.746 204.992C294.242 205.728 293.506 206.096 292.538 206.096ZM292.538 205.268C293.21 205.268 293.706 204.984 294.026 204.416C294.346 203.848 294.506 202.964 294.506 201.764C294.506 200.556 294.346 199.672 294.026 199.112C293.714 198.552 293.218 198.272 292.538 198.272C291.866 198.272 291.37 198.556 291.05 199.124C290.73 199.684 290.57 200.564 290.57 201.764C290.57 202.964 290.73 203.848 291.05 204.416C291.37 204.984 291.866 205.268 292.538 205.268ZM299.469 197.444C300.493 197.444 301.281 197.8 301.833 198.512C302.393 199.224 302.673 200.24 302.673 201.56C302.673 202.504 302.545 203.316 302.289 203.996C302.033 204.676 301.661 205.196 301.173 205.556C300.685 205.916 300.105 206.096 299.433 206.096C298.977 206.096 298.521 206.008 298.065 205.832C297.617 205.656 297.233 205.416 296.913 205.112C296.777 204.984 296.709 204.848 296.709 204.704C296.709 204.584 296.741 204.484 296.805 204.404C296.869 204.324 296.945 204.284 297.033 204.284C297.145 204.284 297.261 204.328 297.381 204.416C298.077 204.984 298.753 205.268 299.409 205.268C300.121 205.268 300.677 204.944 301.077 204.296C301.477 203.648 301.677 202.74 301.677 201.572V201.416C301.493 201.864 301.193 202.216 300.777 202.472C300.369 202.728 299.905 202.856 299.385 202.856C298.873 202.856 298.417 202.744 298.017 202.52C297.617 202.296 297.305 201.98 297.081 201.572C296.857 201.164 296.745 200.696 296.745 200.168C296.745 199.648 296.861 199.18 297.093 198.764C297.325 198.348 297.649 198.024 298.065 197.792C298.481 197.56 298.949 197.444 299.469 197.444ZM299.529 202.028C300.081 202.028 300.529 201.856 300.873 201.512C301.225 201.16 301.401 200.708 301.401 200.156C301.401 199.596 301.225 199.144 300.873 198.8C300.529 198.448 300.077 198.272 299.517 198.272C298.973 198.272 298.537 198.444 298.209 198.788C297.881 199.132 297.717 199.588 297.717 200.156C297.717 200.724 297.881 201.18 298.209 201.524C298.545 201.86 298.985 202.028 299.529 202.028ZM304 206.432C303.968 206.536 303.916 206.616 303.844 206.672C303.772 206.728 303.692 206.756 303.604 206.756C303.492 206.756 303.392 206.716 303.304 206.636C303.216 206.556 303.172 206.456 303.172 206.336C303.172 206.288 303.184 206.232 303.208 206.168L306.04 197.312C306.072 197.208 306.124 197.128 306.196 197.072C306.268 197.016 306.348 196.988 306.436 196.988C306.548 196.988 306.648 197.028 306.736 197.108C306.824 197.188 306.868 197.292 306.868 197.42C306.868 197.444 306.86 197.496 306.844 197.576L304 206.432ZM315.724 205.172C315.868 205.172 315.98 205.208 316.06 205.28C316.14 205.352 316.18 205.452 316.18 205.58C316.18 205.716 316.14 205.82 316.06 205.892C315.988 205.964 315.876 206 315.724 206H311.752C311.6 206 311.484 205.964 311.404 205.892C311.332 205.82 311.296 205.716 311.296 205.58C311.296 205.452 311.336 205.352 311.416 205.28C311.496 205.208 311.608 205.172 311.752 205.172H313.24V198.74L311.932 199.592C311.868 199.632 311.804 199.652 311.74 199.652C311.628 199.652 311.528 199.6 311.44 199.496C311.36 199.392 311.32 199.28 311.32 199.16C311.32 198.992 311.384 198.872 311.512 198.8L313.336 197.612C313.472 197.524 313.612 197.48 313.756 197.48C313.892 197.48 314.004 197.524 314.092 197.612C314.18 197.7 314.224 197.824 314.224 197.984V205.172H315.724ZM320.616 206.096C319.648 206.096 318.912 205.728 318.408 204.992C317.904 204.256 317.652 203.184 317.652 201.776C317.652 200.36 317.904 199.284 318.408 198.548C318.912 197.812 319.648 197.444 320.616 197.444C321.584 197.444 322.32 197.812 322.824 198.548C323.328 199.276 323.58 200.348 323.58 201.764C323.58 203.18 323.328 204.256 322.824 204.992C322.32 205.728 321.584 206.096 320.616 206.096ZM320.616 205.268C321.288 205.268 321.784 204.984 322.104 204.416C322.424 203.848 322.584 202.964 322.584 201.764C322.584 200.556 322.424 199.672 322.104 199.112C321.792 198.552 321.296 198.272 320.616 198.272C319.944 198.272 319.448 198.556 319.128 199.124C318.808 199.684 318.648 200.564 318.648 201.764C318.648 202.964 318.808 203.848 319.128 204.416C319.448 204.984 319.944 205.268 320.616 205.268ZM329.275 201.656C329.771 201.808 330.155 202.068 330.427 202.436C330.707 202.804 330.847 203.244 330.847 203.756C330.847 204.484 330.583 205.056 330.055 205.472C329.527 205.88 328.779 206.084 327.811 206.084C326.843 206.084 326.095 205.88 325.567 205.472C325.039 205.056 324.775 204.484 324.775 203.756C324.775 203.236 324.915 202.792 325.195 202.424C325.475 202.056 325.863 201.8 326.359 201.656C325.935 201.496 325.599 201.244 325.351 200.9C325.103 200.556 324.979 200.152 324.979 199.688C324.979 199 325.227 198.456 325.723 198.056C326.227 197.648 326.923 197.444 327.811 197.444C328.699 197.444 329.391 197.648 329.887 198.056C330.391 198.456 330.643 199 330.643 199.688C330.643 200.152 330.519 200.56 330.271 200.912C330.023 201.256 329.691 201.504 329.275 201.656ZM325.951 199.76C325.951 200.256 326.107 200.636 326.419 200.9C326.739 201.164 327.203 201.296 327.811 201.296C328.419 201.296 328.879 201.164 329.191 200.9C329.511 200.636 329.671 200.256 329.671 199.76C329.671 199.288 329.511 198.92 329.191 198.656C328.879 198.392 328.419 198.26 327.811 198.26C327.203 198.26 326.739 198.392 326.419 198.656C326.107 198.92 325.951 199.288 325.951 199.76ZM327.811 205.268C329.187 205.268 329.875 204.744 329.875 203.696C329.875 202.648 329.187 202.124 327.811 202.124C326.435 202.124 325.747 202.648 325.747 203.696C325.747 204.744 326.435 205.268 327.811 205.268ZM332.762 204.704C332.962 204.704 333.122 204.784 333.242 204.944C333.37 205.096 333.434 205.328 333.434 205.64C333.434 206.272 333.23 206.804 332.822 207.236C332.742 207.324 332.65 207.368 332.546 207.368C332.466 207.368 332.394 207.336 332.33 207.272C332.266 207.216 332.234 207.148 332.234 207.068C332.234 206.98 332.266 206.904 332.33 206.84C332.538 206.624 332.67 206.356 332.726 206.036C332.55 206.02 332.402 205.956 332.282 205.844C332.17 205.724 332.114 205.572 332.114 205.388C332.114 205.188 332.174 205.024 332.294 204.896C332.422 204.768 332.578 204.704 332.762 204.704ZM337.484 197.444C338.508 197.444 339.296 197.8 339.848 198.512C340.408 199.224 340.688 200.24 340.688 201.56C340.688 202.504 340.56 203.316 340.304 203.996C340.048 204.676 339.676 205.196 339.188 205.556C338.7 205.916 338.12 206.096 337.448 206.096C336.992 206.096 336.536 206.008 336.08 205.832C335.632 205.656 335.248 205.416 334.928 205.112C334.792 204.984 334.724 204.848 334.724 204.704C334.724 204.584 334.756 204.484 334.82 204.404C334.884 204.324 334.96 204.284 335.048 204.284C335.16 204.284 335.276 204.328 335.396 204.416C336.092 204.984 336.768 205.268 337.424 205.268C338.136 205.268 338.692 204.944 339.092 204.296C339.492 203.648 339.692 202.74 339.692 201.572V201.416C339.508 201.864 339.208 202.216 338.792 202.472C338.384 202.728 337.92 202.856 337.4 202.856C336.888 202.856 336.432 202.744 336.032 202.52C335.632 202.296 335.32 201.98 335.096 201.572C334.872 201.164 334.76 200.696 334.76 200.168C334.76 199.648 334.876 199.18 335.108 198.764C335.34 198.348 335.664 198.024 336.08 197.792C336.496 197.56 336.964 197.444 337.484 197.444ZM337.544 202.028C338.096 202.028 338.544 201.856 338.888 201.512C339.24 201.16 339.416 200.708 339.416 200.156C339.416 199.596 339.24 199.144 338.888 198.8C338.544 198.448 338.092 198.272 337.532 198.272C336.988 198.272 336.552 198.444 336.224 198.788C335.896 199.132 335.732 199.588 335.732 200.156C335.732 200.724 335.896 201.18 336.224 201.524C336.56 201.86 337 202.028 337.544 202.028ZM346.408 201.656C346.904 201.808 347.288 202.068 347.56 202.436C347.84 202.804 347.98 203.244 347.98 203.756C347.98 204.484 347.716 205.056 347.188 205.472C346.66 205.88 345.912 206.084 344.944 206.084C343.976 206.084 343.228 205.88 342.7 205.472C342.172 205.056 341.908 204.484 341.908 203.756C341.908 203.236 342.048 202.792 342.328 202.424C342.608 202.056 342.996 201.8 343.492 201.656C343.068 201.496 342.732 201.244 342.484 200.9C342.236 200.556 342.112 200.152 342.112 199.688C342.112 199 342.36 198.456 342.856 198.056C343.36 197.648 344.056 197.444 344.944 197.444C345.832 197.444 346.524 197.648 347.02 198.056C347.524 198.456 347.776 199 347.776 199.688C347.776 200.152 347.652 200.56 347.404 200.912C347.156 201.256 346.824 201.504 346.408 201.656ZM343.084 199.76C343.084 200.256 343.24 200.636 343.552 200.9C343.872 201.164 344.336 201.296 344.944 201.296C345.552 201.296 346.012 201.164 346.324 200.9C346.644 200.636 346.804 200.256 346.804 199.76C346.804 199.288 346.644 198.92 346.324 198.656C346.012 198.392 345.552 198.26 344.944 198.26C344.336 198.26 343.872 198.392 343.552 198.656C343.24 198.92 343.084 199.288 343.084 199.76ZM344.944 205.268C346.32 205.268 347.008 204.744 347.008 203.696C347.008 202.648 346.32 202.124 344.944 202.124C343.568 202.124 342.88 202.648 342.88 203.696C342.88 204.744 343.568 205.268 344.944 205.268ZM358.965 201.596C359.085 201.596 359.181 201.632 359.253 201.704C359.333 201.776 359.373 201.876 359.373 202.004V204.992C359.373 205.184 359.341 205.328 359.277 205.424C359.221 205.52 359.113 205.596 358.953 205.652C358.633 205.788 358.245 205.896 357.789 205.976C357.333 206.056 356.877 206.096 356.421 206.096C355.581 206.096 354.857 205.924 354.249 205.58C353.641 205.236 353.173 204.74 352.845 204.092C352.525 203.444 352.365 202.668 352.365 201.764C352.365 200.876 352.525 200.108 352.845 199.46C353.165 198.812 353.625 198.316 354.225 197.972C354.825 197.62 355.529 197.444 356.337 197.444C356.897 197.444 357.417 197.532 357.897 197.708C358.377 197.876 358.781 198.12 359.109 198.44C359.245 198.576 359.313 198.716 359.313 198.86C359.313 198.972 359.281 199.072 359.217 199.16C359.153 199.24 359.073 199.28 358.977 199.28C358.881 199.28 358.769 199.232 358.641 199.136C358.225 198.816 357.849 198.596 357.513 198.476C357.177 198.348 356.789 198.284 356.349 198.284C355.397 198.284 354.665 198.584 354.153 199.184C353.649 199.784 353.397 200.644 353.397 201.764C353.397 202.908 353.653 203.78 354.165 204.38C354.685 204.972 355.445 205.268 356.445 205.268C357.189 205.268 357.865 205.156 358.473 204.932V202.364H356.721C356.585 202.364 356.477 202.328 356.397 202.256C356.317 202.184 356.277 202.092 356.277 201.98C356.277 201.86 356.317 201.768 356.397 201.704C356.477 201.632 356.585 201.596 356.721 201.596H358.965ZM366.16 201.656C366.648 201.784 367.024 202.024 367.288 202.376C367.56 202.728 367.696 203.168 367.696 203.696C367.696 204.44 367.452 205.012 366.964 205.412C366.476 205.804 365.784 206 364.888 206H361.864C361.712 206 361.588 205.956 361.492 205.868C361.404 205.78 361.36 205.664 361.36 205.52V198.02C361.36 197.876 361.404 197.76 361.492 197.672C361.588 197.584 361.712 197.54 361.864 197.54H364.756C365.628 197.54 366.304 197.732 366.784 198.116C367.264 198.5 367.504 199.044 367.504 199.748C367.504 200.204 367.384 200.596 367.144 200.924C366.912 201.252 366.584 201.496 366.16 201.656ZM362.332 201.296H364.612C365.244 201.296 365.72 201.168 366.04 200.912C366.368 200.656 366.532 200.284 366.532 199.796C366.532 198.836 365.892 198.356 364.612 198.356H362.332V201.296ZM364.792 205.184C365.456 205.184 365.944 205.064 366.256 204.824C366.576 204.576 366.736 204.192 366.736 203.672C366.736 202.632 366.088 202.112 364.792 202.112H362.332V205.184H364.792Z" fill="#234CAD"/>
<path d="M284.872 184.144C283.325 184.144 282.152 183.744 281.352 182.944C280.552 182.144 280.152 180.976 280.152 179.44V173.664C280.152 173.355 280.243 173.109 280.424 172.928C280.605 172.736 280.851 172.64 281.16 172.64C281.469 172.64 281.715 172.736 281.896 172.928C282.077 173.109 282.168 173.355 282.168 173.664V179.552C282.168 180.523 282.397 181.259 282.856 181.76C283.315 182.251 283.987 182.496 284.872 182.496C285.747 182.496 286.413 182.245 286.872 181.744C287.331 181.243 287.56 180.512 287.56 179.552V173.664C287.56 173.355 287.651 173.109 287.832 172.928C288.013 172.736 288.259 172.64 288.568 172.64C288.877 172.64 289.123 172.736 289.304 172.928C289.485 173.109 289.576 173.355 289.576 173.664V179.44C289.576 180.965 289.176 182.133 288.376 182.944C287.576 183.744 286.408 184.144 284.872 184.144ZM296.27 175.984C296.942 175.984 297.54 176.155 298.062 176.496C298.596 176.837 299.006 177.323 299.294 177.952C299.593 178.571 299.742 179.285 299.742 180.096C299.742 180.907 299.593 181.616 299.294 182.224C299.006 182.832 298.601 183.301 298.078 183.632C297.556 183.963 296.953 184.128 296.27 184.128C295.716 184.128 295.22 184.011 294.782 183.776C294.345 183.541 294.009 183.216 293.774 182.8V186.064C293.774 186.341 293.684 186.56 293.502 186.72C293.321 186.88 293.081 186.96 292.782 186.96C292.484 186.96 292.238 186.875 292.046 186.704C291.865 186.533 291.774 186.309 291.774 186.032V176.96C291.774 176.672 291.86 176.443 292.03 176.272C292.212 176.101 292.452 176.016 292.75 176.016C293.049 176.016 293.289 176.101 293.47 176.272C293.652 176.443 293.742 176.672 293.742 176.96V177.36C293.977 176.923 294.313 176.587 294.75 176.352C295.198 176.107 295.705 175.984 296.27 175.984ZM295.742 182.576C296.372 182.576 296.862 182.363 297.214 181.936C297.566 181.499 297.742 180.885 297.742 180.096C297.742 179.285 297.566 178.656 297.214 178.208C296.862 177.76 296.372 177.536 295.742 177.536C295.102 177.536 294.606 177.755 294.254 178.192C293.913 178.629 293.742 179.253 293.742 180.064C293.742 180.864 293.913 181.483 294.254 181.92C294.606 182.357 295.102 182.576 295.742 182.576ZM302.376 184.096C302.088 184.096 301.848 184.016 301.656 183.856C301.474 183.685 301.384 183.445 301.384 183.136V173.584C301.384 173.275 301.474 173.04 301.656 172.88C301.848 172.72 302.088 172.64 302.376 172.64C302.664 172.64 302.904 172.72 303.096 172.88C303.288 173.04 303.384 173.275 303.384 173.584V183.136C303.384 183.445 303.288 183.685 303.096 183.856C302.904 184.016 302.664 184.096 302.376 184.096ZM309.014 184.128C308.214 184.128 307.51 183.963 306.902 183.632C306.305 183.301 305.841 182.827 305.51 182.208C305.18 181.589 305.014 180.869 305.014 180.048C305.014 179.227 305.18 178.512 305.51 177.904C305.841 177.285 306.305 176.811 306.902 176.48C307.51 176.149 308.214 175.984 309.014 175.984C309.814 175.984 310.513 176.149 311.11 176.48C311.718 176.811 312.182 177.285 312.502 177.904C312.833 178.512 312.998 179.227 312.998 180.048C312.998 180.869 312.833 181.589 312.502 182.208C312.182 182.827 311.718 183.301 311.11 183.632C310.513 183.963 309.814 184.128 309.014 184.128ZM308.998 182.576C309.649 182.576 310.145 182.363 310.486 181.936C310.828 181.509 310.998 180.88 310.998 180.048C310.998 179.227 310.828 178.603 310.486 178.176C310.145 177.739 309.654 177.52 309.014 177.52C308.374 177.52 307.878 177.739 307.526 178.176C307.185 178.603 307.014 179.227 307.014 180.048C307.014 180.88 307.185 181.509 307.526 181.936C307.868 182.363 308.358 182.576 308.998 182.576ZM318.041 175.984C319.129 175.984 319.935 176.256 320.457 176.8C320.991 177.333 321.257 178.149 321.257 179.248V183.152C321.257 183.44 321.172 183.669 321.001 183.84C320.831 184 320.596 184.08 320.297 184.08C320.02 184.08 319.791 183.995 319.609 183.824C319.439 183.653 319.353 183.429 319.353 183.152V182.8C319.172 183.216 318.884 183.541 318.489 183.776C318.105 184.011 317.657 184.128 317.145 184.128C316.623 184.128 316.148 184.021 315.721 183.808C315.295 183.595 314.959 183.301 314.713 182.928C314.468 182.555 314.345 182.139 314.345 181.68C314.345 181.104 314.489 180.651 314.777 180.32C315.076 179.989 315.556 179.749 316.217 179.6C316.879 179.451 317.791 179.376 318.953 179.376H319.353V179.008C319.353 178.485 319.241 178.107 319.017 177.872C318.793 177.627 318.431 177.504 317.929 177.504C317.62 177.504 317.305 177.552 316.985 177.648C316.665 177.733 316.287 177.861 315.849 178.032C315.572 178.171 315.369 178.24 315.241 178.24C315.049 178.24 314.889 178.171 314.761 178.032C314.644 177.893 314.585 177.712 314.585 177.488C314.585 177.307 314.628 177.152 314.713 177.024C314.809 176.885 314.964 176.757 315.177 176.64C315.551 176.437 315.993 176.277 316.505 176.16C317.028 176.043 317.54 175.984 318.041 175.984ZM317.545 182.688C318.079 182.688 318.511 182.512 318.841 182.16C319.183 181.797 319.353 181.333 319.353 180.768V180.432H319.065C318.351 180.432 317.796 180.464 317.401 180.528C317.007 180.592 316.724 180.704 316.553 180.864C316.383 181.024 316.297 181.243 316.297 181.52C316.297 181.861 316.415 182.144 316.649 182.368C316.895 182.581 317.193 182.688 317.545 182.688ZM329.818 172.64C330.117 172.64 330.362 172.725 330.554 172.896C330.746 173.067 330.842 173.291 330.842 173.568V183.136C330.842 183.424 330.751 183.653 330.57 183.824C330.389 183.995 330.149 184.08 329.85 184.08C329.551 184.08 329.311 183.995 329.13 183.824C328.949 183.653 328.858 183.424 328.858 183.136V182.736C328.623 183.173 328.282 183.515 327.834 183.76C327.397 184.005 326.895 184.128 326.33 184.128C325.658 184.128 325.055 183.957 324.522 183.616C323.999 183.275 323.589 182.795 323.29 182.176C323.002 181.547 322.858 180.827 322.858 180.016C322.858 179.205 323.002 178.496 323.29 177.888C323.589 177.28 323.999 176.811 324.522 176.48C325.045 176.149 325.647 175.984 326.33 175.984C326.895 175.984 327.397 176.101 327.834 176.336C328.271 176.571 328.607 176.901 328.842 177.328V173.536C328.842 173.269 328.927 173.056 329.098 172.896C329.279 172.725 329.519 172.64 329.818 172.64ZM326.858 182.576C327.498 182.576 327.989 182.357 328.33 181.92C328.682 181.483 328.858 180.859 328.858 180.048C328.858 179.237 328.682 178.619 328.33 178.192C327.989 177.755 327.503 177.536 326.874 177.536C326.234 177.536 325.738 177.749 325.386 178.176C325.034 178.603 324.858 179.216 324.858 180.016C324.858 180.827 325.034 181.456 325.386 181.904C325.738 182.352 326.229 182.576 326.858 182.576ZM333.891 184.096C333.603 184.096 333.363 184.016 333.171 183.856C332.99 183.685 332.899 183.445 332.899 183.136V176.96C332.899 176.651 332.99 176.416 333.171 176.256C333.363 176.096 333.603 176.016 333.891 176.016C334.179 176.016 334.419 176.096 334.611 176.256C334.803 176.416 334.899 176.651 334.899 176.96V183.136C334.899 183.445 334.803 183.685 334.611 183.856C334.419 184.016 334.179 184.096 333.891 184.096ZM333.891 174.592C333.529 174.592 333.241 174.496 333.027 174.304C332.814 174.101 332.707 173.84 332.707 173.52C332.707 173.2 332.814 172.944 333.027 172.752C333.241 172.56 333.529 172.464 333.891 172.464C334.243 172.464 334.526 172.56 334.739 172.752C334.963 172.944 335.075 173.2 335.075 173.52C335.075 173.84 334.969 174.101 334.755 174.304C334.542 174.496 334.254 174.592 333.891 174.592ZM341.506 175.984C342.445 175.984 343.143 176.251 343.602 176.784C344.061 177.317 344.29 178.123 344.29 179.2V183.136C344.29 183.435 344.199 183.669 344.018 183.84C343.847 184.011 343.607 184.096 343.298 184.096C342.989 184.096 342.743 184.011 342.562 183.84C342.381 183.669 342.29 183.435 342.29 183.136V179.312C342.29 178.704 342.173 178.261 341.938 177.984C341.714 177.707 341.357 177.568 340.866 177.568C340.29 177.568 339.826 177.749 339.474 178.112C339.133 178.475 338.962 178.96 338.962 179.568V183.136C338.962 183.435 338.871 183.669 338.69 183.84C338.509 184.011 338.263 184.096 337.954 184.096C337.645 184.096 337.399 184.011 337.218 183.84C337.047 183.669 336.962 183.435 336.962 183.136V176.944C336.962 176.667 337.053 176.443 337.234 176.272C337.415 176.101 337.661 176.016 337.97 176.016C338.247 176.016 338.471 176.101 338.642 176.272C338.823 176.432 338.914 176.645 338.914 176.912V177.344C339.181 176.907 339.538 176.571 339.986 176.336C340.434 176.101 340.941 175.984 341.506 175.984ZM352.945 176.016C353.244 176.016 353.484 176.101 353.665 176.272C353.847 176.443 353.937 176.672 353.937 176.96V183.28C353.937 184.507 353.596 185.435 352.913 186.064C352.231 186.693 351.223 187.008 349.889 187.008C348.727 187.008 347.756 186.789 346.977 186.352C346.583 186.117 346.385 185.835 346.385 185.504C346.385 185.269 346.439 185.083 346.545 184.944C346.663 184.805 346.812 184.736 346.993 184.736C347.089 184.736 347.207 184.757 347.345 184.8C347.484 184.853 347.628 184.912 347.777 184.976C348.161 185.136 348.503 185.259 348.801 185.344C349.111 185.429 349.463 185.472 349.857 185.472C351.255 185.472 351.953 184.789 351.953 183.424V182.4C351.719 182.837 351.377 183.179 350.929 183.424C350.481 183.659 349.969 183.776 349.393 183.776C348.711 183.776 348.103 183.616 347.569 183.296C347.047 182.965 346.636 182.507 346.337 181.92C346.039 181.333 345.889 180.656 345.889 179.888C345.889 179.12 346.033 178.443 346.321 177.856C346.62 177.259 347.036 176.8 347.569 176.48C348.103 176.149 348.711 175.984 349.393 175.984C349.969 175.984 350.481 176.107 350.929 176.352C351.377 176.587 351.719 176.923 351.953 177.36V176.944C351.953 176.667 352.044 176.443 352.225 176.272C352.407 176.101 352.647 176.016 352.945 176.016ZM349.921 182.224C350.561 182.224 351.057 182.016 351.409 181.6C351.772 181.184 351.953 180.613 351.953 179.888C351.953 179.152 351.772 178.576 351.409 178.16C351.057 177.744 350.561 177.536 349.921 177.536C349.292 177.536 348.796 177.744 348.433 178.16C348.071 178.576 347.889 179.152 347.889 179.888C347.889 180.613 348.071 181.184 348.433 181.6C348.796 182.016 349.292 182.224 349.921 182.224ZM361.521 184C361.211 184 360.966 183.915 360.785 183.744C360.614 183.573 360.529 183.333 360.529 183.024V173.696C360.529 173.387 360.614 173.147 360.785 172.976C360.966 172.805 361.211 172.72 361.521 172.72H364.689C366.534 172.72 367.963 173.216 368.977 174.208C370.001 175.189 370.513 176.571 370.513 178.352C370.513 180.144 370.001 181.536 368.977 182.528C367.963 183.509 366.534 184 364.689 184H361.521ZM364.561 182.32C367.153 182.32 368.449 180.997 368.449 178.352C368.449 175.717 367.153 174.4 364.561 174.4H362.593V182.32H364.561ZM375.983 184.128C375.183 184.128 374.479 183.963 373.871 183.632C373.274 183.301 372.81 182.827 372.479 182.208C372.148 181.589 371.983 180.869 371.983 180.048C371.983 179.227 372.148 178.512 372.479 177.904C372.81 177.285 373.274 176.811 373.871 176.48C374.479 176.149 375.183 175.984 375.983 175.984C376.783 175.984 377.482 176.149 378.079 176.48C378.687 176.811 379.151 177.285 379.471 177.904C379.802 178.512 379.967 179.227 379.967 180.048C379.967 180.869 379.802 181.589 379.471 182.208C379.151 182.827 378.687 183.301 378.079 183.632C377.482 183.963 376.783 184.128 375.983 184.128ZM375.967 182.576C376.618 182.576 377.114 182.363 377.455 181.936C377.796 181.509 377.967 180.88 377.967 180.048C377.967 179.227 377.796 178.603 377.455 178.176C377.114 177.739 376.623 177.52 375.983 177.52C375.343 177.52 374.847 177.739 374.495 178.176C374.154 178.603 373.983 179.227 373.983 180.048C373.983 180.88 374.154 181.509 374.495 181.936C374.836 182.363 375.327 182.576 375.967 182.576ZM385.09 184.128C384.311 184.128 383.623 183.963 383.026 183.632C382.439 183.301 381.986 182.832 381.666 182.224C381.346 181.616 381.186 180.907 381.186 180.096C381.186 179.285 381.351 178.571 381.682 177.952C382.023 177.323 382.498 176.837 383.106 176.496C383.714 176.155 384.413 175.984 385.202 175.984C385.618 175.984 386.034 176.043 386.45 176.16C386.877 176.277 387.25 176.437 387.57 176.64C387.911 176.864 388.082 177.147 388.082 177.488C388.082 177.723 388.023 177.915 387.906 178.064C387.799 178.203 387.655 178.272 387.474 178.272C387.357 178.272 387.234 178.245 387.106 178.192C386.978 178.139 386.85 178.075 386.722 178C386.487 177.861 386.263 177.755 386.05 177.68C385.837 177.595 385.591 177.552 385.314 177.552C384.653 177.552 384.141 177.771 383.778 178.208C383.426 178.635 383.25 179.253 383.25 180.064C383.25 180.864 383.426 181.483 383.778 181.92C384.141 182.347 384.653 182.56 385.314 182.56C385.581 182.56 385.815 182.523 386.018 182.448C386.231 182.363 386.466 182.251 386.722 182.112C386.882 182.016 387.021 181.947 387.138 181.904C387.255 181.851 387.373 181.824 387.49 181.824C387.661 181.824 387.805 181.899 387.922 182.048C388.039 182.197 388.098 182.384 388.098 182.608C388.098 182.789 388.055 182.949 387.97 183.088C387.895 183.216 387.767 183.333 387.586 183.44C387.255 183.653 386.871 183.824 386.434 183.952C385.997 184.069 385.549 184.128 385.09 184.128ZM395.607 176.016C395.916 176.016 396.161 176.101 396.343 176.272C396.524 176.443 396.615 176.672 396.615 176.96V183.168C396.615 183.445 396.519 183.669 396.327 183.84C396.145 184.011 395.905 184.096 395.607 184.096C395.319 184.096 395.089 184.016 394.919 183.856C394.748 183.696 394.663 183.477 394.663 183.2V182.8C394.417 183.227 394.087 183.557 393.671 183.792C393.255 184.016 392.785 184.128 392.263 184.128C390.343 184.128 389.383 183.051 389.383 180.896V176.96C389.383 176.672 389.473 176.443 389.655 176.272C389.836 176.101 390.076 176.016 390.375 176.016C390.684 176.016 390.929 176.101 391.111 176.272C391.292 176.443 391.383 176.672 391.383 176.96V180.912C391.383 181.467 391.495 181.877 391.719 182.144C391.943 182.411 392.295 182.544 392.775 182.544C393.329 182.544 393.772 182.363 394.103 182C394.444 181.627 394.615 181.136 394.615 180.528V176.96C394.615 176.672 394.705 176.443 394.887 176.272C395.068 176.101 395.308 176.016 395.607 176.016ZM407.992 175.984C408.846 175.984 409.496 176.24 409.944 176.752C410.403 177.253 410.632 178.069 410.632 179.2V183.136C410.632 183.445 410.536 183.685 410.344 183.856C410.163 184.016 409.923 184.096 409.624 184.096C409.336 184.096 409.096 184.016 408.904 183.856C408.723 183.685 408.632 183.445 408.632 183.136V179.2C408.632 178.613 408.526 178.197 408.312 177.952C408.11 177.696 407.795 177.568 407.368 177.568C406.846 177.568 406.43 177.749 406.12 178.112C405.811 178.464 405.656 178.949 405.656 179.568V183.136C405.656 183.445 405.56 183.685 405.368 183.856C405.187 184.016 404.952 184.096 404.664 184.096C404.376 184.096 404.136 184.016 403.944 183.856C403.752 183.685 403.656 183.445 403.656 183.136V179.2C403.656 178.613 403.55 178.197 403.336 177.952C403.134 177.696 402.819 177.568 402.392 177.568C401.87 177.568 401.454 177.749 401.144 178.112C400.846 178.464 400.696 178.949 400.696 179.568V183.136C400.696 183.445 400.6 183.685 400.408 183.856C400.216 184.016 399.976 184.096 399.688 184.096C399.4 184.096 399.16 184.016 398.968 183.856C398.787 183.685 398.696 183.445 398.696 183.136V176.944C398.696 176.645 398.792 176.416 398.984 176.256C399.176 176.096 399.416 176.016 399.704 176.016C399.982 176.016 400.206 176.096 400.376 176.256C400.558 176.405 400.648 176.624 400.648 176.912V177.296C400.894 176.869 401.219 176.544 401.624 176.32C402.04 176.096 402.515 175.984 403.048 175.984C404.222 175.984 405.006 176.475 405.4 177.456C405.635 177.008 405.982 176.651 406.44 176.384C406.899 176.117 407.416 175.984 407.992 175.984ZM418.857 181.856C419.038 181.856 419.182 181.925 419.289 182.064C419.406 182.203 419.465 182.389 419.465 182.624C419.465 182.955 419.268 183.232 418.873 183.456C418.51 183.659 418.1 183.824 417.641 183.952C417.182 184.069 416.745 184.128 416.329 184.128C415.07 184.128 414.073 183.765 413.337 183.04C412.601 182.315 412.233 181.323 412.233 180.064C412.233 179.264 412.393 178.555 412.713 177.936C413.033 177.317 413.481 176.837 414.057 176.496C414.644 176.155 415.305 175.984 416.041 175.984C416.745 175.984 417.358 176.139 417.881 176.448C418.404 176.757 418.809 177.195 419.097 177.76C419.385 178.325 419.529 178.992 419.529 179.76C419.529 180.219 419.326 180.448 418.921 180.448H414.201C414.265 181.184 414.473 181.728 414.825 182.08C415.177 182.421 415.689 182.592 416.361 182.592C416.702 182.592 417.001 182.549 417.257 182.464C417.524 182.379 417.822 182.261 418.153 182.112C418.473 181.941 418.708 181.856 418.857 181.856ZM416.089 177.392C415.545 177.392 415.108 177.563 414.777 177.904C414.457 178.245 414.265 178.736 414.201 179.376H417.817C417.796 178.725 417.636 178.235 417.337 177.904C417.038 177.563 416.622 177.392 416.089 177.392ZM425.709 175.984C426.648 175.984 427.346 176.251 427.805 176.784C428.264 177.317 428.493 178.123 428.493 179.2V183.136C428.493 183.435 428.402 183.669 428.221 183.84C428.05 184.011 427.81 184.096 427.501 184.096C427.192 184.096 426.946 184.011 426.765 183.84C426.584 183.669 426.493 183.435 426.493 183.136V179.312C426.493 178.704 426.376 178.261 426.141 177.984C425.917 177.707 425.56 177.568 425.069 177.568C424.493 177.568 424.029 177.749 423.677 178.112C423.336 178.475 423.165 178.96 423.165 179.568V183.136C423.165 183.435 423.074 183.669 422.893 183.84C422.712 184.011 422.466 184.096 422.157 184.096C421.848 184.096 421.602 184.011 421.421 183.84C421.25 183.669 421.165 183.435 421.165 183.136V176.944C421.165 176.667 421.256 176.443 421.437 176.272C421.618 176.101 421.864 176.016 422.173 176.016C422.45 176.016 422.674 176.101 422.845 176.272C423.026 176.432 423.117 176.645 423.117 176.912V177.344C423.384 176.907 423.741 176.571 424.189 176.336C424.637 176.101 425.144 175.984 425.709 175.984ZM434.588 182.608C435.122 182.64 435.388 182.88 435.388 183.328C435.388 183.584 435.282 183.781 435.068 183.92C434.866 184.048 434.572 184.101 434.188 184.08L433.756 184.048C431.964 183.92 431.068 182.96 431.068 181.168V177.68H430.268C429.98 177.68 429.756 177.616 429.596 177.488C429.447 177.36 429.372 177.173 429.372 176.928C429.372 176.683 429.447 176.496 429.596 176.368C429.756 176.24 429.98 176.176 430.268 176.176H431.068V174.704C431.068 174.416 431.159 174.187 431.34 174.016C431.522 173.845 431.767 173.76 432.076 173.76C432.375 173.76 432.615 173.845 432.796 174.016C432.978 174.187 433.068 174.416 433.068 174.704V176.176H434.428C434.716 176.176 434.935 176.24 435.084 176.368C435.244 176.496 435.324 176.683 435.324 176.928C435.324 177.173 435.244 177.36 435.084 177.488C434.935 177.616 434.716 177.68 434.428 177.68H433.068V181.312C433.068 182.101 433.431 182.523 434.156 182.576L434.588 182.608Z" fill="#234CAD"/>
</g>
<path d="M259 190C259 173.431 245.569 160 229 160" stroke="#234CAD" stroke-width="2" stroke-linecap="round" stroke-linejoin="round"/>
<circle cx="229" cy="190" r="23" fill="#F2F6FF"/>
<path d="M224.227 197.316C224.78 197.316 225.227 196.868 225.227 196.316C225.227 195.764 224.78 195.316 224.227 195.316V197.316ZM223.545 188.263V189.263H224.545V188.263H223.545ZM234.455 188.263H233.455V189.263H234.455V188.263ZM233.773 195.316C233.22 195.316 232.773 195.764 232.773 196.316C232.773 196.868 233.22 197.316 233.773 197.316V195.316ZM228 199C228 199.552 228.448 200 229 200C229.552 200 230 199.552 230 199H228ZM230 190.947C230 190.395 229.552 189.947 229 189.947C228.448 189.947 228 190.395 228 190.947H230ZM229.701 191.66C230.095 191.273 230.1 190.64 229.713 190.246C229.325 189.852 228.692 189.847 228.299 190.235L229.701 191.66ZM225.571 192.919C225.178 193.306 225.173 193.939 225.56 194.333C225.947 194.727 226.581 194.732 226.974 194.344L225.571 192.919ZM229.701 190.235C229.308 189.847 228.675 189.852 228.287 190.246C227.9 190.64 227.905 191.273 228.299 191.66L229.701 190.235ZM231.026 194.344C231.419 194.732 232.053 194.727 232.44 194.333C232.827 193.939 232.822 193.306 232.429 192.919L231.026 194.344ZM224.227 195.316H223.091V197.316H224.227V195.316ZM223.091 195.316C221.369 195.316 220 193.946 220 192.289H218C218 195.08 220.294 197.316 223.091 197.316V195.316ZM220 192.289C220 190.633 221.369 189.263 223.091 189.263V187.263C220.294 187.263 218 189.499 218 192.289H220ZM223.091 189.263H223.545V187.263H223.091V189.263ZM224.545 188.263V187.368H222.545V188.263H224.545ZM224.545 187.368C224.545 184.971 226.525 183 229 183V181C225.45 181 222.545 183.836 222.545 187.368H224.545ZM229 183C231.475 183 233.455 184.971 233.455 187.368H235.455C235.455 183.836 232.55 181 229 181V183ZM233.455 187.368V188.263H235.455V187.368H233.455ZM234.455 189.263H234.909V187.263H234.455V189.263ZM234.909 189.263C236.631 189.263 238 190.633 238 192.289H240C240 189.499 237.706 187.263 234.909 187.263V189.263ZM238 192.289C238 193.946 236.631 195.316 234.909 195.316V197.316C237.706 197.316 240 195.08 240 192.289H238ZM234.909 195.316H233.773V197.316H234.909V195.316ZM230 199V190.947H228V199H230ZM228.299 190.235L225.571 192.919L226.974 194.344L229.701 191.66L228.299 190.235ZM228.299 191.66L231.026 194.344L232.429 192.919L229.701 190.235L228.299 191.66Z" fill="#234CAD"/>
<defs>
<filter id="filter0_f_8786_317" x="0.085907" y="0.085907" width="721.828" height="421.828" filterUnits="userSpaceOnUse" color-interpolation-filters="sRGB">
<feFlood flood-opacity="0" result="BackgroundImageFix"/>
<feBlend mode="normal" in="SourceGraphic" in2="BackgroundImageFix" result="shape"/>
<feGaussianBlur stdDeviation="67.957" result="effect1_foregroundBlur_8786_317"/>
</filter>
<linearGradient id="paint0_linear_8786_317" x1="476.778" y1="340.897" x2="532.622" y2="97.6209" gradientUnits="userSpaceOnUse">
<stop stop-color="#234CAD"/>
<stop offset="1" stop-color="#234CAD" stop-opacity="0.5"/>
</linearGradient>
<clipPath id="clip0_8786_317">
<rect width="157" height="45" fill="white" transform="translate(279 168)"/>
</clipPath>
</defs>
</svg>
