<svg width="622" height="372" viewBox="0 0 622 372" fill="none" xmlns="http://www.w3.org/2000/svg">
<g opacity="0.05" filter="url(#filter0_f_8786_288)">
<rect x="136" y="136" width="350" height="100" rx="25" fill="url(#paint0_linear_8786_288)"/>
</g>
<rect x="136" y="136" width="350" height="100" rx="25" fill="white"/>
<g clip-path="url(#clip0_8786_288)">
<path opacity="0.75" d="M425.92 173.31C426.04 173.31 426.133 173.34 426.2 173.4C426.267 173.46 426.3 173.543 426.3 173.65C426.3 173.763 426.267 173.85 426.2 173.91C426.14 173.97 426.047 174 425.92 174H422.61C422.483 174 422.387 173.97 422.32 173.91C422.26 173.85 422.23 173.763 422.23 173.65C422.23 173.543 422.263 173.46 422.33 173.4C422.397 173.34 422.49 173.31 422.61 173.31H423.85V167.95L422.76 168.66C422.707 168.693 422.653 168.71 422.6 168.71C422.507 168.71 422.423 168.667 422.35 168.58C422.283 168.493 422.25 168.4 422.25 168.3C422.25 168.16 422.303 168.06 422.41 168L423.93 167.01C424.043 166.937 424.16 166.9 424.28 166.9C424.393 166.9 424.487 166.937 424.56 167.01C424.633 167.083 424.67 167.187 424.67 167.32V173.31H425.92ZM431.916 173.31C432.036 173.31 432.129 173.34 432.196 173.4C432.263 173.46 432.296 173.543 432.296 173.65C432.296 173.763 432.263 173.85 432.196 173.91C432.136 173.97 432.043 174 431.916 174H428.606C428.479 174 428.383 173.97 428.316 173.91C428.256 173.85 428.226 173.763 428.226 173.65C428.226 173.543 428.259 173.46 428.326 173.4C428.393 173.34 428.486 173.31 428.606 173.31H429.846V167.95L428.756 168.66C428.703 168.693 428.649 168.71 428.596 168.71C428.503 168.71 428.419 168.667 428.346 168.58C428.279 168.493 428.246 168.4 428.246 168.3C428.246 168.16 428.299 168.06 428.406 168L429.926 167.01C430.039 166.937 430.156 166.9 430.276 166.9C430.389 166.9 430.483 166.937 430.556 167.01C430.629 167.083 430.666 167.187 430.666 167.32V173.31H431.916ZM434.142 170.15C433.982 170.15 433.849 170.1 433.742 170C433.636 169.893 433.582 169.757 433.582 169.59C433.582 169.423 433.636 169.29 433.742 169.19C433.849 169.083 433.982 169.03 434.142 169.03C434.296 169.03 434.422 169.083 434.522 169.19C434.629 169.29 434.682 169.423 434.682 169.59C434.682 169.757 434.629 169.893 434.522 170C434.422 170.1 434.296 170.15 434.142 170.15ZM434.142 174.05C433.982 174.05 433.849 174 433.742 173.9C433.636 173.793 433.582 173.657 433.582 173.49C433.582 173.323 433.636 173.187 433.742 173.08C433.849 172.973 433.982 172.92 434.142 172.92C434.296 172.92 434.422 172.973 434.522 173.08C434.629 173.187 434.682 173.323 434.682 173.49C434.682 173.657 434.629 173.793 434.522 173.9C434.422 174 434.296 174.05 434.142 174.05ZM438.277 174.08C437.471 174.08 436.857 173.773 436.437 173.16C436.017 172.547 435.807 171.653 435.807 170.48C435.807 169.3 436.017 168.403 436.437 167.79C436.857 167.177 437.471 166.87 438.277 166.87C439.084 166.87 439.697 167.177 440.117 167.79C440.537 168.397 440.747 169.29 440.747 170.47C440.747 171.65 440.537 172.547 440.117 173.16C439.697 173.773 439.084 174.08 438.277 174.08ZM438.277 173.39C438.837 173.39 439.251 173.153 439.517 172.68C439.784 172.207 439.917 171.47 439.917 170.47C439.917 169.463 439.784 168.727 439.517 168.26C439.257 167.793 438.844 167.56 438.277 167.56C437.717 167.56 437.304 167.797 437.037 168.27C436.771 168.737 436.637 169.47 436.637 170.47C436.637 171.47 436.771 172.207 437.037 172.68C437.304 173.153 437.717 173.39 438.277 173.39ZM446.353 173.31C446.473 173.31 446.567 173.34 446.633 173.4C446.7 173.46 446.733 173.543 446.733 173.65C446.733 173.883 446.607 174 446.353 174H442.433C442.32 174 442.227 173.967 442.153 173.9C442.08 173.827 442.043 173.74 442.043 173.64C442.043 173.513 442.09 173.403 442.183 173.31L444.593 170.66C444.927 170.287 445.167 169.953 445.313 169.66C445.467 169.36 445.543 169.06 445.543 168.76C445.543 168.373 445.43 168.077 445.203 167.87C444.983 167.663 444.67 167.56 444.263 167.56C443.943 167.56 443.637 167.62 443.343 167.74C443.05 167.853 442.757 168.03 442.463 168.27C442.363 168.35 442.27 168.39 442.183 168.39C442.11 168.39 442.047 168.357 441.993 168.29C441.94 168.217 441.913 168.13 441.913 168.03C441.913 167.89 441.967 167.777 442.073 167.69C442.347 167.437 442.68 167.237 443.073 167.09C443.467 166.943 443.87 166.87 444.283 166.87C444.917 166.87 445.42 167.037 445.793 167.37C446.173 167.703 446.363 168.153 446.363 168.72C446.363 169.127 446.27 169.517 446.083 169.89C445.903 170.263 445.603 170.68 445.183 171.14L443.183 173.31H446.353ZM456.788 173.53C456.814 173.583 456.828 173.64 456.828 173.7C456.828 173.8 456.788 173.883 456.708 173.95C456.634 174.017 456.544 174.05 456.438 174.05C456.271 174.05 456.154 173.97 456.088 173.81L455.378 172.19H451.608L450.888 173.81C450.821 173.97 450.704 174.05 450.538 174.05C450.431 174.05 450.338 174.017 450.258 173.95C450.178 173.877 450.138 173.79 450.138 173.69C450.138 173.637 450.151 173.583 450.178 173.53L453.038 167.17C453.078 167.077 453.138 167.007 453.218 166.96C453.298 166.913 453.384 166.89 453.478 166.89C453.578 166.89 453.668 166.917 453.748 166.97C453.828 167.017 453.888 167.083 453.928 167.17L456.788 173.53ZM451.908 171.51H455.078L453.488 167.92L451.908 171.51ZM464.243 166.9C464.37 166.9 464.467 166.94 464.533 167.02C464.607 167.093 464.643 167.193 464.643 167.32V173.65C464.643 173.77 464.61 173.867 464.543 173.94C464.477 174.013 464.383 174.05 464.263 174.05C464.143 174.05 464.053 174.013 463.993 173.94C463.933 173.867 463.903 173.77 463.903 173.65V168.54L461.733 172.7C461.64 172.893 461.503 172.99 461.323 172.99C461.15 172.99 461.013 172.893 460.913 172.7L458.733 168.59V173.65C458.733 173.77 458.7 173.867 458.633 173.94C458.573 174.013 458.483 174.05 458.363 174.05C458.243 174.05 458.15 174.013 458.083 173.94C458.017 173.867 457.983 173.77 457.983 173.65V167.32C457.983 167.193 458.02 167.093 458.093 167.02C458.167 166.94 458.267 166.9 458.393 166.9C458.56 166.9 458.693 166.997 458.793 167.19L461.333 172.06L463.843 167.19C463.897 167.083 463.953 167.01 464.013 166.97C464.08 166.923 464.157 166.9 464.243 166.9Z" fill="#234CAD"/>
<g clip-path="url(#clip1_8786_288)">
<path d="M243.572 193.48C243.724 193.48 243.84 193.528 243.92 193.624C244.008 193.712 244.052 193.832 244.052 193.984V201.556C244.052 201.708 244.008 201.832 243.92 201.928C243.84 202.016 243.724 202.06 243.572 202.06C243.42 202.06 243.3 202.016 243.212 201.928C243.124 201.832 243.08 201.708 243.08 201.556V198.124H238.016V201.556C238.016 201.708 237.972 201.832 237.884 201.928C237.796 202.016 237.676 202.06 237.524 202.06C237.372 202.06 237.252 202.016 237.164 201.928C237.084 201.832 237.044 201.708 237.044 201.556V193.984C237.044 193.832 237.084 193.712 237.164 193.624C237.252 193.528 237.372 193.48 237.524 193.48C237.676 193.48 237.796 193.528 237.884 193.624C237.972 193.712 238.016 193.832 238.016 193.984V197.284H243.08V193.984C243.08 193.832 243.124 193.712 243.212 193.624C243.3 193.528 243.42 193.48 243.572 193.48ZM250.518 200.644C250.606 200.644 250.682 200.68 250.746 200.752C250.81 200.824 250.842 200.916 250.842 201.028C250.842 201.228 250.702 201.412 250.422 201.58C250.134 201.748 249.83 201.876 249.51 201.964C249.19 202.044 248.878 202.084 248.574 202.084C247.67 202.084 246.954 201.816 246.426 201.28C245.906 200.744 245.646 200.004 245.646 199.06C245.646 198.46 245.762 197.932 245.994 197.476C246.226 197.012 246.55 196.652 246.966 196.396C247.39 196.14 247.87 196.012 248.406 196.012C249.166 196.012 249.77 196.26 250.218 196.756C250.666 197.252 250.89 197.924 250.89 198.772C250.89 198.932 250.858 199.048 250.794 199.12C250.73 199.192 250.626 199.228 250.482 199.228H246.618C246.69 200.604 247.342 201.292 248.574 201.292C248.886 201.292 249.154 201.252 249.378 201.172C249.602 201.084 249.842 200.968 250.098 200.824C250.306 200.704 250.446 200.644 250.518 200.644ZM248.418 196.768C247.906 196.768 247.494 196.928 247.182 197.248C246.878 197.568 246.698 198.02 246.642 198.604H250.038C250.022 198.012 249.874 197.56 249.594 197.248C249.314 196.928 248.922 196.768 248.418 196.768ZM252.814 202.06C252.67 202.06 252.55 202.02 252.454 201.94C252.366 201.852 252.322 201.732 252.322 201.58V193.96C252.322 193.808 252.366 193.692 252.454 193.612C252.55 193.524 252.67 193.48 252.814 193.48C252.95 193.48 253.062 193.524 253.15 193.612C253.246 193.692 253.294 193.808 253.294 193.96V201.58C253.294 201.732 253.246 201.852 253.15 201.94C253.062 202.02 252.95 202.06 252.814 202.06ZM255.603 202.06C255.459 202.06 255.339 202.02 255.243 201.94C255.155 201.852 255.111 201.732 255.111 201.58V193.96C255.111 193.808 255.155 193.692 255.243 193.612C255.339 193.524 255.459 193.48 255.603 193.48C255.739 193.48 255.851 193.524 255.939 193.612C256.035 193.692 256.083 193.808 256.083 193.96V201.58C256.083 201.732 256.035 201.852 255.939 201.94C255.851 202.02 255.739 202.06 255.603 202.06ZM260.324 202.084C259.772 202.084 259.284 201.96 258.86 201.712C258.444 201.464 258.12 201.112 257.888 200.656C257.664 200.192 257.552 199.656 257.552 199.048C257.552 198.44 257.664 197.908 257.888 197.452C258.12 196.988 258.444 196.632 258.86 196.384C259.284 196.136 259.772 196.012 260.324 196.012C260.876 196.012 261.364 196.136 261.788 196.384C262.212 196.632 262.536 196.988 262.76 197.452C262.992 197.908 263.108 198.44 263.108 199.048C263.108 199.656 262.992 200.192 262.76 200.656C262.536 201.112 262.212 201.464 261.788 201.712C261.364 201.96 260.876 202.084 260.324 202.084ZM260.324 201.28C260.9 201.28 261.34 201.092 261.644 200.716C261.956 200.332 262.112 199.776 262.112 199.048C262.112 198.336 261.956 197.788 261.644 197.404C261.332 197.012 260.892 196.816 260.324 196.816C259.756 196.816 259.316 197.012 259.004 197.404C258.692 197.788 258.536 198.336 258.536 199.048C258.536 199.768 258.688 200.32 258.992 200.704C259.304 201.088 259.748 201.28 260.324 201.28ZM264.813 200.704C265.013 200.704 265.173 200.784 265.293 200.944C265.421 201.096 265.485 201.328 265.485 201.64C265.485 202.272 265.281 202.804 264.873 203.236C264.793 203.324 264.701 203.368 264.597 203.368C264.517 203.368 264.445 203.336 264.381 203.272C264.317 203.216 264.285 203.148 264.285 203.068C264.285 202.98 264.317 202.904 264.381 202.84C264.589 202.624 264.721 202.356 264.777 202.036C264.601 202.02 264.453 201.956 264.333 201.844C264.221 201.724 264.165 201.572 264.165 201.388C264.165 201.188 264.225 201.024 264.345 200.896C264.473 200.768 264.629 200.704 264.813 200.704ZM272.581 196.012C274.045 196.012 274.777 196.78 274.777 198.316V201.58C274.777 201.724 274.733 201.84 274.645 201.928C274.565 202.016 274.453 202.06 274.309 202.06C274.165 202.06 274.049 202.016 273.961 201.928C273.873 201.84 273.829 201.724 273.829 201.58V201.004C273.677 201.348 273.445 201.616 273.133 201.808C272.821 201.992 272.461 202.084 272.053 202.084C271.677 202.084 271.329 202.008 271.009 201.856C270.697 201.704 270.449 201.492 270.265 201.22C270.081 200.948 269.989 200.648 269.989 200.32C269.989 199.88 270.101 199.54 270.325 199.3C270.549 199.052 270.917 198.876 271.429 198.772C271.941 198.66 272.653 198.604 273.565 198.604H273.829V198.208C273.829 197.728 273.729 197.376 273.529 197.152C273.337 196.928 273.021 196.816 272.581 196.816C272.037 196.816 271.485 196.964 270.925 197.26C270.709 197.396 270.557 197.464 270.469 197.464C270.373 197.464 270.293 197.428 270.229 197.356C270.165 197.284 270.133 197.192 270.133 197.08C270.133 196.968 270.165 196.872 270.229 196.792C270.301 196.704 270.413 196.616 270.565 196.528C270.845 196.368 271.161 196.244 271.513 196.156C271.873 196.06 272.229 196.012 272.581 196.012ZM272.185 201.316C272.665 201.316 273.057 201.156 273.361 200.836C273.673 200.508 273.829 200.088 273.829 199.576V199.228H273.613C272.909 199.228 272.373 199.26 272.005 199.324C271.637 199.38 271.373 199.48 271.213 199.624C271.061 199.76 270.985 199.964 270.985 200.236C270.985 200.548 271.097 200.808 271.321 201.016C271.553 201.216 271.841 201.316 272.185 201.316ZM279.448 196.036C279.784 196.012 279.952 196.148 279.952 196.444C279.952 196.572 279.916 196.676 279.844 196.756C279.772 196.828 279.648 196.872 279.472 196.888L279.112 196.924C278.576 196.972 278.176 197.164 277.912 197.5C277.656 197.828 277.528 198.216 277.528 198.664V201.58C277.528 201.74 277.484 201.86 277.396 201.94C277.308 202.02 277.192 202.06 277.048 202.06C276.904 202.06 276.784 202.02 276.688 201.94C276.6 201.852 276.556 201.732 276.556 201.58V196.516C276.556 196.364 276.604 196.248 276.7 196.168C276.796 196.08 276.912 196.036 277.048 196.036C277.176 196.036 277.284 196.08 277.372 196.168C277.46 196.248 277.504 196.36 277.504 196.504V197.176C277.672 196.824 277.908 196.556 278.212 196.372C278.524 196.188 278.88 196.08 279.28 196.048L279.448 196.036ZM285.194 200.644C285.282 200.644 285.358 200.68 285.422 200.752C285.486 200.824 285.518 200.916 285.518 201.028C285.518 201.228 285.378 201.412 285.098 201.58C284.81 201.748 284.506 201.876 284.186 201.964C283.866 202.044 283.554 202.084 283.25 202.084C282.346 202.084 281.63 201.816 281.102 201.28C280.582 200.744 280.322 200.004 280.322 199.06C280.322 198.46 280.438 197.932 280.67 197.476C280.902 197.012 281.226 196.652 281.642 196.396C282.066 196.14 282.546 196.012 283.082 196.012C283.842 196.012 284.446 196.26 284.894 196.756C285.342 197.252 285.566 197.924 285.566 198.772C285.566 198.932 285.534 199.048 285.47 199.12C285.406 199.192 285.302 199.228 285.158 199.228H281.294C281.366 200.604 282.018 201.292 283.25 201.292C283.562 201.292 283.83 201.252 284.054 201.172C284.278 201.084 284.518 200.968 284.774 200.824C284.982 200.704 285.122 200.644 285.194 200.644ZM283.094 196.768C282.582 196.768 282.17 196.928 281.858 197.248C281.554 197.568 281.374 198.02 281.318 198.604H284.714C284.698 198.012 284.55 197.56 284.27 197.248C283.99 196.928 283.598 196.768 283.094 196.768ZM294.303 196.336C294.391 196.144 294.531 196.048 294.723 196.048C294.843 196.048 294.951 196.088 295.047 196.168C295.143 196.248 295.191 196.348 295.191 196.468C295.191 196.54 295.175 196.604 295.143 196.66L291.771 203.932C291.731 204.02 291.671 204.088 291.591 204.136C291.519 204.184 291.443 204.208 291.363 204.208C291.243 204.208 291.135 204.168 291.039 204.088C290.951 204.016 290.907 203.92 290.907 203.8C290.907 203.736 290.923 203.672 290.955 203.608L291.795 201.796L289.419 196.66C289.387 196.604 289.371 196.544 289.371 196.48C289.371 196.36 289.423 196.256 289.527 196.168C289.639 196.08 289.759 196.036 289.887 196.036C289.967 196.036 290.043 196.06 290.115 196.108C290.195 196.156 290.255 196.224 290.295 196.312L292.299 200.812L294.303 196.336ZM298.609 202.084C298.057 202.084 297.569 201.96 297.145 201.712C296.729 201.464 296.405 201.112 296.173 200.656C295.949 200.192 295.837 199.656 295.837 199.048C295.837 198.44 295.949 197.908 296.173 197.452C296.405 196.988 296.729 196.632 297.145 196.384C297.569 196.136 298.057 196.012 298.609 196.012C299.161 196.012 299.649 196.136 300.073 196.384C300.497 196.632 300.821 196.988 301.045 197.452C301.277 197.908 301.393 198.44 301.393 199.048C301.393 199.656 301.277 200.192 301.045 200.656C300.821 201.112 300.497 201.464 300.073 201.712C299.649 201.96 299.161 202.084 298.609 202.084ZM298.609 201.28C299.185 201.28 299.625 201.092 299.929 200.716C300.241 200.332 300.397 199.776 300.397 199.048C300.397 198.336 300.241 197.788 299.929 197.404C299.617 197.012 299.177 196.816 298.609 196.816C298.041 196.816 297.601 197.012 297.289 197.404C296.977 197.788 296.821 198.336 296.821 199.048C296.821 199.768 296.973 200.32 297.277 200.704C297.589 201.088 298.033 201.28 298.609 201.28ZM307.281 196.036C307.433 196.036 307.549 196.08 307.629 196.168C307.717 196.256 307.761 196.372 307.761 196.516V201.592C307.761 201.728 307.717 201.84 307.629 201.928C307.549 202.016 307.433 202.06 307.281 202.06C307.137 202.06 307.021 202.02 306.933 201.94C306.853 201.852 306.813 201.74 306.813 201.604V201.004C306.629 201.356 306.369 201.624 306.033 201.808C305.705 201.992 305.333 202.084 304.917 202.084C304.221 202.084 303.697 201.892 303.345 201.508C302.993 201.116 302.817 200.54 302.817 199.78V196.516C302.817 196.372 302.861 196.256 302.949 196.168C303.037 196.08 303.157 196.036 303.309 196.036C303.461 196.036 303.577 196.08 303.657 196.168C303.745 196.256 303.789 196.372 303.789 196.516V199.756C303.789 200.276 303.893 200.66 304.101 200.908C304.309 201.148 304.637 201.268 305.085 201.268C305.597 201.268 306.009 201.104 306.321 200.776C306.633 200.44 306.789 200 306.789 199.456V196.516C306.789 196.372 306.833 196.256 306.921 196.168C307.009 196.08 307.129 196.036 307.281 196.036ZM315.05 196.012C316.514 196.012 317.246 196.78 317.246 198.316V201.58C317.246 201.724 317.202 201.84 317.114 201.928C317.034 202.016 316.922 202.06 316.778 202.06C316.634 202.06 316.518 202.016 316.43 201.928C316.342 201.84 316.298 201.724 316.298 201.58V201.004C316.146 201.348 315.914 201.616 315.602 201.808C315.29 201.992 314.93 202.084 314.522 202.084C314.146 202.084 313.798 202.008 313.478 201.856C313.166 201.704 312.918 201.492 312.734 201.22C312.55 200.948 312.458 200.648 312.458 200.32C312.458 199.88 312.57 199.54 312.794 199.3C313.018 199.052 313.386 198.876 313.898 198.772C314.41 198.66 315.122 198.604 316.034 198.604H316.298V198.208C316.298 197.728 316.198 197.376 315.998 197.152C315.806 196.928 315.49 196.816 315.05 196.816C314.506 196.816 313.954 196.964 313.394 197.26C313.178 197.396 313.026 197.464 312.938 197.464C312.842 197.464 312.762 197.428 312.698 197.356C312.634 197.284 312.602 197.192 312.602 197.08C312.602 196.968 312.634 196.872 312.698 196.792C312.77 196.704 312.882 196.616 313.034 196.528C313.314 196.368 313.63 196.244 313.982 196.156C314.342 196.06 314.698 196.012 315.05 196.012ZM314.654 201.316C315.134 201.316 315.526 201.156 315.83 200.836C316.142 200.508 316.298 200.088 316.298 199.576V199.228H316.082C315.378 199.228 314.842 199.26 314.474 199.324C314.106 199.38 313.842 199.48 313.682 199.624C313.53 199.76 313.454 199.964 313.454 200.236C313.454 200.548 313.566 200.808 313.79 201.016C314.022 201.216 314.31 201.316 314.654 201.316ZM323.237 196.336C323.325 196.144 323.465 196.048 323.657 196.048C323.777 196.048 323.885 196.088 323.981 196.168C324.077 196.248 324.125 196.348 324.125 196.468C324.125 196.54 324.109 196.604 324.077 196.66L321.737 201.7C321.689 201.804 321.617 201.888 321.521 201.952C321.425 202.008 321.321 202.036 321.209 202.036C321.105 202.036 321.005 202.008 320.909 201.952C320.813 201.888 320.737 201.804 320.681 201.7L318.353 196.66C318.321 196.604 318.305 196.544 318.305 196.48C318.305 196.36 318.357 196.256 318.461 196.168C318.573 196.08 318.693 196.036 318.821 196.036C318.901 196.036 318.977 196.06 319.049 196.108C319.129 196.156 319.189 196.224 319.229 196.312L321.233 200.812L323.237 196.336ZM327.472 196.012C328.936 196.012 329.668 196.78 329.668 198.316V201.58C329.668 201.724 329.624 201.84 329.536 201.928C329.456 202.016 329.344 202.06 329.2 202.06C329.056 202.06 328.94 202.016 328.852 201.928C328.764 201.84 328.72 201.724 328.72 201.58V201.004C328.568 201.348 328.336 201.616 328.024 201.808C327.712 201.992 327.352 202.084 326.944 202.084C326.568 202.084 326.22 202.008 325.9 201.856C325.588 201.704 325.34 201.492 325.156 201.22C324.972 200.948 324.88 200.648 324.88 200.32C324.88 199.88 324.992 199.54 325.216 199.3C325.44 199.052 325.808 198.876 326.32 198.772C326.832 198.66 327.544 198.604 328.456 198.604H328.72V198.208C328.72 197.728 328.62 197.376 328.42 197.152C328.228 196.928 327.912 196.816 327.472 196.816C326.928 196.816 326.376 196.964 325.816 197.26C325.6 197.396 325.448 197.464 325.36 197.464C325.264 197.464 325.184 197.428 325.12 197.356C325.056 197.284 325.024 197.192 325.024 197.08C325.024 196.968 325.056 196.872 325.12 196.792C325.192 196.704 325.304 196.616 325.456 196.528C325.736 196.368 326.052 196.244 326.404 196.156C326.764 196.06 327.12 196.012 327.472 196.012ZM327.076 201.316C327.556 201.316 327.948 201.156 328.252 200.836C328.564 200.508 328.72 200.088 328.72 199.576V199.228H328.504C327.8 199.228 327.264 199.26 326.896 199.324C326.528 199.38 326.264 199.48 326.104 199.624C325.952 199.76 325.876 199.964 325.876 200.236C325.876 200.548 325.988 200.808 326.212 201.016C326.444 201.216 326.732 201.316 327.076 201.316ZM331.939 202.06C331.795 202.06 331.675 202.02 331.579 201.94C331.491 201.852 331.447 201.732 331.447 201.58V196.516C331.447 196.364 331.491 196.248 331.579 196.168C331.675 196.08 331.795 196.036 331.939 196.036C332.083 196.036 332.199 196.08 332.287 196.168C332.375 196.248 332.419 196.364 332.419 196.516V201.58C332.419 201.74 332.375 201.86 332.287 201.94C332.199 202.02 332.083 202.06 331.939 202.06ZM331.939 194.776C331.747 194.776 331.591 194.72 331.471 194.608C331.351 194.496 331.291 194.348 331.291 194.164C331.291 193.988 331.351 193.844 331.471 193.732C331.591 193.62 331.747 193.564 331.939 193.564C332.131 193.564 332.287 193.62 332.407 193.732C332.527 193.844 332.587 193.988 332.587 194.164C332.587 194.348 332.527 194.496 332.407 194.608C332.287 194.72 332.131 194.776 331.939 194.776ZM334.728 202.06C334.584 202.06 334.464 202.02 334.368 201.94C334.28 201.852 334.236 201.732 334.236 201.58V193.96C334.236 193.808 334.28 193.692 334.368 193.612C334.464 193.524 334.584 193.48 334.728 193.48C334.864 193.48 334.976 193.524 335.064 193.612C335.16 193.692 335.208 193.808 335.208 193.96V201.58C335.208 201.732 335.16 201.852 335.064 201.94C334.976 202.02 334.864 202.06 334.728 202.06ZM339.413 196.012C340.877 196.012 341.609 196.78 341.609 198.316V201.58C341.609 201.724 341.565 201.84 341.477 201.928C341.397 202.016 341.285 202.06 341.141 202.06C340.997 202.06 340.881 202.016 340.793 201.928C340.705 201.84 340.661 201.724 340.661 201.58V201.004C340.509 201.348 340.277 201.616 339.965 201.808C339.653 201.992 339.293 202.084 338.885 202.084C338.509 202.084 338.161 202.008 337.841 201.856C337.529 201.704 337.281 201.492 337.097 201.22C336.913 200.948 336.821 200.648 336.821 200.32C336.821 199.88 336.933 199.54 337.157 199.3C337.381 199.052 337.749 198.876 338.261 198.772C338.773 198.66 339.485 198.604 340.397 198.604H340.661V198.208C340.661 197.728 340.561 197.376 340.361 197.152C340.169 196.928 339.853 196.816 339.413 196.816C338.869 196.816 338.317 196.964 337.757 197.26C337.541 197.396 337.389 197.464 337.301 197.464C337.205 197.464 337.125 197.428 337.061 197.356C336.997 197.284 336.965 197.192 336.965 197.08C336.965 196.968 336.997 196.872 337.061 196.792C337.133 196.704 337.245 196.616 337.397 196.528C337.677 196.368 337.993 196.244 338.345 196.156C338.705 196.06 339.061 196.012 339.413 196.012ZM339.017 201.316C339.497 201.316 339.889 201.156 340.193 200.836C340.505 200.508 340.661 200.088 340.661 199.576V199.228H340.445C339.741 199.228 339.205 199.26 338.837 199.324C338.469 199.38 338.205 199.48 338.045 199.624C337.893 199.76 337.817 199.964 337.817 200.236C337.817 200.548 337.929 200.808 338.153 201.016C338.385 201.216 338.673 201.316 339.017 201.316ZM346.328 196.012C346.84 196.012 347.292 196.136 347.684 196.384C348.076 196.632 348.38 196.984 348.596 197.44C348.812 197.896 348.92 198.424 348.92 199.024C348.92 199.632 348.812 200.168 348.596 200.632C348.38 201.088 348.076 201.444 347.684 201.7C347.292 201.956 346.84 202.084 346.328 202.084C345.872 202.084 345.472 201.984 345.128 201.784C344.792 201.584 344.536 201.3 344.36 200.932V201.58C344.36 201.724 344.316 201.84 344.228 201.928C344.148 202.016 344.032 202.06 343.88 202.06C343.728 202.06 343.608 202.016 343.52 201.928C343.432 201.84 343.388 201.724 343.388 201.58V193.948C343.388 193.812 343.432 193.7 343.52 193.612C343.608 193.524 343.728 193.48 343.88 193.48C344.032 193.48 344.148 193.524 344.228 193.612C344.316 193.692 344.36 193.804 344.36 193.948V197.164C344.536 196.796 344.792 196.512 345.128 196.312C345.472 196.112 345.872 196.012 346.328 196.012ZM346.136 201.28C346.704 201.28 347.144 201.084 347.456 200.692C347.768 200.292 347.924 199.736 347.924 199.024C347.924 198.328 347.768 197.788 347.456 197.404C347.144 197.02 346.704 196.828 346.136 196.828C345.568 196.828 345.128 197.02 344.816 197.404C344.512 197.788 344.36 198.336 344.36 199.048C344.36 199.76 344.512 200.312 344.816 200.704C345.128 201.088 345.568 201.28 346.136 201.28ZM350.865 202.06C350.721 202.06 350.601 202.02 350.505 201.94C350.417 201.852 350.373 201.732 350.373 201.58V193.96C350.373 193.808 350.417 193.692 350.505 193.612C350.601 193.524 350.721 193.48 350.865 193.48C351.001 193.48 351.113 193.524 351.201 193.612C351.297 193.692 351.345 193.808 351.345 193.96V201.58C351.345 201.732 351.297 201.852 351.201 201.94C351.113 202.02 351.001 202.06 350.865 202.06ZM357.686 200.644C357.774 200.644 357.85 200.68 357.914 200.752C357.978 200.824 358.01 200.916 358.01 201.028C358.01 201.228 357.87 201.412 357.59 201.58C357.302 201.748 356.998 201.876 356.678 201.964C356.358 202.044 356.046 202.084 355.742 202.084C354.838 202.084 354.122 201.816 353.594 201.28C353.074 200.744 352.814 200.004 352.814 199.06C352.814 198.46 352.93 197.932 353.162 197.476C353.394 197.012 353.718 196.652 354.134 196.396C354.558 196.14 355.038 196.012 355.574 196.012C356.334 196.012 356.938 196.26 357.386 196.756C357.834 197.252 358.058 197.924 358.058 198.772C358.058 198.932 358.026 199.048 357.962 199.12C357.898 199.192 357.794 199.228 357.65 199.228H353.786C353.858 200.604 354.51 201.292 355.742 201.292C356.054 201.292 356.322 201.252 356.546 201.172C356.77 201.084 357.01 200.968 357.266 200.824C357.474 200.704 357.614 200.644 357.686 200.644ZM355.586 196.768C355.074 196.768 354.662 196.928 354.35 197.248C354.046 197.568 353.866 198.02 353.81 198.604H357.206C357.19 198.012 357.042 197.56 356.762 197.248C356.482 196.928 356.09 196.768 355.586 196.768ZM365.164 194.308C364.74 194.34 364.42 194.476 364.204 194.716C363.988 194.948 363.88 195.3 363.88 195.772V196.156H365.212C365.348 196.156 365.452 196.192 365.524 196.264C365.596 196.336 365.632 196.432 365.632 196.552C365.632 196.672 365.596 196.764 365.524 196.828C365.452 196.892 365.348 196.924 365.212 196.924H363.88V201.58C363.88 201.732 363.832 201.852 363.736 201.94C363.648 202.02 363.536 202.06 363.4 202.06C363.256 202.06 363.136 202.02 363.04 201.94C362.952 201.852 362.908 201.732 362.908 201.58V196.924H362.104C361.968 196.924 361.86 196.892 361.78 196.828C361.708 196.756 361.672 196.664 361.672 196.552C361.672 196.432 361.708 196.336 361.78 196.264C361.86 196.192 361.968 196.156 362.104 196.156H362.908V195.94C362.908 195.22 363.088 194.656 363.448 194.248C363.808 193.832 364.324 193.6 364.996 193.552L365.308 193.528C365.516 193.512 365.664 193.532 365.752 193.588C365.848 193.644 365.896 193.744 365.896 193.888C365.896 194.12 365.756 194.252 365.476 194.284L365.164 194.308ZM368.887 202.084C368.335 202.084 367.847 201.96 367.423 201.712C367.007 201.464 366.683 201.112 366.451 200.656C366.227 200.192 366.115 199.656 366.115 199.048C366.115 198.44 366.227 197.908 366.451 197.452C366.683 196.988 367.007 196.632 367.423 196.384C367.847 196.136 368.335 196.012 368.887 196.012C369.439 196.012 369.927 196.136 370.351 196.384C370.775 196.632 371.099 196.988 371.323 197.452C371.555 197.908 371.671 198.44 371.671 199.048C371.671 199.656 371.555 200.192 371.323 200.656C371.099 201.112 370.775 201.464 370.351 201.712C369.927 201.96 369.439 202.084 368.887 202.084ZM368.887 201.28C369.463 201.28 369.903 201.092 370.207 200.716C370.519 200.332 370.675 199.776 370.675 199.048C370.675 198.336 370.519 197.788 370.207 197.404C369.895 197.012 369.455 196.816 368.887 196.816C368.319 196.816 367.879 197.012 367.567 197.404C367.255 197.788 367.099 198.336 367.099 199.048C367.099 199.768 367.251 200.32 367.555 200.704C367.867 201.088 368.311 201.28 368.887 201.28ZM376.011 196.036C376.347 196.012 376.515 196.148 376.515 196.444C376.515 196.572 376.479 196.676 376.407 196.756C376.335 196.828 376.211 196.872 376.035 196.888L375.675 196.924C375.139 196.972 374.739 197.164 374.475 197.5C374.219 197.828 374.091 198.216 374.091 198.664V201.58C374.091 201.74 374.047 201.86 373.959 201.94C373.871 202.02 373.755 202.06 373.611 202.06C373.467 202.06 373.347 202.02 373.251 201.94C373.163 201.852 373.119 201.732 373.119 201.58V196.516C373.119 196.364 373.167 196.248 373.263 196.168C373.359 196.08 373.475 196.036 373.611 196.036C373.739 196.036 373.847 196.08 373.935 196.168C374.023 196.248 374.067 196.36 374.067 196.504V197.176C374.235 196.824 374.471 196.556 374.775 196.372C375.087 196.188 375.443 196.08 375.843 196.048L376.011 196.036ZM382.831 196.012C384.295 196.012 385.027 196.78 385.027 198.316V201.58C385.027 201.724 384.983 201.84 384.895 201.928C384.815 202.016 384.703 202.06 384.559 202.06C384.415 202.06 384.299 202.016 384.211 201.928C384.123 201.84 384.079 201.724 384.079 201.58V201.004C383.927 201.348 383.695 201.616 383.383 201.808C383.071 201.992 382.711 202.084 382.303 202.084C381.927 202.084 381.579 202.008 381.259 201.856C380.947 201.704 380.699 201.492 380.515 201.22C380.331 200.948 380.239 200.648 380.239 200.32C380.239 199.88 380.351 199.54 380.575 199.3C380.799 199.052 381.167 198.876 381.679 198.772C382.191 198.66 382.903 198.604 383.815 198.604H384.079V198.208C384.079 197.728 383.979 197.376 383.779 197.152C383.587 196.928 383.271 196.816 382.831 196.816C382.287 196.816 381.735 196.964 381.175 197.26C380.959 197.396 380.807 197.464 380.719 197.464C380.623 197.464 380.543 197.428 380.479 197.356C380.415 197.284 380.383 197.192 380.383 197.08C380.383 196.968 380.415 196.872 380.479 196.792C380.551 196.704 380.663 196.616 380.815 196.528C381.095 196.368 381.411 196.244 381.763 196.156C382.123 196.06 382.479 196.012 382.831 196.012ZM382.435 201.316C382.915 201.316 383.307 201.156 383.611 200.836C383.923 200.508 384.079 200.088 384.079 199.576V199.228H383.863C383.159 199.228 382.623 199.26 382.255 199.324C381.887 199.38 381.623 199.48 381.463 199.624C381.311 199.76 381.235 199.964 381.235 200.236C381.235 200.548 381.347 200.808 381.571 201.016C381.803 201.216 382.091 201.316 382.435 201.316ZM392.84 196.012C393.352 196.012 393.804 196.14 394.196 196.396C394.588 196.652 394.892 197.012 395.108 197.476C395.324 197.932 395.432 198.464 395.432 199.072C395.432 199.68 395.324 200.212 395.108 200.668C394.892 201.116 394.588 201.464 394.196 201.712C393.812 201.96 393.36 202.084 392.84 202.084C392.384 202.084 391.984 201.984 391.64 201.784C391.304 201.584 391.048 201.3 390.872 200.932V203.752C390.872 203.896 390.828 204.008 390.74 204.088C390.66 204.176 390.544 204.22 390.392 204.22C390.24 204.22 390.12 204.176 390.032 204.088C389.944 204 389.9 203.888 389.9 203.752V196.516C389.9 196.372 389.944 196.256 390.032 196.168C390.12 196.08 390.24 196.036 390.392 196.036C390.544 196.036 390.66 196.08 390.74 196.168C390.828 196.256 390.872 196.372 390.872 196.516V197.164C391.048 196.796 391.304 196.512 391.64 196.312C391.984 196.112 392.384 196.012 392.84 196.012ZM392.648 201.28C393.216 201.28 393.656 201.088 393.968 200.704C394.28 200.32 394.436 199.776 394.436 199.072C394.436 198.368 394.28 197.82 393.968 197.428C393.656 197.028 393.216 196.828 392.648 196.828C392.08 196.828 391.64 197.02 391.328 197.404C391.024 197.788 390.872 198.336 390.872 199.048C390.872 199.76 391.024 200.312 391.328 200.704C391.64 201.088 392.08 201.28 392.648 201.28ZM399.776 196.036C400.112 196.012 400.28 196.148 400.28 196.444C400.28 196.572 400.244 196.676 400.172 196.756C400.1 196.828 399.976 196.872 399.8 196.888L399.44 196.924C398.904 196.972 398.504 197.164 398.24 197.5C397.984 197.828 397.856 198.216 397.856 198.664V201.58C397.856 201.74 397.812 201.86 397.724 201.94C397.636 202.02 397.52 202.06 397.376 202.06C397.232 202.06 397.112 202.02 397.016 201.94C396.928 201.852 396.884 201.732 396.884 201.58V196.516C396.884 196.364 396.932 196.248 397.028 196.168C397.124 196.08 397.24 196.036 397.376 196.036C397.504 196.036 397.612 196.08 397.7 196.168C397.788 196.248 397.832 196.36 397.832 196.504V197.176C398 196.824 398.236 196.556 398.54 196.372C398.852 196.188 399.208 196.08 399.608 196.048L399.776 196.036ZM403.422 202.084C402.87 202.084 402.382 201.96 401.958 201.712C401.542 201.464 401.218 201.112 400.986 200.656C400.762 200.192 400.65 199.656 400.65 199.048C400.65 198.44 400.762 197.908 400.986 197.452C401.218 196.988 401.542 196.632 401.958 196.384C402.382 196.136 402.87 196.012 403.422 196.012C403.974 196.012 404.462 196.136 404.886 196.384C405.31 196.632 405.634 196.988 405.858 197.452C406.09 197.908 406.206 198.44 406.206 199.048C406.206 199.656 406.09 200.192 405.858 200.656C405.634 201.112 405.31 201.464 404.886 201.712C404.462 201.96 403.974 202.084 403.422 202.084ZM403.422 201.28C403.998 201.28 404.438 201.092 404.742 200.716C405.054 200.332 405.21 199.776 405.21 199.048C405.21 198.336 405.054 197.788 404.742 197.404C404.43 197.012 403.99 196.816 403.422 196.816C402.854 196.816 402.414 197.012 402.102 197.404C401.79 197.788 401.634 198.336 401.634 199.048C401.634 199.768 401.786 200.32 402.09 200.704C402.402 201.088 402.846 201.28 403.422 201.28ZM407.935 202.06C407.743 202.06 407.583 202 407.455 201.88C407.327 201.752 407.263 201.588 407.263 201.388C407.263 201.188 407.327 201.024 407.455 200.896C407.583 200.768 407.743 200.704 407.935 200.704C408.119 200.704 408.271 200.768 408.391 200.896C408.519 201.024 408.583 201.188 408.583 201.388C408.583 201.588 408.519 201.752 408.391 201.88C408.271 202 408.119 202.06 407.935 202.06ZM410.683 202.06C410.491 202.06 410.331 202 410.203 201.88C410.075 201.752 410.011 201.588 410.011 201.388C410.011 201.188 410.075 201.024 410.203 200.896C410.331 200.768 410.491 200.704 410.683 200.704C410.867 200.704 411.019 200.768 411.139 200.896C411.267 201.024 411.331 201.188 411.331 201.388C411.331 201.588 411.267 201.752 411.139 201.88C411.019 202 410.867 202.06 410.683 202.06ZM413.431 202.06C413.239 202.06 413.079 202 412.951 201.88C412.823 201.752 412.759 201.588 412.759 201.388C412.759 201.188 412.823 201.024 412.951 200.896C413.079 200.768 413.239 200.704 413.431 200.704C413.615 200.704 413.767 200.768 413.887 200.896C414.015 201.024 414.079 201.188 414.079 201.388C414.079 201.588 414.015 201.752 413.887 201.88C413.767 202 413.615 202.06 413.431 202.06Z" fill="#234CAD"/>
<path d="M237.008 180.096C236.187 180.128 235.776 179.845 235.776 179.248C235.776 178.992 235.845 178.8 235.984 178.672C236.112 178.533 236.32 178.453 236.608 178.432L237.12 178.4C237.557 178.379 237.888 178.24 238.112 177.984C238.336 177.728 238.448 177.339 238.448 176.816V169.664C238.448 169.355 238.539 169.109 238.72 168.928C238.912 168.736 239.163 168.64 239.472 168.64C239.792 168.64 240.043 168.736 240.224 168.928C240.416 169.109 240.512 169.355 240.512 169.664V176.816C240.512 178.832 239.515 179.915 237.52 180.064L237.008 180.096ZM246.342 180.128C245.542 180.128 244.838 179.963 244.23 179.632C243.633 179.301 243.169 178.827 242.838 178.208C242.508 177.589 242.342 176.869 242.342 176.048C242.342 175.227 242.508 174.512 242.838 173.904C243.169 173.285 243.633 172.811 244.23 172.48C244.838 172.149 245.542 171.984 246.342 171.984C247.142 171.984 247.841 172.149 248.438 172.48C249.046 172.811 249.51 173.285 249.83 173.904C250.161 174.512 250.326 175.227 250.326 176.048C250.326 176.869 250.161 177.589 249.83 178.208C249.51 178.827 249.046 179.301 248.438 179.632C247.841 179.963 247.142 180.128 246.342 180.128ZM246.326 178.576C246.977 178.576 247.473 178.363 247.814 177.936C248.156 177.509 248.326 176.88 248.326 176.048C248.326 175.227 248.156 174.603 247.814 174.176C247.473 173.739 246.982 173.52 246.342 173.52C245.702 173.52 245.206 173.739 244.854 174.176C244.513 174.603 244.342 175.227 244.342 176.048C244.342 176.88 244.513 177.509 244.854 177.936C245.196 178.363 245.686 178.576 246.326 178.576ZM256.554 171.984C258.388 171.984 259.306 173.056 259.306 175.2V179.136C259.306 179.435 259.215 179.669 259.034 179.84C258.863 180.011 258.623 180.096 258.314 180.096C258.004 180.096 257.759 180.011 257.578 179.84C257.396 179.669 257.306 179.435 257.306 179.136V175.2C257.306 174.635 257.188 174.224 256.954 173.968C256.73 173.701 256.372 173.568 255.882 173.568C255.306 173.568 254.842 173.749 254.49 174.112C254.148 174.475 253.978 174.96 253.978 175.568V179.136C253.978 179.435 253.887 179.669 253.706 179.84C253.524 180.011 253.279 180.096 252.97 180.096C252.66 180.096 252.415 180.011 252.234 179.84C252.063 179.669 251.978 179.435 251.978 179.136V169.568C251.978 169.291 252.068 169.067 252.25 168.896C252.442 168.725 252.687 168.64 252.986 168.64C253.284 168.64 253.524 168.72 253.706 168.88C253.887 169.04 253.978 169.259 253.978 169.536V173.264C254.244 172.848 254.596 172.533 255.034 172.32C255.482 172.096 255.988 171.984 256.554 171.984ZM265.881 171.984C266.82 171.984 267.518 172.251 267.977 172.784C268.436 173.317 268.665 174.123 268.665 175.2V179.136C268.665 179.435 268.574 179.669 268.393 179.84C268.222 180.011 267.982 180.096 267.673 180.096C267.364 180.096 267.118 180.011 266.937 179.84C266.756 179.669 266.665 179.435 266.665 179.136V175.312C266.665 174.704 266.548 174.261 266.313 173.984C266.089 173.707 265.732 173.568 265.241 173.568C264.665 173.568 264.201 173.749 263.849 174.112C263.508 174.475 263.337 174.96 263.337 175.568V179.136C263.337 179.435 263.246 179.669 263.065 179.84C262.884 180.011 262.638 180.096 262.329 180.096C262.02 180.096 261.774 180.011 261.593 179.84C261.422 179.669 261.337 179.435 261.337 179.136V172.944C261.337 172.667 261.428 172.443 261.609 172.272C261.79 172.101 262.036 172.016 262.345 172.016C262.622 172.016 262.846 172.101 263.017 172.272C263.198 172.432 263.289 172.645 263.289 172.912V173.344C263.556 172.907 263.913 172.571 264.361 172.336C264.809 172.101 265.316 171.984 265.881 171.984ZM279.12 180.144C278.299 180.144 277.52 180.037 276.784 179.824C276.059 179.6 275.467 179.301 275.008 178.928C274.763 178.747 274.64 178.491 274.64 178.16C274.64 177.936 274.704 177.744 274.832 177.584C274.971 177.413 275.131 177.328 275.312 177.328C275.504 177.328 275.723 177.403 275.968 177.552C276.427 177.883 276.907 178.123 277.408 178.272C277.909 178.421 278.464 178.496 279.072 178.496C279.851 178.496 280.448 178.363 280.864 178.096C281.28 177.819 281.488 177.419 281.488 176.896C281.488 176.491 281.291 176.181 280.896 175.968C280.512 175.744 279.867 175.531 278.96 175.328C278.021 175.125 277.259 174.891 276.672 174.624C276.085 174.357 275.643 174.016 275.344 173.6C275.045 173.184 274.896 172.656 274.896 172.016C274.896 171.355 275.083 170.763 275.456 170.24C275.829 169.717 276.347 169.312 277.008 169.024C277.68 168.725 278.432 168.576 279.264 168.576C280.789 168.576 282.032 168.981 282.992 169.792C283.131 169.909 283.227 170.027 283.28 170.144C283.344 170.251 283.376 170.389 283.376 170.56C283.376 170.784 283.307 170.981 283.168 171.152C283.04 171.312 282.885 171.392 282.704 171.392C282.597 171.392 282.496 171.376 282.4 171.344C282.315 171.312 282.197 171.253 282.048 171.168C281.611 170.848 281.184 170.613 280.768 170.464C280.363 170.304 279.861 170.224 279.264 170.224C278.539 170.224 277.963 170.373 277.536 170.672C277.12 170.96 276.912 171.365 276.912 171.888C276.912 172.325 277.099 172.661 277.472 172.896C277.845 173.131 278.48 173.349 279.376 173.552C280.325 173.765 281.093 174.005 281.68 174.272C282.277 174.528 282.731 174.859 283.04 175.264C283.36 175.669 283.52 176.176 283.52 176.784C283.52 177.445 283.333 178.032 282.96 178.544C282.597 179.045 282.08 179.44 281.408 179.728C280.747 180.005 279.984 180.144 279.12 180.144ZM294.539 171.984C295.392 171.984 296.043 172.24 296.491 172.752C296.95 173.253 297.179 174.069 297.179 175.2V179.136C297.179 179.445 297.083 179.685 296.891 179.856C296.71 180.016 296.47 180.096 296.171 180.096C295.883 180.096 295.643 180.016 295.451 179.856C295.27 179.685 295.179 179.445 295.179 179.136V175.2C295.179 174.613 295.072 174.197 294.859 173.952C294.656 173.696 294.342 173.568 293.915 173.568C293.392 173.568 292.976 173.749 292.667 174.112C292.358 174.464 292.203 174.949 292.203 175.568V179.136C292.203 179.445 292.107 179.685 291.915 179.856C291.734 180.016 291.499 180.096 291.211 180.096C290.923 180.096 290.683 180.016 290.491 179.856C290.299 179.685 290.203 179.445 290.203 179.136V175.2C290.203 174.613 290.096 174.197 289.883 173.952C289.68 173.696 289.366 173.568 288.939 173.568C288.416 173.568 288 173.749 287.691 174.112C287.392 174.464 287.243 174.949 287.243 175.568V179.136C287.243 179.445 287.147 179.685 286.955 179.856C286.763 180.016 286.523 180.096 286.235 180.096C285.947 180.096 285.707 180.016 285.515 179.856C285.334 179.685 285.243 179.445 285.243 179.136V172.944C285.243 172.645 285.339 172.416 285.531 172.256C285.723 172.096 285.963 172.016 286.251 172.016C286.528 172.016 286.752 172.096 286.923 172.256C287.104 172.405 287.195 172.624 287.195 172.912V173.296C287.44 172.869 287.766 172.544 288.171 172.32C288.587 172.096 289.062 171.984 289.595 171.984C290.768 171.984 291.552 172.475 291.947 173.456C292.182 173.008 292.528 172.651 292.987 172.384C293.446 172.117 293.963 171.984 294.539 171.984ZM300.204 180.096C299.916 180.096 299.676 180.016 299.484 179.856C299.303 179.685 299.212 179.445 299.212 179.136V172.96C299.212 172.651 299.303 172.416 299.484 172.256C299.676 172.096 299.916 172.016 300.204 172.016C300.492 172.016 300.732 172.096 300.924 172.256C301.116 172.416 301.212 172.651 301.212 172.96V179.136C301.212 179.445 301.116 179.685 300.924 179.856C300.732 180.016 300.492 180.096 300.204 180.096ZM300.204 170.592C299.841 170.592 299.553 170.496 299.34 170.304C299.127 170.101 299.02 169.84 299.02 169.52C299.02 169.2 299.127 168.944 299.34 168.752C299.553 168.56 299.841 168.464 300.204 168.464C300.556 168.464 300.839 168.56 301.052 168.752C301.276 168.944 301.388 169.2 301.388 169.52C301.388 169.84 301.281 170.101 301.068 170.304C300.855 170.496 300.567 170.592 300.204 170.592ZM307.682 178.608C308.215 178.64 308.482 178.88 308.482 179.328C308.482 179.584 308.375 179.781 308.162 179.92C307.959 180.048 307.666 180.101 307.282 180.08L306.85 180.048C305.058 179.92 304.162 178.96 304.162 177.168V173.68H303.362C303.074 173.68 302.85 173.616 302.69 173.488C302.541 173.36 302.466 173.173 302.466 172.928C302.466 172.683 302.541 172.496 302.69 172.368C302.85 172.24 303.074 172.176 303.362 172.176H304.162V170.704C304.162 170.416 304.253 170.187 304.434 170.016C304.615 169.845 304.861 169.76 305.17 169.76C305.469 169.76 305.709 169.845 305.89 170.016C306.071 170.187 306.162 170.416 306.162 170.704V172.176H307.522C307.81 172.176 308.029 172.24 308.178 172.368C308.338 172.496 308.418 172.683 308.418 172.928C308.418 173.173 308.338 173.36 308.178 173.488C308.029 173.616 307.81 173.68 307.522 173.68H306.162V177.312C306.162 178.101 306.525 178.523 307.25 178.576L307.682 178.608ZM314.1 171.984C315.935 171.984 316.852 173.056 316.852 175.2V179.136C316.852 179.435 316.762 179.669 316.58 179.84C316.41 180.011 316.17 180.096 315.86 180.096C315.551 180.096 315.306 180.011 315.124 179.84C314.943 179.669 314.852 179.435 314.852 179.136V175.2C314.852 174.635 314.735 174.224 314.5 173.968C314.276 173.701 313.919 173.568 313.428 173.568C312.852 173.568 312.388 173.749 312.036 174.112C311.695 174.475 311.524 174.96 311.524 175.568V179.136C311.524 179.435 311.434 179.669 311.252 179.84C311.071 180.011 310.826 180.096 310.516 180.096C310.207 180.096 309.962 180.011 309.78 179.84C309.61 179.669 309.524 179.435 309.524 179.136V169.568C309.524 169.291 309.615 169.067 309.796 168.896C309.988 168.725 310.234 168.64 310.532 168.64C310.831 168.64 311.071 168.72 311.252 168.88C311.434 169.04 311.524 169.259 311.524 169.536V173.264C311.791 172.848 312.143 172.533 312.58 172.32C313.028 172.096 313.535 171.984 314.1 171.984Z" fill="#234CAD"/>
</g>
</g>
<g clip-path="url(#clip2_8786_288)">
<circle cx="186" cy="186" r="30" fill="#F2F6FF"/>
<path d="M178.134 192.108C177.21 192.144 176.748 191.826 176.748 191.154C176.748 190.866 176.826 190.65 176.982 190.506C177.126 190.35 177.36 190.26 177.684 190.236L178.26 190.2C178.752 190.176 179.124 190.02 179.376 189.732C179.628 189.444 179.754 189.006 179.754 188.418V180.372C179.754 180.024 179.856 179.748 180.06 179.544C180.276 179.328 180.558 179.22 180.906 179.22C181.266 179.22 181.548 179.328 181.752 179.544C181.968 179.748 182.076 180.024 182.076 180.372V188.418C182.076 190.686 180.954 191.904 178.71 192.072L178.134 192.108ZM189.211 192.162C188.287 192.162 187.411 192.042 186.583 191.802C185.767 191.55 185.101 191.214 184.585 190.794C184.309 190.59 184.171 190.302 184.171 189.93C184.171 189.678 184.243 189.462 184.387 189.282C184.543 189.09 184.723 188.994 184.927 188.994C185.143 188.994 185.389 189.078 185.665 189.246C186.181 189.618 186.721 189.888 187.285 190.056C187.849 190.224 188.473 190.308 189.157 190.308C190.033 190.308 190.705 190.158 191.173 189.858C191.641 189.546 191.875 189.096 191.875 188.508C191.875 188.052 191.653 187.704 191.209 187.464C190.777 187.212 190.051 186.972 189.031 186.744C187.975 186.516 187.117 186.252 186.457 185.952C185.797 185.652 185.299 185.268 184.963 184.8C184.627 184.332 184.459 183.738 184.459 183.018C184.459 182.274 184.669 181.608 185.089 181.02C185.509 180.432 186.091 179.976 186.835 179.652C187.591 179.316 188.437 179.148 189.373 179.148C191.089 179.148 192.487 179.604 193.567 180.516C193.723 180.648 193.831 180.78 193.891 180.912C193.963 181.032 193.999 181.188 193.999 181.38C193.999 181.632 193.921 181.854 193.765 182.046C193.621 182.226 193.447 182.316 193.243 182.316C193.123 182.316 193.009 182.298 192.901 182.262C192.805 182.226 192.673 182.16 192.505 182.064C192.013 181.704 191.533 181.44 191.065 181.272C190.609 181.092 190.045 181.002 189.373 181.002C188.557 181.002 187.909 181.17 187.429 181.506C186.961 181.83 186.727 182.286 186.727 182.874C186.727 183.366 186.937 183.744 187.357 184.008C187.777 184.272 188.491 184.518 189.499 184.746C190.567 184.986 191.431 185.256 192.091 185.556C192.763 185.844 193.273 186.216 193.621 186.672C193.981 187.128 194.161 187.698 194.161 188.382C194.161 189.126 193.951 189.786 193.531 190.362C193.123 190.926 192.541 191.37 191.785 191.694C191.041 192.006 190.183 192.162 189.211 192.162Z" fill="#234CAD"/>
</g>
<g clip-path="url(#clip3_8786_288)">
<circle cx="208" cy="164" r="7" fill="#234CAD" stroke="white" stroke-width="2"/>
<path d="M208.448 163.828C208.7 163.892 208.892 164.014 209.024 164.194C209.16 164.37 209.228 164.59 209.228 164.854C209.228 165.218 209.094 165.508 208.826 165.724C208.558 165.94 208.196 166.048 207.74 166.048C207.48 166.048 207.23 166.008 206.99 165.928C206.75 165.848 206.546 165.736 206.378 165.592C206.286 165.512 206.24 165.418 206.24 165.31C206.24 165.222 206.264 165.148 206.312 165.088C206.364 165.024 206.424 164.992 206.492 164.992C206.532 164.992 206.568 165 206.6 165.016C206.632 165.028 206.676 165.05 206.732 165.082C206.9 165.194 207.06 165.28 207.212 165.34C207.364 165.4 207.53 165.43 207.71 165.43C207.974 165.43 208.17 165.378 208.298 165.274C208.426 165.166 208.49 165.004 208.49 164.788C208.49 164.576 208.422 164.42 208.286 164.32C208.154 164.216 207.948 164.164 207.668 164.164H207.326C207.234 164.164 207.162 164.134 207.11 164.074C207.062 164.01 207.038 163.938 207.038 163.858C207.038 163.774 207.062 163.702 207.11 163.642C207.162 163.582 207.234 163.552 207.326 163.552H207.566C208.114 163.552 208.388 163.346 208.388 162.934C208.388 162.742 208.33 162.594 208.214 162.49C208.098 162.386 207.938 162.334 207.734 162.334C207.442 162.334 207.13 162.45 206.798 162.682C206.742 162.714 206.698 162.738 206.666 162.754C206.634 162.766 206.598 162.772 206.558 162.772C206.49 162.772 206.43 162.742 206.378 162.682C206.33 162.618 206.306 162.542 206.306 162.454C206.306 162.394 206.316 162.344 206.336 162.304C206.36 162.26 206.396 162.216 206.444 162.172C206.612 162.032 206.812 161.922 207.044 161.842C207.28 161.758 207.52 161.716 207.764 161.716C208.18 161.716 208.51 161.818 208.754 162.022C209.002 162.226 209.126 162.498 209.126 162.838C209.122 163.07 209.06 163.274 208.94 163.45C208.824 163.622 208.66 163.748 208.448 163.828Z" fill="#F7FAFC"/>
</g>
<defs>
<filter id="filter0_f_8786_288" x="0.085907" y="0.085907" width="621.828" height="371.828" filterUnits="userSpaceOnUse" color-interpolation-filters="sRGB">
<feFlood flood-opacity="0" result="BackgroundImageFix"/>
<feBlend mode="normal" in="SourceGraphic" in2="BackgroundImageFix" result="shape"/>
<feGaussianBlur stdDeviation="67.957" result="effect1_foregroundBlur_8786_288"/>
</filter>
<linearGradient id="paint0_linear_8786_288" x1="401.05" y1="272.598" x2="433.39" y2="108.231" gradientUnits="userSpaceOnUse">
<stop stop-color="#234CAD"/>
<stop offset="1" stop-color="#234CAD" stop-opacity="0.5"/>
</linearGradient>
<clipPath id="clip0_8786_288">
<rect width="230" height="45" fill="white" transform="translate(236 164)"/>
</clipPath>
<clipPath id="clip1_8786_288">
<rect width="179" height="45" fill="white" transform="translate(236 164)"/>
</clipPath>
<clipPath id="clip2_8786_288">
<rect width="60" height="60" fill="white" transform="translate(156 156)"/>
</clipPath>
<clipPath id="clip3_8786_288">
<rect width="16" height="16" fill="white" transform="translate(200 156)"/>
</clipPath>
</defs>
</svg>
