<svg width="648" height="482" viewBox="0 0 648 482" fill="none" xmlns="http://www.w3.org/2000/svg">
<g opacity="0.01" filter="url(#filter0_f_8786_220)">
<rect x="136" y="136" width="376" height="210" rx="25" fill="url(#paint0_linear_8786_220)"/>
</g>
<rect x="186" y="136" width="276" height="160" rx="25" fill="white"/>
<g clip-path="url(#clip0_8786_220)">
<circle cx="226" cy="256" r="19" fill="#F2F6FF" stroke="white" stroke-width="2"/>
<path d="M220.63 259.06C220.117 259.08 219.86 258.903 219.86 258.53C219.86 258.37 219.903 258.25 219.99 258.17C220.07 258.083 220.2 258.033 220.38 258.02L220.7 258C220.973 257.987 221.18 257.9 221.32 257.74C221.46 257.58 221.53 257.337 221.53 257.01V252.54C221.53 252.347 221.587 252.193 221.7 252.08C221.82 251.96 221.977 251.9 222.17 251.9C222.37 251.9 222.527 251.96 222.64 252.08C222.76 252.193 222.82 252.347 222.82 252.54V257.01C222.82 258.27 222.197 258.947 220.95 259.04L220.63 259.06ZM230.604 251.9C230.791 251.9 230.941 251.96 231.054 252.08C231.167 252.193 231.224 252.347 231.224 252.54V258.46C231.224 258.647 231.171 258.793 231.064 258.9C230.957 259.007 230.817 259.06 230.644 259.06C230.471 259.06 230.334 259.007 230.234 258.9C230.134 258.793 230.084 258.647 230.084 258.46V254.34L228.384 257.56C228.304 257.707 228.217 257.817 228.124 257.89C228.031 257.957 227.921 257.99 227.794 257.99C227.667 257.99 227.557 257.957 227.464 257.89C227.371 257.823 227.284 257.713 227.204 257.56L225.494 254.39V258.46C225.494 258.64 225.441 258.787 225.334 258.9C225.234 259.007 225.097 259.06 224.924 259.06C224.751 259.06 224.614 259.007 224.514 258.9C224.414 258.793 224.364 258.647 224.364 258.46V252.54C224.364 252.347 224.417 252.193 224.524 252.08C224.637 251.96 224.787 251.9 224.974 251.9C225.234 251.9 225.437 252.043 225.584 252.33L227.804 256.56L230.014 252.33C230.161 252.043 230.357 251.9 230.604 251.9Z" fill="#234CAD"/>
</g>
<g clip-path="url(#clip1_8786_220)">
<circle cx="256" cy="256" r="19" fill="#F2F6FF" stroke="white" stroke-width="2"/>
<path d="M256.15 258.23C256.19 258.317 256.21 258.403 256.21 258.49C256.21 258.643 256.147 258.773 256.02 258.88C255.9 258.987 255.76 259.04 255.6 259.04C255.493 259.04 255.393 259.013 255.3 258.96C255.207 258.9 255.133 258.81 255.08 258.69L254.48 257.35H250.96L250.36 258.69C250.307 258.81 250.233 258.9 250.14 258.96C250.047 259.013 249.943 259.04 249.83 259.04C249.677 259.04 249.537 258.987 249.41 258.88C249.283 258.773 249.22 258.643 249.22 258.49C249.22 258.403 249.24 258.317 249.28 258.23L252.04 252.3C252.1 252.167 252.19 252.067 252.31 252C252.437 251.927 252.57 251.89 252.71 251.89C252.85 251.89 252.98 251.927 253.1 252C253.227 252.067 253.32 252.167 253.38 252.3L256.15 258.23ZM251.4 256.35H254.04L252.72 253.38L251.4 256.35ZM260.107 259.09C259.427 259.09 258.831 258.943 258.317 258.65C257.811 258.357 257.421 257.937 257.147 257.39C256.874 256.843 256.737 256.203 256.737 255.47C256.737 254.737 256.874 254.1 257.147 253.56C257.421 253.013 257.811 252.593 258.317 252.3C258.831 252.007 259.427 251.86 260.107 251.86C260.547 251.86 260.961 251.927 261.347 252.06C261.734 252.187 262.077 252.373 262.377 252.62C262.464 252.687 262.524 252.757 262.557 252.83C262.591 252.903 262.607 252.993 262.607 253.1C262.607 253.247 262.567 253.37 262.487 253.47C262.407 253.57 262.311 253.62 262.197 253.62C262.064 253.62 261.927 253.573 261.787 253.48C261.501 253.267 261.234 253.12 260.987 253.04C260.741 252.953 260.467 252.91 260.167 252.91C259.474 252.91 258.947 253.127 258.587 253.56C258.234 253.993 258.057 254.63 258.057 255.47C258.057 256.317 258.234 256.957 258.587 257.39C258.947 257.823 259.474 258.04 260.167 258.04C260.454 258.04 260.717 257.997 260.957 257.91C261.204 257.823 261.481 257.677 261.787 257.47C261.854 257.43 261.921 257.397 261.987 257.37C262.054 257.343 262.124 257.33 262.197 257.33C262.311 257.33 262.407 257.38 262.487 257.48C262.567 257.58 262.607 257.703 262.607 257.85C262.607 257.95 262.591 258.04 262.557 258.12C262.524 258.193 262.464 258.263 262.377 258.33C262.077 258.577 261.734 258.767 261.347 258.9C260.961 259.027 260.547 259.09 260.107 259.09Z" fill="#234CAD"/>
</g>
<g clip-path="url(#clip2_8786_220)">
<circle cx="286" cy="256" r="19" fill="#F2F6FF" stroke="white" stroke-width="2"/>
<path d="M285.23 258.03C285.363 258.157 285.43 258.3 285.43 258.46C285.43 258.613 285.37 258.75 285.25 258.87C285.137 258.983 285 259.04 284.84 259.04C284.673 259.04 284.52 258.97 284.38 258.83L281.05 255.71V258.41C281.05 258.603 280.99 258.76 280.87 258.88C280.757 259 280.6 259.06 280.4 259.06C280.207 259.06 280.05 259 279.93 258.88C279.817 258.76 279.76 258.603 279.76 258.41V252.54C279.76 252.347 279.817 252.193 279.93 252.08C280.05 251.96 280.207 251.9 280.4 251.9C280.6 251.9 280.757 251.96 280.87 252.08C280.99 252.193 281.05 252.347 281.05 252.54V255.11L284.27 252.09C284.39 251.97 284.527 251.91 284.68 251.91C284.833 251.91 284.967 251.97 285.08 252.09C285.2 252.203 285.26 252.337 285.26 252.49C285.26 252.643 285.193 252.783 285.06 252.91L282.37 255.37L285.23 258.03ZM286.982 259C286.788 259 286.635 258.947 286.522 258.84C286.415 258.733 286.362 258.583 286.362 258.39V252.56C286.362 252.367 286.415 252.217 286.522 252.11C286.635 252.003 286.788 251.95 286.982 251.95H288.962C290.115 251.95 291.008 252.26 291.642 252.88C292.282 253.493 292.602 254.357 292.602 255.47C292.602 256.59 292.282 257.46 291.642 258.08C291.008 258.693 290.115 259 288.962 259H286.982ZM288.882 257.95C290.502 257.95 291.312 257.123 291.312 255.47C291.312 253.823 290.502 253 288.882 253H287.652V257.95H288.882Z" fill="#234CAD"/>
</g>
<g clip-path="url(#clip3_8786_220)">
<circle cx="316" cy="256" r="19" fill="#F2F6FF" stroke="white" stroke-width="2"/>
<path d="M315 255.7C315.127 255.7 315.23 255.743 315.31 255.83C315.397 255.91 315.44 256.013 315.44 256.14C315.44 256.267 315.397 256.373 315.31 256.46C315.23 256.54 315.127 256.58 315 256.58H313.44V258.13C313.44 258.257 313.397 258.363 313.31 258.45C313.23 258.537 313.127 258.58 313 258.58C312.873 258.58 312.767 258.537 312.68 258.45C312.6 258.363 312.56 258.257 312.56 258.13V256.58H311C310.873 256.58 310.767 256.54 310.68 256.46C310.6 256.373 310.56 256.267 310.56 256.14C310.56 256.013 310.6 255.91 310.68 255.83C310.767 255.743 310.873 255.7 311 255.7H312.56V254.14C312.56 254.013 312.6 253.91 312.68 253.83C312.767 253.743 312.873 253.7 313 253.7C313.127 253.7 313.23 253.743 313.31 253.83C313.397 253.91 313.44 254.013 313.44 254.14V255.7H315ZM320.346 255.38C320.759 255.493 321.076 255.7 321.296 256C321.523 256.3 321.636 256.667 321.636 257.1C321.636 257.72 321.403 258.207 320.936 258.56C320.469 258.907 319.823 259.08 318.996 259.08C318.169 259.08 317.523 258.907 317.056 258.56C316.589 258.207 316.356 257.72 316.356 257.1C316.356 256.667 316.469 256.3 316.696 256C316.923 255.693 317.243 255.487 317.656 255.38C317.303 255.247 317.026 255.04 316.826 254.76C316.626 254.473 316.526 254.14 316.526 253.76C316.526 253.173 316.746 252.71 317.186 252.37C317.626 252.03 318.229 251.86 318.996 251.86C319.763 251.86 320.366 252.03 320.806 252.37C321.246 252.71 321.466 253.173 321.466 253.76C321.466 254.147 321.366 254.483 321.166 254.77C320.966 255.057 320.693 255.26 320.346 255.38ZM318.996 252.87C318.163 252.87 317.746 253.21 317.746 253.89C317.746 254.23 317.849 254.49 318.056 254.67C318.269 254.843 318.583 254.93 318.996 254.93C319.409 254.93 319.719 254.843 319.926 254.67C320.139 254.49 320.246 254.23 320.246 253.89C320.246 253.21 319.829 252.87 318.996 252.87ZM318.996 258.07C319.949 258.07 320.426 257.713 320.426 257C320.426 256.287 319.949 255.93 318.996 255.93C318.043 255.93 317.566 256.287 317.566 257C317.566 257.713 318.043 258.07 318.996 258.07Z" fill="#234CAD"/>
</g>
<g clip-path="url(#clip4_8786_220)">
<path d="M292.096 201.172C292.24 201.172 292.352 201.208 292.432 201.28C292.512 201.352 292.552 201.452 292.552 201.58C292.552 201.86 292.4 202 292.096 202H287.392C287.256 202 287.144 201.96 287.056 201.88C286.968 201.792 286.924 201.688 286.924 201.568C286.924 201.416 286.98 201.284 287.092 201.172L289.984 197.992C290.384 197.544 290.672 197.144 290.848 196.792C291.032 196.432 291.124 196.072 291.124 195.712C291.124 195.248 290.988 194.892 290.716 194.644C290.452 194.396 290.076 194.272 289.588 194.272C289.204 194.272 288.836 194.344 288.484 194.488C288.132 194.624 287.78 194.836 287.428 195.124C287.308 195.22 287.196 195.268 287.092 195.268C287.004 195.268 286.928 195.228 286.864 195.148C286.8 195.06 286.768 194.956 286.768 194.836C286.768 194.668 286.832 194.532 286.96 194.428C287.288 194.124 287.688 193.884 288.16 193.708C288.632 193.532 289.116 193.444 289.612 193.444C290.372 193.444 290.976 193.644 291.424 194.044C291.88 194.444 292.108 194.984 292.108 195.664C292.108 196.152 291.996 196.62 291.772 197.068C291.556 197.516 291.196 198.016 290.692 198.568L288.292 201.172H292.096ZM294.575 197.38C294.383 197.38 294.223 197.32 294.095 197.2C293.967 197.072 293.903 196.908 293.903 196.708C293.903 196.508 293.967 196.348 294.095 196.228C294.223 196.1 294.383 196.036 294.575 196.036C294.759 196.036 294.911 196.1 295.031 196.228C295.159 196.348 295.223 196.508 295.223 196.708C295.223 196.908 295.159 197.072 295.031 197.2C294.911 197.32 294.759 197.38 294.575 197.38ZM294.575 202.06C294.383 202.06 294.223 202 294.095 201.88C293.967 201.752 293.903 201.588 293.903 201.388C293.903 201.188 293.967 201.024 294.095 200.896C294.223 200.768 294.383 200.704 294.575 200.704C294.759 200.704 294.911 200.768 295.031 200.896C295.159 201.024 295.223 201.188 295.223 201.388C295.223 201.588 295.159 201.752 295.031 201.88C294.911 202 294.759 202.06 294.575 202.06ZM300.666 197.656C301.178 197.8 301.566 198.048 301.83 198.4C302.102 198.752 302.238 199.188 302.238 199.708C302.238 200.444 301.99 201.024 301.494 201.448C300.998 201.872 300.322 202.084 299.465 202.084C298.946 202.084 298.446 201.996 297.966 201.82C297.494 201.644 297.094 201.404 296.766 201.1C296.638 200.98 296.574 200.844 296.574 200.692C296.574 200.572 296.606 200.472 296.67 200.392C296.734 200.312 296.81 200.272 296.898 200.272C297.01 200.272 297.122 200.316 297.234 200.404C297.602 200.7 297.962 200.916 298.314 201.052C298.666 201.188 299.046 201.256 299.454 201.256C300.046 201.256 300.494 201.12 300.798 200.848C301.11 200.576 301.266 200.184 301.266 199.672C301.266 198.64 300.618 198.124 299.322 198.124H298.686C298.558 198.124 298.454 198.084 298.374 198.004C298.302 197.916 298.266 197.816 298.266 197.704C298.266 197.592 298.302 197.496 298.374 197.416C298.454 197.336 298.558 197.296 298.686 197.296H299.13C299.754 197.296 300.234 197.16 300.57 196.888C300.906 196.608 301.074 196.208 301.074 195.688C301.074 195.232 300.938 194.884 300.666 194.644C300.394 194.396 300.01 194.272 299.514 194.272C299.138 194.272 298.774 194.344 298.422 194.488C298.07 194.624 297.718 194.836 297.366 195.124C297.254 195.212 297.142 195.256 297.03 195.256C296.942 195.256 296.866 195.216 296.802 195.136C296.738 195.056 296.706 194.956 296.706 194.836C296.706 194.684 296.77 194.548 296.898 194.428C297.226 194.124 297.622 193.884 298.086 193.708C298.558 193.532 299.042 193.444 299.538 193.444C300.306 193.444 300.918 193.64 301.374 194.032C301.83 194.424 302.054 194.952 302.046 195.616C302.038 196.096 301.91 196.516 301.662 196.876C301.422 197.236 301.09 197.496 300.666 197.656ZM306.733 202.096C305.765 202.096 305.029 201.728 304.525 200.992C304.021 200.256 303.769 199.184 303.769 197.776C303.769 196.36 304.021 195.284 304.525 194.548C305.029 193.812 305.765 193.444 306.733 193.444C307.701 193.444 308.437 193.812 308.941 194.548C309.445 195.276 309.697 196.348 309.697 197.764C309.697 199.18 309.445 200.256 308.941 200.992C308.437 201.728 307.701 202.096 306.733 202.096ZM306.733 201.268C307.405 201.268 307.901 200.984 308.221 200.416C308.541 199.848 308.701 198.964 308.701 197.764C308.701 196.556 308.541 195.672 308.221 195.112C307.909 194.552 307.413 194.272 306.733 194.272C306.061 194.272 305.565 194.556 305.245 195.124C304.925 195.684 304.765 196.564 304.765 197.764C304.765 198.964 304.925 199.848 305.245 200.416C305.565 200.984 306.061 201.268 306.733 201.268ZM314.958 202.06C314.806 202.06 314.686 202.016 314.598 201.928C314.51 201.832 314.466 201.708 314.466 201.556V194.02C314.466 193.876 314.51 193.76 314.598 193.672C314.694 193.584 314.818 193.54 314.97 193.54H317.814C318.702 193.54 319.39 193.756 319.878 194.188C320.374 194.62 320.622 195.232 320.622 196.024C320.622 196.816 320.374 197.432 319.878 197.872C319.382 198.312 318.694 198.532 317.814 198.532H315.45V201.556C315.45 201.708 315.406 201.832 315.318 201.928C315.23 202.016 315.11 202.06 314.958 202.06ZM317.718 197.716C319.006 197.716 319.65 197.152 319.65 196.024C319.65 194.912 319.006 194.356 317.718 194.356H315.45V197.716H317.718ZM329.712 193.48C329.864 193.48 329.98 193.528 330.06 193.624C330.148 193.712 330.192 193.832 330.192 193.984V201.58C330.192 201.724 330.152 201.84 330.072 201.928C329.992 202.016 329.88 202.06 329.736 202.06C329.592 202.06 329.484 202.016 329.412 201.928C329.34 201.84 329.304 201.724 329.304 201.58V195.448L326.7 200.44C326.588 200.672 326.424 200.788 326.208 200.788C326 200.788 325.836 200.672 325.716 200.44L323.1 195.508V201.58C323.1 201.724 323.06 201.84 322.98 201.928C322.908 202.016 322.8 202.06 322.656 202.06C322.512 202.06 322.4 202.016 322.32 201.928C322.24 201.84 322.2 201.724 322.2 201.58V193.984C322.2 193.832 322.244 193.712 322.332 193.624C322.42 193.528 322.54 193.48 322.692 193.48C322.892 193.48 323.052 193.596 323.172 193.828L326.22 199.672L329.232 193.828C329.296 193.7 329.364 193.612 329.436 193.564C329.516 193.508 329.608 193.48 329.712 193.48ZM340.244 201.172C340.388 201.172 340.5 201.208 340.58 201.28C340.66 201.352 340.7 201.452 340.7 201.58C340.7 201.716 340.66 201.82 340.58 201.892C340.508 201.964 340.396 202 340.244 202H336.272C336.12 202 336.004 201.964 335.924 201.892C335.852 201.82 335.816 201.716 335.816 201.58C335.816 201.452 335.856 201.352 335.936 201.28C336.016 201.208 336.128 201.172 336.272 201.172H337.76V194.74L336.452 195.592C336.388 195.632 336.324 195.652 336.26 195.652C336.148 195.652 336.048 195.6 335.96 195.496C335.88 195.392 335.84 195.28 335.84 195.16C335.84 194.992 335.904 194.872 336.032 194.8L337.856 193.612C337.992 193.524 338.132 193.48 338.276 193.48C338.412 193.48 338.524 193.524 338.612 193.612C338.7 193.7 338.744 193.824 338.744 193.984V201.172H340.244ZM345.459 196.696C345.995 196.696 346.463 196.808 346.863 197.032C347.271 197.256 347.583 197.572 347.799 197.98C348.023 198.38 348.135 198.844 348.135 199.372C348.135 199.9 348.015 200.372 347.775 200.788C347.535 201.196 347.199 201.516 346.767 201.748C346.343 201.972 345.851 202.084 345.291 202.084C344.795 202.084 344.311 201.996 343.839 201.82C343.367 201.644 342.967 201.404 342.639 201.1C342.511 200.98 342.447 200.844 342.447 200.692C342.447 200.572 342.479 200.472 342.543 200.392C342.607 200.312 342.683 200.272 342.771 200.272C342.883 200.272 342.995 200.316 343.107 200.404C343.459 200.692 343.811 200.908 344.163 201.052C344.515 201.188 344.883 201.256 345.267 201.256C345.859 201.256 346.323 201.088 346.659 200.752C346.995 200.416 347.163 199.96 347.163 199.384C347.163 198.824 346.995 198.372 346.659 198.028C346.323 197.684 345.871 197.512 345.303 197.512C344.575 197.512 343.983 197.792 343.527 198.352C343.415 198.472 343.279 198.532 343.119 198.532C343.007 198.532 342.911 198.5 342.831 198.436C342.759 198.364 342.723 198.268 342.723 198.148V194.008C342.723 193.872 342.763 193.76 342.843 193.672C342.931 193.584 343.051 193.54 343.203 193.54H347.427C347.571 193.54 347.683 193.576 347.763 193.648C347.851 193.72 347.895 193.82 347.895 193.948C347.895 194.076 347.851 194.176 347.763 194.248C347.683 194.32 347.571 194.356 347.427 194.356H343.695V197.368C343.919 197.152 344.179 196.988 344.475 196.876C344.779 196.756 345.107 196.696 345.459 196.696ZM360.152 201.436C360.184 201.5 360.2 201.568 360.2 201.64C360.2 201.76 360.152 201.86 360.056 201.94C359.968 202.02 359.86 202.06 359.732 202.06C359.532 202.06 359.392 201.964 359.312 201.772L358.46 199.828H353.936L353.072 201.772C352.992 201.964 352.852 202.06 352.652 202.06C352.524 202.06 352.412 202.02 352.316 201.94C352.22 201.852 352.172 201.748 352.172 201.628C352.172 201.564 352.188 201.5 352.22 201.436L355.652 193.804C355.7 193.692 355.772 193.608 355.868 193.552C355.964 193.496 356.068 193.468 356.18 193.468C356.3 193.468 356.408 193.5 356.504 193.564C356.6 193.62 356.672 193.7 356.72 193.804L360.152 201.436ZM354.296 199.012H358.1L356.192 194.704L354.296 199.012ZM364.383 196.012C364.895 196.012 365.347 196.14 365.739 196.396C366.131 196.652 366.435 197.012 366.651 197.476C366.867 197.932 366.975 198.464 366.975 199.072C366.975 199.68 366.867 200.212 366.651 200.668C366.435 201.116 366.131 201.464 365.739 201.712C365.355 201.96 364.903 202.084 364.383 202.084C363.927 202.084 363.527 201.984 363.183 201.784C362.847 201.584 362.591 201.3 362.415 200.932V203.752C362.415 203.896 362.371 204.008 362.283 204.088C362.203 204.176 362.087 204.22 361.935 204.22C361.783 204.22 361.663 204.176 361.575 204.088C361.487 204 361.443 203.888 361.443 203.752V196.516C361.443 196.372 361.487 196.256 361.575 196.168C361.663 196.08 361.783 196.036 361.935 196.036C362.087 196.036 362.203 196.08 362.283 196.168C362.371 196.256 362.415 196.372 362.415 196.516V197.164C362.591 196.796 362.847 196.512 363.183 196.312C363.527 196.112 363.927 196.012 364.383 196.012ZM364.191 201.28C364.759 201.28 365.199 201.088 365.511 200.704C365.823 200.32 365.979 199.776 365.979 199.072C365.979 198.368 365.823 197.82 365.511 197.428C365.199 197.028 364.759 196.828 364.191 196.828C363.623 196.828 363.183 197.02 362.871 197.404C362.567 197.788 362.415 198.336 362.415 199.048C362.415 199.76 362.567 200.312 362.871 200.704C363.183 201.088 363.623 201.28 364.191 201.28ZM371.319 196.036C371.655 196.012 371.823 196.148 371.823 196.444C371.823 196.572 371.787 196.676 371.715 196.756C371.643 196.828 371.519 196.872 371.343 196.888L370.983 196.924C370.447 196.972 370.047 197.164 369.783 197.5C369.527 197.828 369.399 198.216 369.399 198.664V201.58C369.399 201.74 369.355 201.86 369.267 201.94C369.179 202.02 369.063 202.06 368.919 202.06C368.775 202.06 368.655 202.02 368.559 201.94C368.471 201.852 368.427 201.732 368.427 201.58V196.516C368.427 196.364 368.475 196.248 368.571 196.168C368.667 196.08 368.783 196.036 368.919 196.036C369.047 196.036 369.155 196.08 369.243 196.168C369.331 196.248 369.375 196.36 369.375 196.504V197.176C369.543 196.824 369.779 196.556 370.083 196.372C370.395 196.188 370.751 196.08 371.151 196.048L371.319 196.036ZM380.948 201.172C381.092 201.172 381.204 201.208 381.284 201.28C381.364 201.352 381.404 201.452 381.404 201.58C381.404 201.86 381.252 202 380.948 202H376.244C376.108 202 375.996 201.96 375.908 201.88C375.82 201.792 375.776 201.688 375.776 201.568C375.776 201.416 375.832 201.284 375.944 201.172L378.836 197.992C379.236 197.544 379.524 197.144 379.7 196.792C379.884 196.432 379.976 196.072 379.976 195.712C379.976 195.248 379.84 194.892 379.568 194.644C379.304 194.396 378.928 194.272 378.44 194.272C378.056 194.272 377.688 194.344 377.336 194.488C376.984 194.624 376.632 194.836 376.28 195.124C376.16 195.22 376.048 195.268 375.944 195.268C375.856 195.268 375.78 195.228 375.716 195.148C375.652 195.06 375.62 194.956 375.62 194.836C375.62 194.668 375.684 194.532 375.812 194.428C376.14 194.124 376.54 193.884 377.012 193.708C377.484 193.532 377.968 193.444 378.464 193.444C379.224 193.444 379.828 193.644 380.276 194.044C380.732 194.444 380.96 194.984 380.96 195.664C380.96 196.152 380.848 196.62 380.624 197.068C380.408 197.516 380.048 198.016 379.544 198.568L377.144 201.172H380.948ZM385.647 202.096C384.679 202.096 383.943 201.728 383.439 200.992C382.935 200.256 382.683 199.184 382.683 197.776C382.683 196.36 382.935 195.284 383.439 194.548C383.943 193.812 384.679 193.444 385.647 193.444C386.615 193.444 387.351 193.812 387.855 194.548C388.359 195.276 388.611 196.348 388.611 197.764C388.611 199.18 388.359 200.256 387.855 200.992C387.351 201.728 386.615 202.096 385.647 202.096ZM385.647 201.268C386.319 201.268 386.815 200.984 387.135 200.416C387.455 199.848 387.615 198.964 387.615 197.764C387.615 196.556 387.455 195.672 387.135 195.112C386.823 194.552 386.327 194.272 385.647 194.272C384.975 194.272 384.479 194.556 384.159 195.124C383.839 195.684 383.679 196.564 383.679 197.764C383.679 198.964 383.839 199.848 384.159 200.416C384.479 200.984 384.975 201.268 385.647 201.268ZM395.338 201.172C395.482 201.172 395.594 201.208 395.674 201.28C395.754 201.352 395.794 201.452 395.794 201.58C395.794 201.86 395.642 202 395.338 202H390.634C390.498 202 390.386 201.96 390.298 201.88C390.21 201.792 390.166 201.688 390.166 201.568C390.166 201.416 390.222 201.284 390.334 201.172L393.226 197.992C393.626 197.544 393.914 197.144 394.09 196.792C394.274 196.432 394.366 196.072 394.366 195.712C394.366 195.248 394.23 194.892 393.958 194.644C393.694 194.396 393.318 194.272 392.83 194.272C392.446 194.272 392.078 194.344 391.726 194.488C391.374 194.624 391.022 194.836 390.67 195.124C390.55 195.22 390.438 195.268 390.334 195.268C390.246 195.268 390.17 195.228 390.106 195.148C390.042 195.06 390.01 194.956 390.01 194.836C390.01 194.668 390.074 194.532 390.202 194.428C390.53 194.124 390.93 193.884 391.402 193.708C391.874 193.532 392.358 193.444 392.854 193.444C393.614 193.444 394.218 193.644 394.666 194.044C395.122 194.444 395.35 194.984 395.35 195.664C395.35 196.152 395.238 196.62 395.014 197.068C394.798 197.516 394.438 198.016 393.934 198.568L391.534 201.172H395.338ZM400.038 202.096C399.07 202.096 398.334 201.728 397.83 200.992C397.326 200.256 397.074 199.184 397.074 197.776C397.074 196.36 397.326 195.284 397.83 194.548C398.334 193.812 399.07 193.444 400.038 193.444C401.006 193.444 401.742 193.812 402.246 194.548C402.75 195.276 403.002 196.348 403.002 197.764C403.002 199.18 402.75 200.256 402.246 200.992C401.742 201.728 401.006 202.096 400.038 202.096ZM400.038 201.268C400.71 201.268 401.206 200.984 401.526 200.416C401.846 199.848 402.006 198.964 402.006 197.764C402.006 196.556 401.846 195.672 401.526 195.112C401.214 194.552 400.718 194.272 400.038 194.272C399.366 194.272 398.87 194.556 398.55 195.124C398.23 195.684 398.07 196.564 398.07 197.764C398.07 198.964 398.23 199.848 398.55 200.416C398.87 200.984 399.366 201.268 400.038 201.268Z" fill="#234CAD"/>
<path d="M290.912 180.08C290.592 180.08 290.336 179.989 290.144 179.808C289.963 179.616 289.872 179.365 289.872 179.056V170.416H286.96C286.32 170.416 286 170.133 286 169.568C286 169.003 286.32 168.72 286.96 168.72H294.848C295.488 168.72 295.808 169.003 295.808 169.568C295.808 170.133 295.488 170.416 294.848 170.416H291.936V179.056C291.936 179.365 291.84 179.616 291.648 179.808C291.467 179.989 291.221 180.08 290.912 180.08ZM301.795 177.856C301.976 177.856 302.12 177.925 302.227 178.064C302.344 178.203 302.403 178.389 302.403 178.624C302.403 178.955 302.205 179.232 301.811 179.456C301.448 179.659 301.037 179.824 300.579 179.952C300.12 180.069 299.683 180.128 299.266 180.128C298.008 180.128 297.011 179.765 296.275 179.04C295.539 178.315 295.171 177.323 295.171 176.064C295.171 175.264 295.331 174.555 295.651 173.936C295.971 173.317 296.419 172.837 296.995 172.496C297.581 172.155 298.243 171.984 298.979 171.984C299.683 171.984 300.296 172.139 300.819 172.448C301.341 172.757 301.747 173.195 302.035 173.76C302.323 174.325 302.467 174.992 302.467 175.76C302.467 176.219 302.264 176.448 301.859 176.448H297.139C297.203 177.184 297.411 177.728 297.763 178.08C298.115 178.421 298.627 178.592 299.299 178.592C299.64 178.592 299.939 178.549 300.195 178.464C300.461 178.379 300.76 178.261 301.091 178.112C301.411 177.941 301.645 177.856 301.795 177.856ZM299.027 173.392C298.483 173.392 298.045 173.563 297.715 173.904C297.395 174.245 297.203 174.736 297.139 175.376H300.755C300.733 174.725 300.573 174.235 300.275 173.904C299.976 173.563 299.56 173.392 299.027 173.392ZM307.495 171.984C308.583 171.984 309.388 172.256 309.911 172.8C310.444 173.333 310.711 174.149 310.711 175.248V179.152C310.711 179.44 310.625 179.669 310.455 179.84C310.284 180 310.049 180.08 309.751 180.08C309.473 180.08 309.244 179.995 309.063 179.824C308.892 179.653 308.807 179.429 308.807 179.152V178.8C308.625 179.216 308.337 179.541 307.943 179.776C307.559 180.011 307.111 180.128 306.599 180.128C306.076 180.128 305.601 180.021 305.174 179.808C304.748 179.595 304.412 179.301 304.167 178.928C303.921 178.555 303.799 178.139 303.799 177.68C303.799 177.104 303.943 176.651 304.231 176.32C304.529 175.989 305.009 175.749 305.671 175.6C306.332 175.451 307.244 175.376 308.407 175.376H308.807V175.008C308.807 174.485 308.695 174.107 308.471 173.872C308.247 173.627 307.884 173.504 307.383 173.504C307.073 173.504 306.759 173.552 306.439 173.648C306.119 173.733 305.74 173.861 305.303 174.032C305.025 174.171 304.823 174.24 304.695 174.24C304.503 174.24 304.343 174.171 304.215 174.032C304.097 173.893 304.039 173.712 304.039 173.488C304.039 173.307 304.081 173.152 304.167 173.024C304.263 172.885 304.417 172.757 304.631 172.64C305.004 172.437 305.447 172.277 305.959 172.16C306.481 172.043 306.993 171.984 307.495 171.984ZM306.999 178.688C307.532 178.688 307.964 178.512 308.295 178.16C308.636 177.797 308.807 177.333 308.807 176.768V176.432H308.519C307.804 176.432 307.249 176.464 306.855 176.528C306.46 176.592 306.177 176.704 306.007 176.864C305.836 177.024 305.751 177.243 305.751 177.52C305.751 177.861 305.868 178.144 306.103 178.368C306.348 178.581 306.647 178.688 306.999 178.688ZM322.039 171.984C322.892 171.984 323.543 172.24 323.991 172.752C324.45 173.253 324.679 174.069 324.679 175.2V179.136C324.679 179.445 324.583 179.685 324.391 179.856C324.21 180.016 323.97 180.096 323.671 180.096C323.383 180.096 323.143 180.016 322.951 179.856C322.77 179.685 322.679 179.445 322.679 179.136V175.2C322.679 174.613 322.572 174.197 322.359 173.952C322.156 173.696 321.842 173.568 321.415 173.568C320.892 173.568 320.476 173.749 320.167 174.112C319.858 174.464 319.703 174.949 319.703 175.568V179.136C319.703 179.445 319.607 179.685 319.415 179.856C319.234 180.016 318.999 180.096 318.711 180.096C318.423 180.096 318.183 180.016 317.991 179.856C317.799 179.685 317.703 179.445 317.703 179.136V175.2C317.703 174.613 317.596 174.197 317.383 173.952C317.18 173.696 316.866 173.568 316.439 173.568C315.916 173.568 315.5 173.749 315.191 174.112C314.892 174.464 314.743 174.949 314.743 175.568V179.136C314.743 179.445 314.647 179.685 314.455 179.856C314.263 180.016 314.023 180.096 313.735 180.096C313.447 180.096 313.207 180.016 313.015 179.856C312.834 179.685 312.743 179.445 312.743 179.136V172.944C312.743 172.645 312.839 172.416 313.031 172.256C313.223 172.096 313.463 172.016 313.751 172.016C314.028 172.016 314.252 172.096 314.423 172.256C314.604 172.405 314.695 172.624 314.695 172.912V173.296C314.94 172.869 315.266 172.544 315.671 172.32C316.087 172.096 316.562 171.984 317.095 171.984C318.268 171.984 319.052 172.475 319.447 173.456C319.682 173.008 320.028 172.651 320.487 172.384C320.946 172.117 321.463 171.984 322.039 171.984ZM341.248 168.64C341.546 168.64 341.786 168.736 341.968 168.928C342.149 169.109 342.24 169.355 342.24 169.664V179.136C342.24 179.435 342.154 179.669 341.984 179.84C341.813 180.011 341.589 180.096 341.312 180.096C341.034 180.096 340.816 180.011 340.656 179.84C340.496 179.669 340.416 179.435 340.416 179.136V172.544L337.696 177.696C337.568 177.931 337.429 178.107 337.28 178.224C337.13 178.331 336.954 178.384 336.752 178.384C336.549 178.384 336.373 178.331 336.224 178.224C336.074 178.117 335.936 177.941 335.808 177.696L333.072 172.624V179.136C333.072 179.424 332.986 179.659 332.816 179.84C332.656 180.011 332.437 180.096 332.16 180.096C331.882 180.096 331.664 180.011 331.504 179.84C331.344 179.669 331.264 179.435 331.264 179.136V169.664C331.264 169.355 331.349 169.109 331.52 168.928C331.701 168.736 331.941 168.64 332.24 168.64C332.656 168.64 332.981 168.869 333.216 169.328L336.768 176.096L340.304 169.328C340.538 168.869 340.853 168.64 341.248 168.64ZM350.701 177.856C350.882 177.856 351.026 177.925 351.133 178.064C351.25 178.203 351.309 178.389 351.309 178.624C351.309 178.955 351.111 179.232 350.717 179.456C350.354 179.659 349.943 179.824 349.485 179.952C349.026 180.069 348.589 180.128 348.173 180.128C346.914 180.128 345.917 179.765 345.181 179.04C344.445 178.315 344.077 177.323 344.077 176.064C344.077 175.264 344.237 174.555 344.557 173.936C344.877 173.317 345.325 172.837 345.901 172.496C346.487 172.155 347.149 171.984 347.885 171.984C348.589 171.984 349.202 172.139 349.725 172.448C350.247 172.757 350.653 173.195 350.941 173.76C351.229 174.325 351.373 174.992 351.373 175.76C351.373 176.219 351.17 176.448 350.765 176.448H346.045C346.109 177.184 346.317 177.728 346.669 178.08C347.021 178.421 347.533 178.592 348.205 178.592C348.546 178.592 348.845 178.549 349.101 178.464C349.367 178.379 349.666 178.261 349.997 178.112C350.317 177.941 350.551 177.856 350.701 177.856ZM347.933 173.392C347.389 173.392 346.951 173.563 346.621 173.904C346.301 174.245 346.109 174.736 346.045 175.376H349.661C349.639 174.725 349.479 174.235 349.181 173.904C348.882 173.563 348.466 173.392 347.933 173.392ZM359.201 177.856C359.382 177.856 359.526 177.925 359.633 178.064C359.75 178.203 359.809 178.389 359.809 178.624C359.809 178.955 359.611 179.232 359.217 179.456C358.854 179.659 358.443 179.824 357.985 179.952C357.526 180.069 357.089 180.128 356.673 180.128C355.414 180.128 354.417 179.765 353.681 179.04C352.945 178.315 352.577 177.323 352.577 176.064C352.577 175.264 352.737 174.555 353.057 173.936C353.377 173.317 353.825 172.837 354.401 172.496C354.987 172.155 355.649 171.984 356.385 171.984C357.089 171.984 357.702 172.139 358.225 172.448C358.747 172.757 359.153 173.195 359.441 173.76C359.729 174.325 359.873 174.992 359.873 175.76C359.873 176.219 359.67 176.448 359.265 176.448H354.545C354.609 177.184 354.817 177.728 355.169 178.08C355.521 178.421 356.033 178.592 356.705 178.592C357.046 178.592 357.345 178.549 357.601 178.464C357.867 178.379 358.166 178.261 358.497 178.112C358.817 177.941 359.051 177.856 359.201 177.856ZM356.433 173.392C355.889 173.392 355.451 173.563 355.121 173.904C354.801 174.245 354.609 174.736 354.545 175.376H358.161C358.139 174.725 357.979 174.235 357.681 173.904C357.382 173.563 356.966 173.392 356.433 173.392ZM365.463 178.608C365.997 178.64 366.263 178.88 366.263 179.328C366.263 179.584 366.157 179.781 365.943 179.92C365.741 180.048 365.447 180.101 365.063 180.08L364.631 180.048C362.839 179.92 361.943 178.96 361.943 177.168V173.68H361.143C360.855 173.68 360.631 173.616 360.471 173.488C360.322 173.36 360.247 173.173 360.247 172.928C360.247 172.683 360.322 172.496 360.471 172.368C360.631 172.24 360.855 172.176 361.143 172.176H361.943V170.704C361.943 170.416 362.034 170.187 362.215 170.016C362.397 169.845 362.642 169.76 362.951 169.76C363.25 169.76 363.49 169.845 363.671 170.016C363.853 170.187 363.943 170.416 363.943 170.704V172.176H365.303C365.591 172.176 365.81 172.24 365.959 172.368C366.119 172.496 366.199 172.683 366.199 172.928C366.199 173.173 366.119 173.36 365.959 173.488C365.81 173.616 365.591 173.68 365.303 173.68H363.943V177.312C363.943 178.101 364.306 178.523 365.031 178.576L365.463 178.608ZM368.298 180.096C368.01 180.096 367.77 180.016 367.578 179.856C367.396 179.685 367.306 179.445 367.306 179.136V172.96C367.306 172.651 367.396 172.416 367.578 172.256C367.77 172.096 368.01 172.016 368.298 172.016C368.586 172.016 368.826 172.096 369.018 172.256C369.21 172.416 369.306 172.651 369.306 172.96V179.136C369.306 179.445 369.21 179.685 369.018 179.856C368.826 180.016 368.586 180.096 368.298 180.096ZM368.298 170.592C367.935 170.592 367.647 170.496 367.434 170.304C367.22 170.101 367.114 169.84 367.114 169.52C367.114 169.2 367.22 168.944 367.434 168.752C367.647 168.56 367.935 168.464 368.298 168.464C368.65 168.464 368.932 168.56 369.146 168.752C369.37 168.944 369.482 169.2 369.482 169.52C369.482 169.84 369.375 170.101 369.162 170.304C368.948 170.496 368.66 170.592 368.298 170.592ZM375.912 171.984C376.851 171.984 377.549 172.251 378.008 172.784C378.467 173.317 378.696 174.123 378.696 175.2V179.136C378.696 179.435 378.605 179.669 378.424 179.84C378.253 180.011 378.013 180.096 377.704 180.096C377.395 180.096 377.149 180.011 376.968 179.84C376.787 179.669 376.696 179.435 376.696 179.136V175.312C376.696 174.704 376.579 174.261 376.344 173.984C376.12 173.707 375.763 173.568 375.272 173.568C374.696 173.568 374.232 173.749 373.88 174.112C373.539 174.475 373.368 174.96 373.368 175.568V179.136C373.368 179.435 373.277 179.669 373.096 179.84C372.915 180.011 372.669 180.096 372.36 180.096C372.051 180.096 371.805 180.011 371.624 179.84C371.453 179.669 371.368 179.435 371.368 179.136V172.944C371.368 172.667 371.459 172.443 371.64 172.272C371.821 172.101 372.067 172.016 372.376 172.016C372.653 172.016 372.877 172.101 373.048 172.272C373.229 172.432 373.32 172.645 373.32 172.912V173.344C373.587 172.907 373.944 172.571 374.392 172.336C374.84 172.101 375.347 171.984 375.912 171.984ZM387.352 172.016C387.65 172.016 387.89 172.101 388.072 172.272C388.253 172.443 388.344 172.672 388.344 172.96V179.28C388.344 180.507 388.002 181.435 387.32 182.064C386.637 182.693 385.629 183.008 384.296 183.008C383.133 183.008 382.162 182.789 381.384 182.352C380.989 182.117 380.792 181.835 380.792 181.504C380.792 181.269 380.845 181.083 380.952 180.944C381.069 180.805 381.218 180.736 381.4 180.736C381.496 180.736 381.613 180.757 381.752 180.8C381.89 180.853 382.034 180.912 382.184 180.976C382.568 181.136 382.909 181.259 383.208 181.344C383.517 181.429 383.869 181.472 384.264 181.472C385.661 181.472 386.36 180.789 386.36 179.424V178.4C386.125 178.837 385.784 179.179 385.336 179.424C384.888 179.659 384.376 179.776 383.799 179.776C383.117 179.776 382.509 179.616 381.976 179.296C381.453 178.965 381.042 178.507 380.743 177.92C380.445 177.333 380.296 176.656 380.296 175.888C380.296 175.12 380.44 174.443 380.728 173.856C381.026 173.259 381.442 172.8 381.976 172.48C382.509 172.149 383.117 171.984 383.799 171.984C384.376 171.984 384.888 172.107 385.336 172.352C385.784 172.587 386.125 172.923 386.36 173.36V172.944C386.36 172.667 386.45 172.443 386.632 172.272C386.813 172.101 387.053 172.016 387.352 172.016ZM384.328 178.224C384.968 178.224 385.464 178.016 385.816 177.6C386.178 177.184 386.36 176.613 386.36 175.888C386.36 175.152 386.178 174.576 385.816 174.16C385.464 173.744 384.968 173.536 384.328 173.536C383.698 173.536 383.202 173.744 382.84 174.16C382.477 174.576 382.296 175.152 382.296 175.888C382.296 176.613 382.477 177.184 382.84 177.6C383.202 178.016 383.698 178.224 384.328 178.224Z" fill="#234CAD"/>
</g>
<circle cx="236" cy="186" r="29" stroke="#234CAD" stroke-width="2"/>
<path d="M228.333 179.333C228.333 179.886 228.781 180.333 229.333 180.333C229.886 180.333 230.333 179.886 230.333 179.333H228.333ZM230.333 176C230.333 175.448 229.886 175 229.333 175C228.781 175 228.333 175.448 228.333 176H230.333ZM232.778 179.333C232.778 179.886 233.225 180.333 233.778 180.333C234.33 180.333 234.778 179.886 234.778 179.333H232.778ZM234.778 176C234.778 175.448 234.33 175 233.778 175C233.225 175 232.778 175.448 232.778 176H234.778ZM237.222 179.333C237.222 179.886 237.67 180.333 238.222 180.333C238.775 180.333 239.222 179.886 239.222 179.333H237.222ZM239.222 176C239.222 175.448 238.775 175 238.222 175C237.67 175 237.222 175.448 237.222 176H239.222ZM241.667 179.333C241.667 179.886 242.114 180.333 242.667 180.333C243.219 180.333 243.667 179.886 243.667 179.333H241.667ZM243.667 176C243.667 175.448 243.219 175 242.667 175C242.114 175 241.667 175.448 241.667 176H243.667ZM246 184.778C246.552 184.778 247 184.33 247 183.778C247 183.225 246.552 182.778 246 182.778V184.778ZM226 182.778C225.448 182.778 225 183.225 225 183.778C225 184.33 225.448 184.778 226 184.778V182.778ZM230.333 179.333V176H228.333V179.333H230.333ZM234.778 179.333V176H232.778V179.333H234.778ZM239.222 179.333V176H237.222V179.333H239.222ZM243.667 179.333V176H241.667V179.333H243.667ZM246 182.778H226V184.778H246V182.778ZM228.222 197H243.778V195H228.222V197ZM243.778 197C245.557 197 247 195.557 247 193.778H245C245 194.453 244.453 195 243.778 195V197ZM247 193.778V180.444H245V193.778H247ZM247 180.444C247 178.665 245.557 177.222 243.778 177.222V179.222C244.453 179.222 245 179.769 245 180.444H247ZM243.778 177.222H228.222V179.222H243.778V177.222ZM228.222 177.222C226.443 177.222 225 178.665 225 180.444H227C227 179.769 227.547 179.222 228.222 179.222V177.222ZM225 180.444V193.778H227V180.444H225ZM225 193.778C225 195.557 226.443 197 228.222 197V195C227.547 195 227 194.453 227 193.778H225Z" fill="#234CAD"/>
<defs>
<filter id="filter0_f_8786_220" x="0.085907" y="0.085907" width="647.828" height="481.828" filterUnits="userSpaceOnUse" color-interpolation-filters="sRGB">
<feFlood flood-opacity="0" result="BackgroundImageFix"/>
<feBlend mode="normal" in="SourceGraphic" in2="BackgroundImageFix" result="shape"/>
<feGaussianBlur stdDeviation="67.957" result="effect1_foregroundBlur_8786_220"/>
</filter>
<linearGradient id="paint0_linear_8786_220" x1="420.739" y1="422.855" x2="540.866" y2="110.526" gradientUnits="userSpaceOnUse">
<stop stop-color="#234CAD"/>
<stop offset="1" stop-color="#234CAD" stop-opacity="0.5"/>
</linearGradient>
<clipPath id="clip0_8786_220">
<rect width="40" height="40" fill="white" transform="translate(206 236)"/>
</clipPath>
<clipPath id="clip1_8786_220">
<rect width="40" height="40" fill="white" transform="translate(236 236)"/>
</clipPath>
<clipPath id="clip2_8786_220">
<rect width="40" height="40" fill="white" transform="translate(266 236)"/>
</clipPath>
<clipPath id="clip3_8786_220">
<rect width="40" height="40" fill="white" transform="translate(296 236)"/>
</clipPath>
<clipPath id="clip4_8786_220">
<rect width="118" height="45" fill="white" transform="translate(286 164)"/>
</clipPath>
</defs>
</svg>
