<svg width="600" height="372" viewBox="0 0 600 372" fill="none" xmlns="http://www.w3.org/2000/svg">
<g opacity="0.05" filter="url(#filter0_f_8786_303)">
<rect x="136" y="136" width="350" height="100" rx="20" fill="url(#paint0_linear_8786_303)"/>
</g>
<rect x="136" y="136" width="350" height="100" rx="20" fill="white"/>
<g clip-path="url(#clip0_8786_303)">
<circle cx="186" cy="186" r="30" fill="#F2F6FF"/>
<path d="M185.87 190.614C185.942 190.77 185.978 190.926 185.978 191.082C185.978 191.358 185.864 191.592 185.636 191.784C185.42 191.976 185.168 192.072 184.88 192.072C184.688 192.072 184.508 192.024 184.34 191.928C184.172 191.82 184.04 191.658 183.944 191.442L182.864 189.03H176.528L175.448 191.442C175.352 191.658 175.22 191.82 175.052 191.928C174.884 192.024 174.698 192.072 174.494 192.072C174.218 192.072 173.966 191.976 173.738 191.784C173.51 191.592 173.396 191.358 173.396 191.082C173.396 190.926 173.432 190.77 173.504 190.614L178.472 179.94C178.58 179.7 178.742 179.52 178.958 179.4C179.186 179.268 179.426 179.202 179.678 179.202C179.93 179.202 180.164 179.268 180.38 179.4C180.608 179.52 180.776 179.7 180.884 179.94L185.87 190.614ZM177.32 187.23H182.072L179.696 181.884L177.32 187.23ZM195.539 185.448C196.271 185.652 196.835 186.024 197.231 186.564C197.639 187.104 197.843 187.764 197.843 188.544C197.843 189.624 197.453 190.47 196.673 191.082C195.905 191.694 194.843 192 193.487 192H188.843C188.495 192 188.219 191.904 188.015 191.712C187.823 191.52 187.727 191.25 187.727 190.902V180.408C187.727 180.06 187.823 179.79 188.015 179.598C188.219 179.406 188.495 179.31 188.843 179.31H193.307C194.627 179.31 195.659 179.604 196.403 180.192C197.159 180.768 197.537 181.578 197.537 182.622C197.537 183.294 197.357 183.876 196.997 184.368C196.649 184.86 196.163 185.22 195.539 185.448ZM189.995 184.656H192.929C194.525 184.656 195.323 184.062 195.323 182.874C195.323 182.274 195.125 181.83 194.729 181.542C194.333 181.254 193.733 181.11 192.929 181.11H189.995V184.656ZM193.235 190.2C194.075 190.2 194.687 190.05 195.071 189.75C195.455 189.45 195.647 188.982 195.647 188.346C195.647 187.71 195.449 187.236 195.053 186.924C194.669 186.612 194.063 186.456 193.235 186.456H189.995V190.2H193.235Z" fill="#234CAD"/>
</g>
<g clip-path="url(#clip1_8786_303)">
<circle cx="208" cy="164" r="7" fill="#234CAD" stroke="white" stroke-width="2"/>
<path d="M208.988 165.376C209.228 165.376 209.348 165.478 209.348 165.682C209.348 165.894 209.228 166 208.988 166H206.708C206.604 166 206.522 165.97 206.462 165.91C206.402 165.846 206.372 165.768 206.372 165.676C206.372 165.556 206.418 165.448 206.51 165.352L207.878 163.882C208.046 163.698 208.168 163.53 208.244 163.378C208.324 163.222 208.364 163.068 208.364 162.916C208.364 162.728 208.31 162.584 208.202 162.484C208.094 162.384 207.94 162.334 207.74 162.334C207.576 162.334 207.416 162.366 207.26 162.43C207.108 162.49 206.954 162.574 206.798 162.682C206.758 162.71 206.718 162.734 206.678 162.754C206.638 162.77 206.598 162.778 206.558 162.778C206.49 162.778 206.43 162.746 206.378 162.682C206.33 162.618 206.306 162.542 206.306 162.454C206.306 162.394 206.316 162.342 206.336 162.298C206.36 162.254 206.396 162.212 206.444 162.172C206.62 162.032 206.826 161.922 207.062 161.842C207.298 161.758 207.534 161.716 207.77 161.716C208.182 161.716 208.51 161.82 208.754 162.028C209.002 162.236 209.126 162.516 209.126 162.868C209.126 163.112 209.074 163.342 208.97 163.558C208.866 163.77 208.69 164.008 208.442 164.272L207.404 165.376H208.988Z" fill="#F7FAFC"/>
</g>
<g clip-path="url(#clip2_8786_303)">
<path opacity="0.75" d="M433.08 173.31C433.2 173.31 433.293 173.34 433.36 173.4C433.427 173.46 433.46 173.543 433.46 173.65C433.46 173.883 433.333 174 433.08 174H429.16C429.047 174 428.953 173.967 428.88 173.9C428.807 173.827 428.77 173.74 428.77 173.64C428.77 173.513 428.817 173.403 428.91 173.31L431.32 170.66C431.653 170.287 431.893 169.953 432.04 169.66C432.193 169.36 432.27 169.06 432.27 168.76C432.27 168.373 432.157 168.077 431.93 167.87C431.71 167.663 431.397 167.56 430.99 167.56C430.67 167.56 430.363 167.62 430.07 167.74C429.777 167.853 429.483 168.03 429.19 168.27C429.09 168.35 428.997 168.39 428.91 168.39C428.837 168.39 428.773 168.357 428.72 168.29C428.667 168.217 428.64 168.13 428.64 168.03C428.64 167.89 428.693 167.777 428.8 167.69C429.073 167.437 429.407 167.237 429.8 167.09C430.193 166.943 430.597 166.87 431.01 166.87C431.643 166.87 432.147 167.037 432.52 167.37C432.9 167.703 433.09 168.153 433.09 168.72C433.09 169.127 432.997 169.517 432.81 169.89C432.63 170.263 432.33 170.68 431.91 171.14L429.91 173.31H433.08ZM435.146 170.15C434.986 170.15 434.853 170.1 434.746 170C434.639 169.893 434.586 169.757 434.586 169.59C434.586 169.423 434.639 169.29 434.746 169.19C434.853 169.083 434.986 169.03 435.146 169.03C435.299 169.03 435.426 169.083 435.526 169.19C435.633 169.29 435.686 169.423 435.686 169.59C435.686 169.757 435.633 169.893 435.526 170C435.426 170.1 435.299 170.15 435.146 170.15ZM435.146 174.05C434.986 174.05 434.853 174 434.746 173.9C434.639 173.793 434.586 173.657 434.586 173.49C434.586 173.323 434.639 173.187 434.746 173.08C434.853 172.973 434.986 172.92 435.146 172.92C435.299 172.92 435.426 172.973 435.526 173.08C435.633 173.187 435.686 173.323 435.686 173.49C435.686 173.657 435.633 173.793 435.526 173.9C435.426 174 435.299 174.05 435.146 174.05ZM439.281 174.08C438.475 174.08 437.861 173.773 437.441 173.16C437.021 172.547 436.811 171.653 436.811 170.48C436.811 169.3 437.021 168.403 437.441 167.79C437.861 167.177 438.475 166.87 439.281 166.87C440.088 166.87 440.701 167.177 441.121 167.79C441.541 168.397 441.751 169.29 441.751 170.47C441.751 171.65 441.541 172.547 441.121 173.16C440.701 173.773 440.088 174.08 439.281 174.08ZM439.281 173.39C439.841 173.39 440.255 173.153 440.521 172.68C440.788 172.207 440.921 171.47 440.921 170.47C440.921 169.463 440.788 168.727 440.521 168.26C440.261 167.793 439.848 167.56 439.281 167.56C438.721 167.56 438.308 167.797 438.041 168.27C437.775 168.737 437.641 169.47 437.641 170.47C437.641 171.47 437.775 172.207 438.041 172.68C438.308 173.153 438.721 173.39 439.281 173.39ZM445.057 166.87C445.911 166.87 446.567 167.167 447.027 167.76C447.494 168.353 447.727 169.2 447.727 170.3C447.727 171.087 447.621 171.763 447.407 172.33C447.194 172.897 446.884 173.33 446.477 173.63C446.071 173.93 445.587 174.08 445.027 174.08C444.647 174.08 444.267 174.007 443.887 173.86C443.514 173.713 443.194 173.513 442.927 173.26C442.814 173.153 442.757 173.04 442.757 172.92C442.757 172.82 442.784 172.737 442.837 172.67C442.891 172.603 442.954 172.57 443.027 172.57C443.121 172.57 443.217 172.607 443.317 172.68C443.897 173.153 444.461 173.39 445.007 173.39C445.601 173.39 446.064 173.12 446.397 172.58C446.731 172.04 446.897 171.283 446.897 170.31V170.18C446.744 170.553 446.494 170.847 446.147 171.06C445.807 171.273 445.421 171.38 444.987 171.38C444.561 171.38 444.181 171.287 443.847 171.1C443.514 170.913 443.254 170.65 443.067 170.31C442.881 169.97 442.787 169.58 442.787 169.14C442.787 168.707 442.884 168.317 443.077 167.97C443.271 167.623 443.541 167.353 443.887 167.16C444.234 166.967 444.624 166.87 445.057 166.87ZM445.107 170.69C445.567 170.69 445.941 170.547 446.227 170.26C446.521 169.967 446.667 169.59 446.667 169.13C446.667 168.663 446.521 168.287 446.227 168C445.941 167.707 445.564 167.56 445.097 167.56C444.644 167.56 444.281 167.703 444.007 167.99C443.734 168.277 443.597 168.657 443.597 169.13C443.597 169.603 443.734 169.983 444.007 170.27C444.287 170.55 444.654 170.69 445.107 170.69ZM452.132 174.05C452.005 174.05 451.905 174.013 451.832 173.94C451.758 173.86 451.722 173.757 451.722 173.63V167.35C451.722 167.23 451.758 167.133 451.832 167.06C451.912 166.987 452.015 166.95 452.142 166.95H454.512C455.252 166.95 455.825 167.13 456.232 167.49C456.645 167.85 456.852 168.36 456.852 169.02C456.852 169.68 456.645 170.193 456.232 170.56C455.818 170.927 455.245 171.11 454.512 171.11H452.542V173.63C452.542 173.757 452.505 173.86 452.432 173.94C452.358 174.013 452.258 174.05 452.132 174.05ZM454.432 170.43C455.505 170.43 456.042 169.96 456.042 169.02C456.042 168.093 455.505 167.63 454.432 167.63H452.542V170.43H454.432ZM464.427 166.9C464.554 166.9 464.65 166.94 464.717 167.02C464.79 167.093 464.827 167.193 464.827 167.32V173.65C464.827 173.77 464.794 173.867 464.727 173.94C464.66 174.013 464.567 174.05 464.447 174.05C464.327 174.05 464.237 174.013 464.177 173.94C464.117 173.867 464.087 173.77 464.087 173.65V168.54L461.917 172.7C461.824 172.893 461.687 172.99 461.507 172.99C461.334 172.99 461.197 172.893 461.097 172.7L458.917 168.59V173.65C458.917 173.77 458.884 173.867 458.817 173.94C458.757 174.013 458.667 174.05 458.547 174.05C458.427 174.05 458.334 174.013 458.267 173.94C458.2 173.867 458.167 173.77 458.167 173.65V167.32C458.167 167.193 458.204 167.093 458.277 167.02C458.35 166.94 458.45 166.9 458.577 166.9C458.744 166.9 458.877 166.997 458.977 167.19L461.517 172.06L464.027 167.19C464.08 167.083 464.137 167.01 464.197 166.97C464.264 166.923 464.34 166.9 464.427 166.9Z" fill="#234CAD"/>
<g clip-path="url(#clip3_8786_303)">
<path d="M243.572 193.48C243.724 193.48 243.84 193.528 243.92 193.624C244.008 193.712 244.052 193.832 244.052 193.984V201.556C244.052 201.708 244.008 201.832 243.92 201.928C243.84 202.016 243.724 202.06 243.572 202.06C243.42 202.06 243.3 202.016 243.212 201.928C243.124 201.832 243.08 201.708 243.08 201.556V198.124H238.016V201.556C238.016 201.708 237.972 201.832 237.884 201.928C237.796 202.016 237.676 202.06 237.524 202.06C237.372 202.06 237.252 202.016 237.164 201.928C237.084 201.832 237.044 201.708 237.044 201.556V193.984C237.044 193.832 237.084 193.712 237.164 193.624C237.252 193.528 237.372 193.48 237.524 193.48C237.676 193.48 237.796 193.528 237.884 193.624C237.972 193.712 238.016 193.832 238.016 193.984V197.284H243.08V193.984C243.08 193.832 243.124 193.712 243.212 193.624C243.3 193.528 243.42 193.48 243.572 193.48ZM246.486 202.06C246.342 202.06 246.222 202.02 246.126 201.94C246.038 201.852 245.994 201.732 245.994 201.58V196.516C245.994 196.364 246.038 196.248 246.126 196.168C246.222 196.08 246.342 196.036 246.486 196.036C246.63 196.036 246.746 196.08 246.834 196.168C246.922 196.248 246.966 196.364 246.966 196.516V201.58C246.966 201.74 246.922 201.86 246.834 201.94C246.746 202.02 246.63 202.06 246.486 202.06ZM246.486 194.776C246.294 194.776 246.138 194.72 246.018 194.608C245.898 194.496 245.838 194.348 245.838 194.164C245.838 193.988 245.898 193.844 246.018 193.732C246.138 193.62 246.294 193.564 246.486 193.564C246.678 193.564 246.834 193.62 246.954 193.732C247.074 193.844 247.134 193.988 247.134 194.164C247.134 194.348 247.074 194.496 246.954 194.608C246.834 194.72 246.678 194.776 246.486 194.776ZM249.239 200.704C249.439 200.704 249.599 200.784 249.719 200.944C249.847 201.096 249.911 201.328 249.911 201.64C249.911 202.272 249.707 202.804 249.299 203.236C249.219 203.324 249.127 203.368 249.023 203.368C248.943 203.368 248.871 203.336 248.807 203.272C248.743 203.216 248.711 203.148 248.711 203.068C248.711 202.98 248.743 202.904 248.807 202.84C249.015 202.624 249.147 202.356 249.203 202.036C249.027 202.02 248.879 201.956 248.759 201.844C248.647 201.724 248.591 201.572 248.591 201.388C248.591 201.188 248.651 201.024 248.771 200.896C248.899 200.768 249.055 200.704 249.239 200.704ZM257.571 196.012C258.259 196.012 258.779 196.208 259.131 196.6C259.483 196.984 259.659 197.56 259.659 198.328V201.58C259.659 201.732 259.615 201.852 259.527 201.94C259.439 202.02 259.323 202.06 259.179 202.06C259.027 202.06 258.907 202.02 258.819 201.94C258.731 201.852 258.687 201.732 258.687 201.58V198.352C258.687 197.832 258.579 197.448 258.363 197.2C258.155 196.952 257.819 196.828 257.355 196.828C256.819 196.828 256.391 196.992 256.071 197.32C255.751 197.648 255.591 198.092 255.591 198.652V201.58C255.591 201.732 255.547 201.852 255.459 201.94C255.379 202.02 255.263 202.06 255.111 202.06C254.959 202.06 254.839 202.02 254.751 201.94C254.663 201.852 254.619 201.732 254.619 201.58V193.948C254.619 193.812 254.663 193.7 254.751 193.612C254.847 193.524 254.967 193.48 255.111 193.48C255.263 193.48 255.379 193.524 255.459 193.612C255.547 193.692 255.591 193.804 255.591 193.948V197.092C255.783 196.74 256.051 196.472 256.395 196.288C256.739 196.104 257.131 196.012 257.571 196.012ZM263.863 202.084C263.311 202.084 262.823 201.96 262.399 201.712C261.983 201.464 261.659 201.112 261.427 200.656C261.203 200.192 261.091 199.656 261.091 199.048C261.091 198.44 261.203 197.908 261.427 197.452C261.659 196.988 261.983 196.632 262.399 196.384C262.823 196.136 263.311 196.012 263.863 196.012C264.415 196.012 264.903 196.136 265.327 196.384C265.751 196.632 266.075 196.988 266.299 197.452C266.531 197.908 266.647 198.44 266.647 199.048C266.647 199.656 266.531 200.192 266.299 200.656C266.075 201.112 265.751 201.464 265.327 201.712C264.903 201.96 264.415 202.084 263.863 202.084ZM263.863 201.28C264.439 201.28 264.879 201.092 265.183 200.716C265.495 200.332 265.651 199.776 265.651 199.048C265.651 198.336 265.495 197.788 265.183 197.404C264.871 197.012 264.431 196.816 263.863 196.816C263.295 196.816 262.855 197.012 262.543 197.404C262.231 197.788 262.075 198.336 262.075 199.048C262.075 199.768 262.227 200.32 262.531 200.704C262.843 201.088 263.287 201.28 263.863 201.28ZM276.017 196.348C276.097 196.156 276.229 196.06 276.413 196.06C276.533 196.06 276.641 196.1 276.737 196.18C276.833 196.26 276.881 196.36 276.881 196.48C276.881 196.536 276.869 196.596 276.845 196.66L274.853 201.7C274.805 201.804 274.733 201.888 274.637 201.952C274.549 202.008 274.449 202.036 274.337 202.036C274.233 202.036 274.133 202.008 274.037 201.952C273.949 201.888 273.881 201.804 273.833 201.7L272.177 197.488L270.533 201.7C270.493 201.804 270.425 201.888 270.329 201.952C270.233 202.008 270.129 202.036 270.017 202.036C269.913 202.036 269.813 202.008 269.717 201.952C269.621 201.888 269.549 201.804 269.501 201.7L267.509 196.672C267.485 196.608 267.473 196.552 267.473 196.504C267.473 196.376 267.525 196.268 267.629 196.18C267.741 196.092 267.861 196.048 267.989 196.048C268.181 196.048 268.317 196.144 268.397 196.336L270.041 200.764L271.733 196.372C271.781 196.268 271.845 196.188 271.925 196.132C272.013 196.076 272.105 196.048 272.201 196.048C272.305 196.048 272.397 196.076 272.477 196.132C272.565 196.188 272.629 196.268 272.669 196.372L274.361 200.752L276.017 196.348ZM283.608 196.012C285.072 196.012 285.804 196.78 285.804 198.316V201.58C285.804 201.724 285.76 201.84 285.672 201.928C285.592 202.016 285.48 202.06 285.336 202.06C285.192 202.06 285.076 202.016 284.988 201.928C284.9 201.84 284.856 201.724 284.856 201.58V201.004C284.704 201.348 284.472 201.616 284.16 201.808C283.848 201.992 283.488 202.084 283.08 202.084C282.704 202.084 282.356 202.008 282.036 201.856C281.724 201.704 281.476 201.492 281.292 201.22C281.108 200.948 281.016 200.648 281.016 200.32C281.016 199.88 281.128 199.54 281.352 199.3C281.576 199.052 281.944 198.876 282.456 198.772C282.968 198.66 283.68 198.604 284.592 198.604H284.856V198.208C284.856 197.728 284.756 197.376 284.556 197.152C284.364 196.928 284.048 196.816 283.608 196.816C283.064 196.816 282.512 196.964 281.952 197.26C281.736 197.396 281.584 197.464 281.496 197.464C281.4 197.464 281.32 197.428 281.256 197.356C281.192 197.284 281.16 197.192 281.16 197.08C281.16 196.968 281.192 196.872 281.256 196.792C281.328 196.704 281.44 196.616 281.592 196.528C281.872 196.368 282.188 196.244 282.54 196.156C282.9 196.06 283.256 196.012 283.608 196.012ZM283.212 201.316C283.692 201.316 284.084 201.156 284.388 200.836C284.7 200.508 284.856 200.088 284.856 199.576V199.228H284.64C283.936 199.228 283.4 199.26 283.032 199.324C282.664 199.38 282.4 199.48 282.24 199.624C282.088 199.76 282.012 199.964 282.012 200.236C282.012 200.548 282.124 200.808 282.348 201.016C282.58 201.216 282.868 201.316 283.212 201.316ZM290.476 196.036C290.812 196.012 290.98 196.148 290.98 196.444C290.98 196.572 290.944 196.676 290.872 196.756C290.8 196.828 290.676 196.872 290.5 196.888L290.14 196.924C289.604 196.972 289.204 197.164 288.94 197.5C288.684 197.828 288.556 198.216 288.556 198.664V201.58C288.556 201.74 288.512 201.86 288.424 201.94C288.336 202.02 288.22 202.06 288.076 202.06C287.932 202.06 287.812 202.02 287.716 201.94C287.628 201.852 287.584 201.732 287.584 201.58V196.516C287.584 196.364 287.632 196.248 287.728 196.168C287.824 196.08 287.94 196.036 288.076 196.036C288.204 196.036 288.312 196.08 288.4 196.168C288.488 196.248 288.532 196.36 288.532 196.504V197.176C288.7 196.824 288.936 196.556 289.24 196.372C289.552 196.188 289.908 196.08 290.308 196.048L290.476 196.036ZM296.221 200.644C296.309 200.644 296.385 200.68 296.449 200.752C296.513 200.824 296.545 200.916 296.545 201.028C296.545 201.228 296.405 201.412 296.125 201.58C295.837 201.748 295.533 201.876 295.213 201.964C294.893 202.044 294.581 202.084 294.277 202.084C293.373 202.084 292.657 201.816 292.129 201.28C291.609 200.744 291.349 200.004 291.349 199.06C291.349 198.46 291.465 197.932 291.697 197.476C291.929 197.012 292.253 196.652 292.669 196.396C293.093 196.14 293.573 196.012 294.109 196.012C294.869 196.012 295.473 196.26 295.921 196.756C296.369 197.252 296.593 197.924 296.593 198.772C296.593 198.932 296.561 199.048 296.497 199.12C296.433 199.192 296.329 199.228 296.185 199.228H292.321C292.393 200.604 293.045 201.292 294.277 201.292C294.589 201.292 294.857 201.252 295.081 201.172C295.305 201.084 295.545 200.968 295.801 200.824C296.009 200.704 296.149 200.644 296.221 200.644ZM294.121 196.768C293.609 196.768 293.197 196.928 292.885 197.248C292.581 197.568 292.401 198.02 292.345 198.604H295.741C295.725 198.012 295.577 197.56 295.297 197.248C295.017 196.928 294.625 196.768 294.121 196.768ZM305.331 196.336C305.419 196.144 305.559 196.048 305.751 196.048C305.871 196.048 305.979 196.088 306.075 196.168C306.171 196.248 306.219 196.348 306.219 196.468C306.219 196.54 306.203 196.604 306.171 196.66L302.799 203.932C302.759 204.02 302.699 204.088 302.619 204.136C302.547 204.184 302.471 204.208 302.391 204.208C302.271 204.208 302.163 204.168 302.067 204.088C301.979 204.016 301.935 203.92 301.935 203.8C301.935 203.736 301.951 203.672 301.983 203.608L302.823 201.796L300.447 196.66C300.415 196.604 300.399 196.544 300.399 196.48C300.399 196.36 300.451 196.256 300.555 196.168C300.667 196.08 300.787 196.036 300.915 196.036C300.995 196.036 301.071 196.06 301.143 196.108C301.223 196.156 301.283 196.224 301.323 196.312L303.327 200.812L305.331 196.336ZM309.637 202.084C309.085 202.084 308.597 201.96 308.173 201.712C307.757 201.464 307.433 201.112 307.201 200.656C306.977 200.192 306.865 199.656 306.865 199.048C306.865 198.44 306.977 197.908 307.201 197.452C307.433 196.988 307.757 196.632 308.173 196.384C308.597 196.136 309.085 196.012 309.637 196.012C310.189 196.012 310.677 196.136 311.101 196.384C311.525 196.632 311.849 196.988 312.073 197.452C312.305 197.908 312.421 198.44 312.421 199.048C312.421 199.656 312.305 200.192 312.073 200.656C311.849 201.112 311.525 201.464 311.101 201.712C310.677 201.96 310.189 202.084 309.637 202.084ZM309.637 201.28C310.213 201.28 310.653 201.092 310.957 200.716C311.269 200.332 311.425 199.776 311.425 199.048C311.425 198.336 311.269 197.788 310.957 197.404C310.645 197.012 310.205 196.816 309.637 196.816C309.069 196.816 308.629 197.012 308.317 197.404C308.005 197.788 307.849 198.336 307.849 199.048C307.849 199.768 308.001 200.32 308.305 200.704C308.617 201.088 309.061 201.28 309.637 201.28ZM318.309 196.036C318.461 196.036 318.577 196.08 318.657 196.168C318.745 196.256 318.789 196.372 318.789 196.516V201.592C318.789 201.728 318.745 201.84 318.657 201.928C318.577 202.016 318.461 202.06 318.309 202.06C318.165 202.06 318.049 202.02 317.961 201.94C317.881 201.852 317.841 201.74 317.841 201.604V201.004C317.657 201.356 317.397 201.624 317.061 201.808C316.733 201.992 316.361 202.084 315.945 202.084C315.249 202.084 314.725 201.892 314.373 201.508C314.021 201.116 313.845 200.54 313.845 199.78V196.516C313.845 196.372 313.889 196.256 313.977 196.168C314.065 196.08 314.185 196.036 314.337 196.036C314.489 196.036 314.605 196.08 314.685 196.168C314.773 196.256 314.817 196.372 314.817 196.516V199.756C314.817 200.276 314.921 200.66 315.129 200.908C315.337 201.148 315.665 201.268 316.113 201.268C316.625 201.268 317.037 201.104 317.349 200.776C317.661 200.44 317.817 200 317.817 199.456V196.516C317.817 196.372 317.861 196.256 317.949 196.168C318.037 196.08 318.157 196.036 318.309 196.036ZM328.381 193.48C328.533 193.48 328.653 193.524 328.741 193.612C328.829 193.7 328.873 193.812 328.873 193.948V201.58C328.873 201.724 328.829 201.84 328.741 201.928C328.653 202.016 328.533 202.06 328.381 202.06C328.229 202.06 328.109 202.016 328.021 201.928C327.941 201.84 327.901 201.724 327.901 201.58V200.932C327.725 201.3 327.465 201.584 327.121 201.784C326.785 201.984 326.389 202.084 325.933 202.084C325.421 202.084 324.969 201.956 324.577 201.7C324.185 201.444 323.881 201.088 323.665 200.632C323.449 200.168 323.341 199.632 323.341 199.024C323.341 198.424 323.449 197.896 323.665 197.44C323.881 196.984 324.185 196.632 324.577 196.384C324.969 196.136 325.421 196.012 325.933 196.012C326.389 196.012 326.785 196.112 327.121 196.312C327.465 196.512 327.725 196.796 327.901 197.164V193.948C327.901 193.804 327.941 193.692 328.021 193.612C328.109 193.524 328.229 193.48 328.381 193.48ZM326.125 201.28C326.693 201.28 327.129 201.088 327.433 200.704C327.745 200.312 327.901 199.76 327.901 199.048C327.901 198.336 327.745 197.788 327.433 197.404C327.129 197.02 326.693 196.828 326.125 196.828C325.557 196.828 325.113 197.02 324.793 197.404C324.481 197.788 324.325 198.328 324.325 199.024C324.325 199.736 324.481 200.292 324.793 200.692C325.113 201.084 325.557 201.28 326.125 201.28ZM333.097 202.084C332.545 202.084 332.057 201.96 331.633 201.712C331.217 201.464 330.893 201.112 330.661 200.656C330.437 200.192 330.325 199.656 330.325 199.048C330.325 198.44 330.437 197.908 330.661 197.452C330.893 196.988 331.217 196.632 331.633 196.384C332.057 196.136 332.545 196.012 333.097 196.012C333.649 196.012 334.137 196.136 334.561 196.384C334.985 196.632 335.309 196.988 335.533 197.452C335.765 197.908 335.881 198.44 335.881 199.048C335.881 199.656 335.765 200.192 335.533 200.656C335.309 201.112 334.985 201.464 334.561 201.712C334.137 201.96 333.649 202.084 333.097 202.084ZM333.097 201.28C333.673 201.28 334.113 201.092 334.417 200.716C334.729 200.332 334.885 199.776 334.885 199.048C334.885 198.336 334.729 197.788 334.417 197.404C334.105 197.012 333.665 196.816 333.097 196.816C332.529 196.816 332.089 197.012 331.777 197.404C331.465 197.788 331.309 198.336 331.309 199.048C331.309 199.768 331.461 200.32 331.765 200.704C332.077 201.088 332.521 201.28 333.097 201.28ZM337.822 202.06C337.678 202.06 337.558 202.02 337.462 201.94C337.374 201.852 337.33 201.732 337.33 201.58V196.516C337.33 196.364 337.374 196.248 337.462 196.168C337.558 196.08 337.678 196.036 337.822 196.036C337.966 196.036 338.082 196.08 338.17 196.168C338.258 196.248 338.302 196.364 338.302 196.516V201.58C338.302 201.74 338.258 201.86 338.17 201.94C338.082 202.02 337.966 202.06 337.822 202.06ZM337.822 194.776C337.63 194.776 337.474 194.72 337.354 194.608C337.234 194.496 337.174 194.348 337.174 194.164C337.174 193.988 337.234 193.844 337.354 193.732C337.474 193.62 337.63 193.564 337.822 193.564C338.014 193.564 338.17 193.62 338.29 193.732C338.41 193.844 338.47 193.988 338.47 194.164C338.47 194.348 338.41 194.496 338.29 194.608C338.17 194.72 338.014 194.776 337.822 194.776ZM343.059 196.012C344.459 196.012 345.159 196.784 345.159 198.328V201.58C345.159 201.732 345.115 201.852 345.027 201.94C344.947 202.02 344.831 202.06 344.679 202.06C344.527 202.06 344.407 202.02 344.319 201.94C344.231 201.852 344.187 201.732 344.187 201.58V198.388C344.187 197.844 344.079 197.448 343.863 197.2C343.655 196.952 343.319 196.828 342.855 196.828C342.319 196.828 341.891 196.992 341.571 197.32C341.251 197.648 341.091 198.092 341.091 198.652V201.58C341.091 201.732 341.047 201.852 340.959 201.94C340.879 202.02 340.763 202.06 340.611 202.06C340.459 202.06 340.339 202.02 340.251 201.94C340.163 201.852 340.119 201.732 340.119 201.58V196.516C340.119 196.372 340.163 196.256 340.251 196.168C340.339 196.08 340.459 196.036 340.611 196.036C340.755 196.036 340.867 196.08 340.947 196.168C341.035 196.256 341.079 196.368 341.079 196.504V197.116C341.271 196.756 341.539 196.484 341.883 196.3C342.227 196.108 342.619 196.012 343.059 196.012ZM351.679 196.036C351.831 196.036 351.951 196.08 352.039 196.168C352.127 196.256 352.171 196.372 352.171 196.516V201.604C352.171 202.476 351.947 203.132 351.499 203.572C351.051 204.02 350.387 204.244 349.507 204.244C348.651 204.244 347.939 204.076 347.371 203.74C347.083 203.58 346.939 203.396 346.939 203.188C346.939 203.076 346.967 202.984 347.023 202.912C347.087 202.84 347.167 202.804 347.263 202.804C347.343 202.804 347.487 202.86 347.695 202.972C347.975 203.116 348.251 203.232 348.523 203.32C348.795 203.408 349.119 203.452 349.495 203.452C350.063 203.452 350.491 203.3 350.779 202.996C351.067 202.7 351.211 202.264 351.211 201.688V200.656C351.043 201.032 350.783 201.32 350.431 201.52C350.087 201.72 349.679 201.82 349.207 201.82C348.695 201.82 348.239 201.7 347.839 201.46C347.447 201.22 347.139 200.88 346.915 200.44C346.699 200 346.591 199.492 346.591 198.916C346.591 198.34 346.699 197.832 346.915 197.392C347.139 196.952 347.447 196.612 347.839 196.372C348.239 196.132 348.695 196.012 349.207 196.012C349.671 196.012 350.075 196.112 350.419 196.312C350.763 196.512 351.023 196.796 351.199 197.164V196.516C351.199 196.372 351.239 196.256 351.319 196.168C351.407 196.08 351.527 196.036 351.679 196.036ZM349.399 201.016C349.959 201.016 350.399 200.832 350.719 200.464C351.039 200.088 351.199 199.572 351.199 198.916C351.199 198.268 351.039 197.76 350.719 197.392C350.407 197.016 349.967 196.828 349.399 196.828C348.831 196.828 348.383 197.016 348.055 197.392C347.735 197.76 347.575 198.268 347.575 198.916C347.575 199.572 347.735 200.088 348.055 200.464C348.383 200.832 348.831 201.016 349.399 201.016ZM359.764 201.292C360.044 201.316 360.184 201.444 360.184 201.676C360.184 201.812 360.132 201.916 360.028 201.988C359.932 202.052 359.784 202.076 359.584 202.06L359.26 202.036C358.62 201.988 358.148 201.796 357.844 201.46C357.54 201.124 357.388 200.616 357.388 199.936V196.924H356.584C356.448 196.924 356.34 196.892 356.26 196.828C356.188 196.756 356.152 196.664 356.152 196.552C356.152 196.432 356.188 196.336 356.26 196.264C356.34 196.192 356.448 196.156 356.584 196.156H357.388V194.8C357.388 194.648 357.432 194.532 357.52 194.452C357.608 194.364 357.728 194.32 357.88 194.32C358.024 194.32 358.14 194.364 358.228 194.452C358.316 194.532 358.36 194.648 358.36 194.8V196.156H359.692C359.82 196.156 359.92 196.192 359.992 196.264C360.072 196.336 360.112 196.432 360.112 196.552C360.112 196.664 360.072 196.756 359.992 196.828C359.92 196.892 359.82 196.924 359.692 196.924H358.36V199.984C358.36 200.424 358.448 200.744 358.624 200.944C358.808 201.136 359.08 201.244 359.44 201.268L359.764 201.292ZM363.566 202.084C363.014 202.084 362.526 201.96 362.102 201.712C361.686 201.464 361.362 201.112 361.13 200.656C360.906 200.192 360.794 199.656 360.794 199.048C360.794 198.44 360.906 197.908 361.13 197.452C361.362 196.988 361.686 196.632 362.102 196.384C362.526 196.136 363.014 196.012 363.566 196.012C364.118 196.012 364.606 196.136 365.03 196.384C365.454 196.632 365.778 196.988 366.002 197.452C366.234 197.908 366.35 198.44 366.35 199.048C366.35 199.656 366.234 200.192 366.002 200.656C365.778 201.112 365.454 201.464 365.03 201.712C364.606 201.96 364.118 202.084 363.566 202.084ZM363.566 201.28C364.142 201.28 364.582 201.092 364.886 200.716C365.198 200.332 365.354 199.776 365.354 199.048C365.354 198.336 365.198 197.788 364.886 197.404C364.574 197.012 364.134 196.816 363.566 196.816C362.998 196.816 362.558 197.012 362.246 197.404C361.934 197.788 361.778 198.336 361.778 199.048C361.778 199.768 361.93 200.32 362.234 200.704C362.546 201.088 362.99 201.28 363.566 201.28ZM372.49 193.48C372.642 193.48 372.762 193.524 372.85 193.612C372.938 193.7 372.982 193.812 372.982 193.948V201.58C372.982 201.724 372.938 201.84 372.85 201.928C372.762 202.016 372.642 202.06 372.49 202.06C372.338 202.06 372.218 202.016 372.13 201.928C372.05 201.84 372.01 201.724 372.01 201.58V200.932C371.834 201.3 371.574 201.584 371.23 201.784C370.894 201.984 370.498 202.084 370.042 202.084C369.53 202.084 369.078 201.956 368.686 201.7C368.294 201.444 367.99 201.088 367.774 200.632C367.558 200.168 367.45 199.632 367.45 199.024C367.45 198.424 367.558 197.896 367.774 197.44C367.99 196.984 368.294 196.632 368.686 196.384C369.078 196.136 369.53 196.012 370.042 196.012C370.498 196.012 370.894 196.112 371.23 196.312C371.574 196.512 371.834 196.796 372.01 197.164V193.948C372.01 193.804 372.05 193.692 372.13 193.612C372.218 193.524 372.338 193.48 372.49 193.48ZM370.234 201.28C370.802 201.28 371.238 201.088 371.542 200.704C371.854 200.312 372.01 199.76 372.01 199.048C372.01 198.336 371.854 197.788 371.542 197.404C371.238 197.02 370.802 196.828 370.234 196.828C369.666 196.828 369.222 197.02 368.902 197.404C368.59 197.788 368.434 198.328 368.434 199.024C368.434 199.736 368.59 200.292 368.902 200.692C369.222 201.084 369.666 201.28 370.234 201.28ZM377.171 196.012C378.635 196.012 379.367 196.78 379.367 198.316V201.58C379.367 201.724 379.323 201.84 379.235 201.928C379.155 202.016 379.043 202.06 378.899 202.06C378.755 202.06 378.639 202.016 378.551 201.928C378.463 201.84 378.419 201.724 378.419 201.58V201.004C378.267 201.348 378.035 201.616 377.723 201.808C377.411 201.992 377.051 202.084 376.643 202.084C376.267 202.084 375.919 202.008 375.599 201.856C375.287 201.704 375.039 201.492 374.855 201.22C374.671 200.948 374.579 200.648 374.579 200.32C374.579 199.88 374.691 199.54 374.915 199.3C375.139 199.052 375.507 198.876 376.019 198.772C376.531 198.66 377.243 198.604 378.155 198.604H378.419V198.208C378.419 197.728 378.319 197.376 378.119 197.152C377.927 196.928 377.611 196.816 377.171 196.816C376.627 196.816 376.075 196.964 375.515 197.26C375.299 197.396 375.147 197.464 375.059 197.464C374.963 197.464 374.883 197.428 374.819 197.356C374.755 197.284 374.723 197.192 374.723 197.08C374.723 196.968 374.755 196.872 374.819 196.792C374.891 196.704 375.003 196.616 375.155 196.528C375.435 196.368 375.751 196.244 376.103 196.156C376.463 196.06 376.819 196.012 377.171 196.012ZM376.775 201.316C377.255 201.316 377.647 201.156 377.951 200.836C378.263 200.508 378.419 200.088 378.419 199.576V199.228H378.203C377.499 199.228 376.963 199.26 376.595 199.324C376.227 199.38 375.963 199.48 375.803 199.624C375.651 199.76 375.575 199.964 375.575 200.236C375.575 200.548 375.687 200.808 375.911 201.016C376.143 201.216 376.431 201.316 376.775 201.316ZM385.358 196.336C385.446 196.144 385.586 196.048 385.778 196.048C385.898 196.048 386.006 196.088 386.102 196.168C386.198 196.248 386.246 196.348 386.246 196.468C386.246 196.54 386.23 196.604 386.198 196.66L382.826 203.932C382.786 204.02 382.726 204.088 382.646 204.136C382.574 204.184 382.498 204.208 382.418 204.208C382.298 204.208 382.19 204.168 382.094 204.088C382.006 204.016 381.962 203.92 381.962 203.8C381.962 203.736 381.978 203.672 382.01 203.608L382.85 201.796L380.474 196.66C380.442 196.604 380.426 196.544 380.426 196.48C380.426 196.36 380.478 196.256 380.582 196.168C380.694 196.08 380.814 196.036 380.942 196.036C381.022 196.036 381.098 196.06 381.17 196.108C381.25 196.156 381.31 196.224 381.35 196.312L383.354 200.812L385.358 196.336ZM388.672 199.852C388.584 199.852 388.512 199.82 388.456 199.756C388.4 199.692 388.372 199.604 388.372 199.492C388.372 198.996 388.46 198.572 388.636 198.22C388.82 197.868 389.08 197.484 389.416 197.068C389.688 196.724 389.888 196.432 390.016 196.192C390.152 195.952 390.22 195.684 390.22 195.388C390.22 195.044 390.096 194.776 389.848 194.584C389.6 194.384 389.264 194.284 388.84 194.284C388.48 194.284 388.148 194.356 387.844 194.5C387.54 194.636 387.196 194.848 386.812 195.136C386.676 195.232 386.564 195.28 386.476 195.28C386.38 195.28 386.3 195.24 386.236 195.16C386.18 195.072 386.151 194.972 386.151 194.86C386.151 194.7 386.216 194.56 386.344 194.44C386.664 194.136 387.052 193.896 387.508 193.72C387.972 193.536 388.432 193.444 388.888 193.444C389.584 193.444 390.144 193.616 390.568 193.96C391 194.304 391.216 194.756 391.216 195.316C391.216 195.74 391.124 196.108 390.94 196.42C390.764 196.724 390.492 197.084 390.124 197.5C389.78 197.892 389.512 198.24 389.32 198.544C389.136 198.84 389.024 199.184 388.984 199.576C388.976 199.664 388.944 199.732 388.888 199.78C388.832 199.828 388.76 199.852 388.672 199.852ZM388.684 202.06C388.492 202.06 388.332 201.996 388.204 201.868C388.084 201.74 388.024 201.58 388.024 201.388C388.024 201.196 388.084 201.036 388.204 200.908C388.332 200.772 388.492 200.704 388.684 200.704C388.876 200.704 389.032 200.772 389.152 200.908C389.28 201.036 389.344 201.196 389.344 201.388C389.344 201.58 389.28 201.74 389.152 201.868C389.032 201.996 388.876 202.06 388.684 202.06Z" fill="#234CAD"/>
<path d="M247.44 178.768C247.504 178.907 247.536 179.045 247.536 179.184C247.536 179.429 247.435 179.637 247.232 179.808C247.04 179.979 246.816 180.064 246.56 180.064C246.389 180.064 246.229 180.021 246.08 179.936C245.931 179.84 245.813 179.696 245.728 179.504L244.768 177.36H239.136L238.176 179.504C238.091 179.696 237.973 179.84 237.824 179.936C237.675 180.021 237.509 180.064 237.328 180.064C237.083 180.064 236.859 179.979 236.656 179.808C236.453 179.637 236.352 179.429 236.352 179.184C236.352 179.045 236.384 178.907 236.448 178.768L240.864 169.28C240.96 169.067 241.104 168.907 241.296 168.8C241.499 168.683 241.712 168.624 241.936 168.624C242.16 168.624 242.368 168.683 242.56 168.8C242.763 168.907 242.912 169.067 243.008 169.28L247.44 178.768ZM239.84 175.76H244.064L241.952 171.008L239.84 175.76ZM253.459 171.984C254.398 171.984 255.096 172.251 255.555 172.784C256.014 173.317 256.243 174.123 256.243 175.2V179.136C256.243 179.435 256.152 179.669 255.971 179.84C255.8 180.011 255.56 180.096 255.251 180.096C254.942 180.096 254.696 180.011 254.515 179.84C254.334 179.669 254.243 179.435 254.243 179.136V175.312C254.243 174.704 254.126 174.261 253.891 173.984C253.667 173.707 253.31 173.568 252.819 173.568C252.243 173.568 251.779 173.749 251.427 174.112C251.086 174.475 250.915 174.96 250.915 175.568V179.136C250.915 179.435 250.824 179.669 250.643 179.84C250.462 180.011 250.216 180.096 249.907 180.096C249.598 180.096 249.352 180.011 249.171 179.84C249 179.669 248.915 179.435 248.915 179.136V172.944C248.915 172.667 249.006 172.443 249.187 172.272C249.368 172.101 249.614 172.016 249.923 172.016C250.2 172.016 250.424 172.101 250.595 172.272C250.776 172.432 250.867 172.645 250.867 172.912V173.344C251.134 172.907 251.491 172.571 251.939 172.336C252.387 172.101 252.894 171.984 253.459 171.984ZM262.818 171.984C263.757 171.984 264.456 172.251 264.914 172.784C265.373 173.317 265.602 174.123 265.602 175.2V179.136C265.602 179.435 265.512 179.669 265.33 179.84C265.16 180.011 264.92 180.096 264.61 180.096C264.301 180.096 264.056 180.011 263.874 179.84C263.693 179.669 263.602 179.435 263.602 179.136V175.312C263.602 174.704 263.485 174.261 263.25 173.984C263.026 173.707 262.669 173.568 262.178 173.568C261.602 173.568 261.138 173.749 260.786 174.112C260.445 174.475 260.274 174.96 260.274 175.568V179.136C260.274 179.435 260.184 179.669 260.002 179.84C259.821 180.011 259.576 180.096 259.266 180.096C258.957 180.096 258.712 180.011 258.53 179.84C258.36 179.669 258.274 179.435 258.274 179.136V172.944C258.274 172.667 258.365 172.443 258.546 172.272C258.728 172.101 258.973 172.016 259.282 172.016C259.56 172.016 259.784 172.101 259.954 172.272C260.136 172.432 260.226 172.645 260.226 172.912V173.344C260.493 172.907 260.85 172.571 261.298 172.336C261.746 172.101 262.253 171.984 262.818 171.984ZM271.026 171.984C272.114 171.984 272.919 172.256 273.442 172.8C273.975 173.333 274.242 174.149 274.242 175.248V179.152C274.242 179.44 274.156 179.669 273.986 179.84C273.815 180 273.58 180.08 273.282 180.08C273.004 180.08 272.775 179.995 272.594 179.824C272.423 179.653 272.338 179.429 272.338 179.152V178.8C272.156 179.216 271.868 179.541 271.474 179.776C271.09 180.011 270.642 180.128 270.13 180.128C269.607 180.128 269.132 180.021 268.706 179.808C268.279 179.595 267.943 179.301 267.698 178.928C267.452 178.555 267.33 178.139 267.33 177.68C267.33 177.104 267.474 176.651 267.762 176.32C268.06 175.989 268.54 175.749 269.202 175.6C269.863 175.451 270.775 175.376 271.938 175.376H272.338V175.008C272.338 174.485 272.226 174.107 272.002 173.872C271.778 173.627 271.415 173.504 270.914 173.504C270.604 173.504 270.29 173.552 269.97 173.648C269.65 173.733 269.271 173.861 268.834 174.032C268.556 174.171 268.354 174.24 268.226 174.24C268.034 174.24 267.874 174.171 267.746 174.032C267.628 173.893 267.57 173.712 267.57 173.488C267.57 173.307 267.612 173.152 267.698 173.024C267.794 172.885 267.948 172.757 268.162 172.64C268.535 172.437 268.978 172.277 269.49 172.16C270.012 172.043 270.524 171.984 271.026 171.984ZM270.53 178.688C271.063 178.688 271.495 178.512 271.826 178.16C272.167 177.797 272.338 177.333 272.338 176.768V176.432H272.05C271.335 176.432 270.78 176.464 270.386 176.528C269.991 176.592 269.708 176.704 269.538 176.864C269.367 177.024 269.282 177.243 269.282 177.52C269.282 177.861 269.399 178.144 269.634 178.368C269.879 178.581 270.178 178.688 270.53 178.688ZM287.738 174.176C288.389 174.357 288.89 174.688 289.242 175.168C289.605 175.648 289.786 176.235 289.786 176.928C289.786 177.888 289.439 178.64 288.746 179.184C288.063 179.728 287.119 180 285.914 180H281.786C281.477 180 281.231 179.915 281.05 179.744C280.879 179.573 280.794 179.333 280.794 179.024V169.696C280.794 169.387 280.879 169.147 281.05 168.976C281.231 168.805 281.477 168.72 281.786 168.72H285.754C286.927 168.72 287.845 168.981 288.506 169.504C289.178 170.016 289.514 170.736 289.514 171.664C289.514 172.261 289.354 172.779 289.034 173.216C288.725 173.653 288.293 173.973 287.738 174.176ZM282.81 173.472H285.418C286.837 173.472 287.546 172.944 287.546 171.888C287.546 171.355 287.37 170.96 287.018 170.704C286.666 170.448 286.133 170.32 285.418 170.32H282.81V173.472ZM285.69 178.4C286.437 178.4 286.981 178.267 287.322 178C287.663 177.733 287.834 177.317 287.834 176.752C287.834 176.187 287.658 175.765 287.306 175.488C286.965 175.211 286.426 175.072 285.69 175.072H282.81V178.4H285.69ZM295.908 172.016C296.185 171.995 296.404 172.053 296.564 172.192C296.724 172.331 296.804 172.539 296.804 172.816C296.804 173.104 296.735 173.317 296.596 173.456C296.457 173.595 296.207 173.685 295.844 173.728L295.364 173.776C294.735 173.84 294.271 174.053 293.972 174.416C293.684 174.779 293.54 175.232 293.54 175.776V179.136C293.54 179.445 293.444 179.685 293.252 179.856C293.06 180.016 292.82 180.096 292.532 180.096C292.244 180.096 292.004 180.016 291.812 179.856C291.631 179.685 291.54 179.445 291.54 179.136V172.944C291.54 172.645 291.631 172.416 291.812 172.256C292.004 172.096 292.239 172.016 292.516 172.016C292.793 172.016 293.017 172.096 293.188 172.256C293.359 172.405 293.444 172.624 293.444 172.912V173.552C293.647 173.083 293.945 172.72 294.34 172.464C294.745 172.208 295.193 172.064 295.684 172.032L295.908 172.016ZM301.077 180.128C300.277 180.128 299.573 179.963 298.965 179.632C298.367 179.301 297.903 178.827 297.573 178.208C297.242 177.589 297.077 176.869 297.077 176.048C297.077 175.227 297.242 174.512 297.573 173.904C297.903 173.285 298.367 172.811 298.965 172.48C299.573 172.149 300.277 171.984 301.077 171.984C301.877 171.984 302.575 172.149 303.173 172.48C303.781 172.811 304.245 173.285 304.565 173.904C304.895 174.512 305.061 175.227 305.061 176.048C305.061 176.869 304.895 177.589 304.565 178.208C304.245 178.827 303.781 179.301 303.173 179.632C302.575 179.963 301.877 180.128 301.077 180.128ZM301.061 178.576C301.711 178.576 302.207 178.363 302.549 177.936C302.89 177.509 303.061 176.88 303.061 176.048C303.061 175.227 302.89 174.603 302.549 174.176C302.207 173.739 301.717 173.52 301.077 173.52C300.437 173.52 299.941 173.739 299.589 174.176C299.247 174.603 299.077 175.227 299.077 176.048C299.077 176.88 299.247 177.509 299.589 177.936C299.93 178.363 300.421 178.576 301.061 178.576ZM310.28 180.128C309.48 180.128 308.776 179.963 308.168 179.632C307.571 179.301 307.107 178.827 306.776 178.208C306.445 177.589 306.28 176.869 306.28 176.048C306.28 175.227 306.445 174.512 306.776 173.904C307.107 173.285 307.571 172.811 308.168 172.48C308.776 172.149 309.48 171.984 310.28 171.984C311.08 171.984 311.779 172.149 312.376 172.48C312.984 172.811 313.448 173.285 313.768 173.904C314.099 174.512 314.264 175.227 314.264 176.048C314.264 176.869 314.099 177.589 313.768 178.208C313.448 178.827 312.984 179.301 312.376 179.632C311.779 179.963 311.08 180.128 310.28 180.128ZM310.264 178.576C310.915 178.576 311.411 178.363 311.752 177.936C312.093 177.509 312.264 176.88 312.264 176.048C312.264 175.227 312.093 174.603 311.752 174.176C311.411 173.739 310.92 173.52 310.28 173.52C309.64 173.52 309.144 173.739 308.792 174.176C308.451 174.603 308.28 175.227 308.28 176.048C308.28 176.88 308.451 177.509 308.792 177.936C309.133 178.363 309.624 178.576 310.264 178.576ZM322.875 178.448C323.088 178.651 323.195 178.88 323.195 179.136C323.195 179.381 323.104 179.6 322.923 179.792C322.752 179.984 322.55 180.08 322.315 180.08C322.08 180.08 321.862 179.984 321.659 179.792L317.915 176.4V179.136C317.915 179.445 317.819 179.68 317.627 179.84C317.435 180 317.195 180.08 316.907 180.08C316.619 180.08 316.379 180 316.187 179.84C316.006 179.68 315.915 179.445 315.915 179.136V169.584C315.915 169.275 316.006 169.04 316.187 168.88C316.379 168.72 316.619 168.64 316.907 168.64C317.195 168.64 317.435 168.72 317.627 168.88C317.819 169.04 317.915 169.275 317.915 169.584V175.6L321.339 172.32C321.531 172.128 321.75 172.032 321.995 172.032C322.24 172.032 322.454 172.123 322.635 172.304C322.816 172.485 322.907 172.699 322.907 172.944C322.907 173.189 322.806 173.413 322.603 173.616L320.091 175.952L322.875 178.448ZM327.216 180.128C326.053 180.128 325.114 179.899 324.4 179.44C324.058 179.237 323.888 178.949 323.888 178.576C323.888 178.363 323.946 178.192 324.064 178.064C324.181 177.925 324.325 177.856 324.496 177.856C324.677 177.856 324.928 177.941 325.248 178.112C325.589 178.272 325.898 178.395 326.176 178.48C326.464 178.565 326.826 178.608 327.264 178.608C327.712 178.608 328.058 178.533 328.304 178.384C328.56 178.235 328.688 178.027 328.688 177.76C328.688 177.579 328.634 177.435 328.528 177.328C328.432 177.221 328.25 177.125 327.984 177.04C327.728 176.944 327.333 176.837 326.8 176.72C325.85 176.528 325.168 176.256 324.752 175.904C324.346 175.552 324.144 175.067 324.144 174.448C324.144 173.979 324.282 173.557 324.56 173.184C324.837 172.8 325.216 172.507 325.696 172.304C326.186 172.091 326.741 171.984 327.36 171.984C327.808 171.984 328.24 172.043 328.656 172.16C329.072 172.267 329.445 172.427 329.776 172.64C330.117 172.853 330.288 173.136 330.288 173.488C330.288 173.701 330.229 173.883 330.112 174.032C329.994 174.171 329.85 174.24 329.68 174.24C329.562 174.24 329.445 174.219 329.328 174.176C329.221 174.123 329.082 174.048 328.912 173.952C328.602 173.792 328.336 173.675 328.112 173.6C327.888 173.515 327.61 173.472 327.28 173.472C326.885 173.472 326.57 173.552 326.336 173.712C326.112 173.872 326 174.091 326 174.368C326 174.635 326.117 174.837 326.352 174.976C326.586 175.115 327.04 175.253 327.712 175.392C328.426 175.541 328.986 175.712 329.392 175.904C329.797 176.096 330.085 176.336 330.256 176.624C330.437 176.912 330.528 177.28 330.528 177.728C330.528 178.453 330.224 179.035 329.616 179.472C329.018 179.909 328.218 180.128 327.216 180.128Z" fill="#234CAD"/>
</g>
</g>
<defs>
<filter id="filter0_f_8786_303" x="0.085907" y="0.085907" width="621.828" height="371.828" filterUnits="userSpaceOnUse" color-interpolation-filters="sRGB">
<feFlood flood-opacity="0" result="BackgroundImageFix"/>
<feBlend mode="normal" in="SourceGraphic" in2="BackgroundImageFix" result="shape"/>
<feGaussianBlur stdDeviation="67.957" result="effect1_foregroundBlur_8786_303"/>
</filter>
<linearGradient id="paint0_linear_8786_303" x1="401.05" y1="272.598" x2="433.39" y2="108.231" gradientUnits="userSpaceOnUse">
<stop stop-color="#234CAD"/>
<stop offset="1" stop-color="#234CAD" stop-opacity="0.5"/>
</linearGradient>
<clipPath id="clip0_8786_303">
<rect width="60" height="60" fill="white" transform="translate(156 156)"/>
</clipPath>
<clipPath id="clip1_8786_303">
<rect width="16" height="16" fill="white" transform="translate(200 156)"/>
</clipPath>
<clipPath id="clip2_8786_303">
<rect width="230" height="45" fill="white" transform="translate(236 164)"/>
</clipPath>
<clipPath id="clip3_8786_303">
<rect width="156" height="45" fill="white" transform="translate(236 164)"/>
</clipPath>
</defs>
</svg>
