<svg width="402" height="432" viewBox="0 0 402 432" fill="none" xmlns="http://www.w3.org/2000/svg">
<g opacity="0.05" filter="url(#filter0_f_8786_273)">
<rect x="136" y="136" width="130" height="160" rx="25" fill="url(#paint0_linear_8786_273)"/>
</g>
<rect x="136" y="136" width="130" height="160" rx="25" fill="white"/>
<path d="M174.212 264.31C174.332 264.31 174.425 264.34 174.492 264.4C174.558 264.46 174.592 264.543 174.592 264.65C174.592 264.763 174.558 264.85 174.492 264.91C174.432 264.97 174.338 265 174.212 265H170.902C170.775 265 170.678 264.97 170.612 264.91C170.552 264.85 170.522 264.763 170.522 264.65C170.522 264.543 170.555 264.46 170.622 264.4C170.688 264.34 170.782 264.31 170.902 264.31H172.142V258.95L171.052 259.66C170.998 259.693 170.945 259.71 170.892 259.71C170.798 259.71 170.715 259.667 170.642 259.58C170.575 259.493 170.542 259.4 170.542 259.3C170.542 259.16 170.595 259.06 170.702 259L172.222 258.01C172.335 257.937 172.452 257.9 172.572 257.9C172.685 257.9 172.778 257.937 172.852 258.01C172.925 258.083 172.962 258.187 172.962 258.32V264.31H174.212ZM176.418 263.92C176.584 263.92 176.718 263.987 176.818 264.12C176.924 264.247 176.978 264.44 176.978 264.7C176.978 265.227 176.808 265.67 176.468 266.03C176.401 266.103 176.324 266.14 176.238 266.14C176.171 266.14 176.111 266.113 176.058 266.06C176.004 266.013 175.978 265.957 175.978 265.89C175.978 265.817 176.004 265.753 176.058 265.7C176.231 265.52 176.341 265.297 176.388 265.03C176.241 265.017 176.118 264.963 176.018 264.87C175.924 264.77 175.878 264.643 175.878 264.49C175.878 264.323 175.928 264.187 176.028 264.08C176.134 263.973 176.264 263.92 176.418 263.92ZM182.603 257.95C182.723 257.95 182.813 257.983 182.873 258.05C182.94 258.11 182.973 258.19 182.973 258.29C182.973 258.383 182.943 258.487 182.883 258.6L179.563 264.85C179.483 264.997 179.366 265.07 179.213 265.07C179.106 265.07 179.01 265.033 178.923 264.96C178.843 264.887 178.803 264.797 178.803 264.69C178.803 264.617 178.826 264.543 178.873 264.47L181.993 258.64H178.543C178.423 258.64 178.33 258.61 178.263 258.55C178.203 258.49 178.173 258.407 178.173 258.3C178.173 258.187 178.203 258.1 178.263 258.04C178.33 257.98 178.423 257.95 178.543 257.95H182.603ZM187.509 261.38C187.936 261.5 188.259 261.707 188.479 262C188.706 262.293 188.819 262.657 188.819 263.09C188.819 263.703 188.612 264.187 188.199 264.54C187.786 264.893 187.222 265.07 186.509 265.07C186.076 265.07 185.659 264.997 185.259 264.85C184.866 264.703 184.532 264.503 184.259 264.25C184.152 264.15 184.099 264.037 184.099 263.91C184.099 263.81 184.126 263.727 184.179 263.66C184.232 263.593 184.296 263.56 184.369 263.56C184.462 263.56 184.556 263.597 184.649 263.67C184.956 263.917 185.256 264.097 185.549 264.21C185.842 264.323 186.159 264.38 186.499 264.38C186.992 264.38 187.366 264.267 187.619 264.04C187.879 263.813 188.009 263.487 188.009 263.06C188.009 262.2 187.469 261.77 186.389 261.77H185.859C185.752 261.77 185.666 261.737 185.599 261.67C185.539 261.597 185.509 261.513 185.509 261.42C185.509 261.327 185.539 261.247 185.599 261.18C185.666 261.113 185.752 261.08 185.859 261.08H186.229C186.749 261.08 187.149 260.967 187.429 260.74C187.709 260.507 187.849 260.173 187.849 259.74C187.849 259.36 187.736 259.07 187.509 258.87C187.282 258.663 186.962 258.56 186.549 258.56C186.236 258.56 185.932 258.62 185.639 258.74C185.346 258.853 185.052 259.03 184.759 259.27C184.666 259.343 184.572 259.38 184.479 259.38C184.406 259.38 184.342 259.347 184.289 259.28C184.236 259.213 184.209 259.13 184.209 259.03C184.209 258.903 184.262 258.79 184.369 258.69C184.642 258.437 184.972 258.237 185.359 258.09C185.752 257.943 186.156 257.87 186.569 257.87C187.209 257.87 187.719 258.033 188.099 258.36C188.479 258.687 188.666 259.127 188.659 259.68C188.652 260.08 188.546 260.43 188.339 260.73C188.139 261.03 187.862 261.247 187.509 261.38ZM190.125 265.36C190.098 265.447 190.055 265.513 189.995 265.56C189.935 265.607 189.868 265.63 189.795 265.63C189.702 265.63 189.618 265.597 189.545 265.53C189.472 265.463 189.435 265.38 189.435 265.28C189.435 265.24 189.445 265.193 189.465 265.14L191.825 257.76C191.852 257.673 191.895 257.607 191.955 257.56C192.015 257.513 192.082 257.49 192.155 257.49C192.248 257.49 192.332 257.523 192.405 257.59C192.478 257.657 192.515 257.743 192.515 257.85C192.515 257.87 192.508 257.913 192.495 257.98L190.125 265.36ZM200.055 264.31C200.175 264.31 200.269 264.34 200.335 264.4C200.402 264.46 200.435 264.543 200.435 264.65C200.435 264.883 200.309 265 200.055 265H196.135C196.022 265 195.929 264.967 195.855 264.9C195.782 264.827 195.745 264.74 195.745 264.64C195.745 264.513 195.792 264.403 195.885 264.31L198.295 261.66C198.629 261.287 198.869 260.953 199.015 260.66C199.169 260.36 199.245 260.06 199.245 259.76C199.245 259.373 199.132 259.077 198.905 258.87C198.685 258.663 198.372 258.56 197.965 258.56C197.645 258.56 197.339 258.62 197.045 258.74C196.752 258.853 196.459 259.03 196.165 259.27C196.065 259.35 195.972 259.39 195.885 259.39C195.812 259.39 195.749 259.357 195.695 259.29C195.642 259.217 195.615 259.13 195.615 259.03C195.615 258.89 195.669 258.777 195.775 258.69C196.049 258.437 196.382 258.237 196.775 258.09C197.169 257.943 197.572 257.87 197.985 257.87C198.619 257.87 199.122 258.037 199.495 258.37C199.875 258.703 200.065 259.153 200.065 259.72C200.065 260.127 199.972 260.517 199.785 260.89C199.605 261.263 199.305 261.68 198.885 262.14L196.885 264.31H200.055ZM202.121 265.05C201.961 265.05 201.828 265 201.721 264.9C201.615 264.793 201.561 264.657 201.561 264.49C201.561 264.323 201.615 264.187 201.721 264.08C201.828 263.973 201.961 263.92 202.121 263.92C202.275 263.92 202.401 263.973 202.501 264.08C202.608 264.187 202.661 264.323 202.661 264.49C202.661 264.657 202.608 264.793 202.501 264.9C202.401 265 202.275 265.05 202.121 265.05ZM206.256 265.08C205.45 265.08 204.836 264.773 204.416 264.16C203.996 263.547 203.786 262.653 203.786 261.48C203.786 260.3 203.996 259.403 204.416 258.79C204.836 258.177 205.45 257.87 206.256 257.87C207.063 257.87 207.676 258.177 208.096 258.79C208.516 259.397 208.726 260.29 208.726 261.47C208.726 262.65 208.516 263.547 208.096 264.16C207.676 264.773 207.063 265.08 206.256 265.08ZM206.256 264.39C206.816 264.39 207.23 264.153 207.496 263.68C207.763 263.207 207.896 262.47 207.896 261.47C207.896 260.463 207.763 259.727 207.496 259.26C207.236 258.793 206.823 258.56 206.256 258.56C205.696 258.56 205.283 258.797 205.016 259.27C204.75 259.737 204.616 260.47 204.616 261.47C204.616 262.47 204.75 263.207 205.016 263.68C205.283 264.153 205.696 264.39 206.256 264.39ZM212.033 257.87C212.886 257.87 213.543 258.167 214.003 258.76C214.469 259.353 214.703 260.2 214.703 261.3C214.703 262.087 214.596 262.763 214.383 263.33C214.169 263.897 213.859 264.33 213.453 264.63C213.046 264.93 212.563 265.08 212.003 265.08C211.623 265.08 211.243 265.007 210.863 264.86C210.489 264.713 210.169 264.513 209.903 264.26C209.789 264.153 209.733 264.04 209.733 263.92C209.733 263.82 209.759 263.737 209.813 263.67C209.866 263.603 209.929 263.57 210.003 263.57C210.096 263.57 210.193 263.607 210.293 263.68C210.873 264.153 211.436 264.39 211.983 264.39C212.576 264.39 213.039 264.12 213.373 263.58C213.706 263.04 213.873 262.283 213.873 261.31V261.18C213.719 261.553 213.469 261.847 213.123 262.06C212.783 262.273 212.396 262.38 211.963 262.38C211.536 262.38 211.156 262.287 210.823 262.1C210.489 261.913 210.229 261.65 210.043 261.31C209.856 260.97 209.763 260.58 209.763 260.14C209.763 259.707 209.859 259.317 210.053 258.97C210.246 258.623 210.516 258.353 210.863 258.16C211.209 257.967 211.599 257.87 212.033 257.87ZM212.083 261.69C212.543 261.69 212.916 261.547 213.203 261.26C213.496 260.967 213.643 260.59 213.643 260.13C213.643 259.663 213.496 259.287 213.203 259C212.916 258.707 212.539 258.56 212.073 258.56C211.619 258.56 211.256 258.703 210.983 258.99C210.709 259.277 210.573 259.657 210.573 260.13C210.573 260.603 210.709 260.983 210.983 261.27C211.263 261.55 211.629 261.69 212.083 261.69ZM223.937 261.33C224.037 261.33 224.117 261.36 224.177 261.42C224.243 261.48 224.277 261.563 224.277 261.67V264.16C224.277 264.32 224.25 264.44 224.197 264.52C224.15 264.6 224.06 264.663 223.927 264.71C223.66 264.823 223.337 264.913 222.957 264.98C222.577 265.047 222.197 265.08 221.817 265.08C221.117 265.08 220.513 264.937 220.007 264.65C219.5 264.363 219.11 263.95 218.837 263.41C218.57 262.87 218.437 262.223 218.437 261.47C218.437 260.73 218.57 260.09 218.837 259.55C219.103 259.01 219.487 258.597 219.987 258.31C220.487 258.017 221.073 257.87 221.747 257.87C222.213 257.87 222.647 257.943 223.047 258.09C223.447 258.23 223.783 258.433 224.057 258.7C224.17 258.813 224.227 258.93 224.227 259.05C224.227 259.143 224.2 259.227 224.147 259.3C224.093 259.367 224.027 259.4 223.947 259.4C223.867 259.4 223.773 259.36 223.667 259.28C223.32 259.013 223.007 258.83 222.727 258.73C222.447 258.623 222.123 258.57 221.757 258.57C220.963 258.57 220.353 258.82 219.927 259.32C219.507 259.82 219.297 260.537 219.297 261.47C219.297 262.423 219.51 263.15 219.937 263.65C220.37 264.143 221.003 264.39 221.837 264.39C222.457 264.39 223.02 264.297 223.527 264.11V261.97H222.067C221.953 261.97 221.863 261.94 221.797 261.88C221.73 261.82 221.697 261.743 221.697 261.65C221.697 261.55 221.73 261.473 221.797 261.42C221.863 261.36 221.953 261.33 222.067 261.33H223.937ZM229.933 261.38C230.34 261.487 230.653 261.687 230.873 261.98C231.1 262.273 231.213 262.64 231.213 263.08C231.213 263.7 231.01 264.177 230.603 264.51C230.196 264.837 229.62 265 228.873 265H226.353C226.226 265 226.123 264.963 226.043 264.89C225.97 264.817 225.933 264.72 225.933 264.6V258.35C225.933 258.23 225.97 258.133 226.043 258.06C226.123 257.987 226.226 257.95 226.353 257.95H228.763C229.49 257.95 230.053 258.11 230.453 258.43C230.853 258.75 231.053 259.203 231.053 259.79C231.053 260.17 230.953 260.497 230.753 260.77C230.56 261.043 230.286 261.247 229.933 261.38ZM226.743 261.08H228.643C229.17 261.08 229.566 260.973 229.833 260.76C230.106 260.547 230.243 260.237 230.243 259.83C230.243 259.03 229.71 258.63 228.643 258.63H226.743V261.08ZM228.793 264.32C229.346 264.32 229.753 264.22 230.013 264.02C230.28 263.813 230.413 263.493 230.413 263.06C230.413 262.193 229.873 261.76 228.793 261.76H226.743V264.32H228.793Z" fill="#234CAD"/>
<circle cx="201" cy="200" r="25" fill="#F2F6FF"/>
<path d="M196.227 207.316C196.78 207.316 197.227 206.868 197.227 206.316C197.227 205.764 196.78 205.316 196.227 205.316V207.316ZM195.545 198.263V199.263H196.545V198.263H195.545ZM206.455 198.263H205.455V199.263H206.455V198.263ZM205.773 205.316C205.22 205.316 204.773 205.764 204.773 206.316C204.773 206.868 205.22 207.316 205.773 207.316V205.316ZM200 209C200 209.552 200.448 210 201 210C201.552 210 202 209.552 202 209H200ZM202 200.947C202 200.395 201.552 199.947 201 199.947C200.448 199.947 200 200.395 200 200.947H202ZM201.701 201.66C202.095 201.273 202.1 200.64 201.713 200.246C201.325 199.852 200.692 199.847 200.299 200.235L201.701 201.66ZM197.571 202.919C197.178 203.306 197.173 203.939 197.56 204.333C197.947 204.727 198.581 204.732 198.974 204.344L197.571 202.919ZM201.701 200.235C201.308 199.847 200.675 199.852 200.287 200.246C199.9 200.64 199.905 201.273 200.299 201.66L201.701 200.235ZM203.026 204.344C203.419 204.732 204.053 204.727 204.44 204.333C204.827 203.939 204.822 203.306 204.429 202.919L203.026 204.344ZM196.227 205.316H195.091V207.316H196.227V205.316ZM195.091 205.316C193.369 205.316 192 203.946 192 202.289H190C190 205.08 192.294 207.316 195.091 207.316V205.316ZM192 202.289C192 200.633 193.369 199.263 195.091 199.263V197.263C192.294 197.263 190 199.499 190 202.289H192ZM195.091 199.263H195.545V197.263H195.091V199.263ZM196.545 198.263V197.368H194.545V198.263H196.545ZM196.545 197.368C196.545 194.971 198.525 193 201 193V191C197.45 191 194.545 193.836 194.545 197.368H196.545ZM201 193C203.475 193 205.455 194.971 205.455 197.368H207.455C207.455 193.836 204.55 191 201 191V193ZM205.455 197.368V198.263H207.455V197.368H205.455ZM206.455 199.263H206.909V197.263H206.455V199.263ZM206.909 199.263C208.631 199.263 210 200.633 210 202.289H212C212 199.499 209.706 197.263 206.909 197.263V199.263ZM210 202.289C210 203.946 208.631 205.316 206.909 205.316V207.316C209.706 207.316 212 205.08 212 202.289H210ZM206.909 205.316H205.773V207.316H206.909V205.316ZM202 209V200.947H200V209H202ZM200.299 200.235L197.571 202.919L198.974 204.344L201.701 201.66L200.299 200.235ZM200.299 201.66L203.026 204.344L204.429 202.919L201.701 200.235L200.299 201.66Z" fill="#234CAD"/>
<path d="M166 200C166 219.33 181.67 235 201 235C220.33 235 236 219.33 236 200C236 180.67 220.33 165 201 165" stroke="#234CAD" stroke-width="2" stroke-linecap="round" stroke-linejoin="round"/>
<defs>
<filter id="filter0_f_8786_273" x="0.085907" y="0.085907" width="401.828" height="431.828" filterUnits="userSpaceOnUse" color-interpolation-filters="sRGB">
<feFlood flood-opacity="0" result="BackgroundImageFix"/>
<feBlend mode="normal" in="SourceGraphic" in2="BackgroundImageFix" result="shape"/>
<feGaussianBlur stdDeviation="67.957" result="effect1_foregroundBlur_8786_273"/>
</filter>
<linearGradient id="paint0_linear_8786_273" x1="234.447" y1="354.556" x2="369.184" y2="195.587" gradientUnits="userSpaceOnUse">
<stop stop-color="#234CAD"/>
<stop offset="1" stop-color="#234CAD" stop-opacity="0.5"/>
</linearGradient>
</defs>
</svg>
