<svg width="501" height="372" viewBox="0 0 501 372" fill="none" xmlns="http://www.w3.org/2000/svg">
<g opacity="0.1" filter="url(#filter0_f_8786_194)">
<rect x="136" y="136" width="350" height="100" rx="25" fill="url(#paint0_linear_8786_194)"/>
</g>
<rect x="136" y="136" width="350" height="100" rx="25" fill="white"/>
<g clip-path="url(#clip0_8786_194)">
<path d="M242.336 193.672C242.432 193.552 242.548 193.492 242.684 193.492C242.796 193.492 242.896 193.536 242.984 193.624C243.072 193.712 243.116 193.82 243.116 193.948C243.116 194.068 243.08 194.168 243.008 194.248L240.092 197.932V201.556C240.092 201.716 240.044 201.84 239.948 201.928C239.86 202.016 239.744 202.06 239.6 202.06C239.456 202.06 239.336 202.016 239.24 201.928C239.152 201.84 239.108 201.716 239.108 201.556V197.92L236.192 194.248C236.112 194.16 236.072 194.06 236.072 193.948C236.072 193.82 236.116 193.712 236.204 193.624C236.3 193.536 236.408 193.492 236.528 193.492C236.664 193.492 236.78 193.552 236.876 193.672L239.612 197.164L242.336 193.672ZM245.617 202.084C245.065 202.084 244.577 201.96 244.153 201.712C243.737 201.464 243.413 201.112 243.181 200.656C242.957 200.192 242.845 199.656 242.845 199.048C242.845 198.44 242.957 197.908 243.181 197.452C243.413 196.988 243.737 196.632 244.153 196.384C244.577 196.136 245.065 196.012 245.617 196.012C246.169 196.012 246.657 196.136 247.081 196.384C247.505 196.632 247.829 196.988 248.053 197.452C248.285 197.908 248.401 198.44 248.401 199.048C248.401 199.656 248.285 200.192 248.053 200.656C247.829 201.112 247.505 201.464 247.081 201.712C246.657 201.96 246.169 202.084 245.617 202.084ZM245.617 201.28C246.193 201.28 246.633 201.092 246.937 200.716C247.249 200.332 247.405 199.776 247.405 199.048C247.405 198.336 247.249 197.788 246.937 197.404C246.625 197.012 246.185 196.816 245.617 196.816C245.049 196.816 244.609 197.012 244.297 197.404C243.985 197.788 243.829 198.336 243.829 199.048C243.829 199.768 243.981 200.32 244.285 200.704C244.597 201.088 245.041 201.28 245.617 201.28ZM254.289 196.036C254.441 196.036 254.557 196.08 254.637 196.168C254.725 196.256 254.769 196.372 254.769 196.516V201.592C254.769 201.728 254.725 201.84 254.637 201.928C254.557 202.016 254.441 202.06 254.289 202.06C254.145 202.06 254.029 202.02 253.941 201.94C253.861 201.852 253.821 201.74 253.821 201.604V201.004C253.637 201.356 253.377 201.624 253.041 201.808C252.713 201.992 252.341 202.084 251.925 202.084C251.229 202.084 250.705 201.892 250.353 201.508C250.001 201.116 249.825 200.54 249.825 199.78V196.516C249.825 196.372 249.869 196.256 249.957 196.168C250.045 196.08 250.165 196.036 250.317 196.036C250.469 196.036 250.585 196.08 250.665 196.168C250.753 196.256 250.797 196.372 250.797 196.516V199.756C250.797 200.276 250.901 200.66 251.109 200.908C251.317 201.148 251.645 201.268 252.093 201.268C252.605 201.268 253.017 201.104 253.329 200.776C253.641 200.44 253.797 200 253.797 199.456V196.516C253.797 196.372 253.841 196.256 253.929 196.168C254.017 196.08 254.137 196.036 254.289 196.036ZM262.622 196.012C263.31 196.012 263.83 196.208 264.182 196.6C264.534 196.984 264.71 197.56 264.71 198.328V201.58C264.71 201.732 264.666 201.852 264.578 201.94C264.49 202.02 264.374 202.06 264.23 202.06C264.078 202.06 263.958 202.02 263.87 201.94C263.782 201.852 263.738 201.732 263.738 201.58V198.352C263.738 197.832 263.63 197.448 263.414 197.2C263.206 196.952 262.87 196.828 262.406 196.828C261.87 196.828 261.442 196.992 261.122 197.32C260.802 197.648 260.642 198.092 260.642 198.652V201.58C260.642 201.732 260.598 201.852 260.51 201.94C260.43 202.02 260.314 202.06 260.162 202.06C260.01 202.06 259.89 202.02 259.802 201.94C259.714 201.852 259.67 201.732 259.67 201.58V193.948C259.67 193.812 259.714 193.7 259.802 193.612C259.898 193.524 260.018 193.48 260.162 193.48C260.314 193.48 260.43 193.524 260.51 193.612C260.598 193.692 260.642 193.804 260.642 193.948V197.092C260.834 196.74 261.102 196.472 261.446 196.288C261.79 196.104 262.182 196.012 262.622 196.012ZM268.878 196.012C270.342 196.012 271.074 196.78 271.074 198.316V201.58C271.074 201.724 271.03 201.84 270.942 201.928C270.862 202.016 270.75 202.06 270.606 202.06C270.462 202.06 270.346 202.016 270.258 201.928C270.17 201.84 270.126 201.724 270.126 201.58V201.004C269.974 201.348 269.742 201.616 269.43 201.808C269.118 201.992 268.758 202.084 268.35 202.084C267.974 202.084 267.626 202.008 267.306 201.856C266.994 201.704 266.746 201.492 266.562 201.22C266.378 200.948 266.286 200.648 266.286 200.32C266.286 199.88 266.398 199.54 266.622 199.3C266.846 199.052 267.214 198.876 267.726 198.772C268.238 198.66 268.95 198.604 269.862 198.604H270.126V198.208C270.126 197.728 270.026 197.376 269.826 197.152C269.634 196.928 269.318 196.816 268.878 196.816C268.334 196.816 267.782 196.964 267.222 197.26C267.006 197.396 266.854 197.464 266.766 197.464C266.67 197.464 266.59 197.428 266.526 197.356C266.462 197.284 266.43 197.192 266.43 197.08C266.43 196.968 266.462 196.872 266.526 196.792C266.598 196.704 266.71 196.616 266.862 196.528C267.142 196.368 267.458 196.244 267.81 196.156C268.17 196.06 268.526 196.012 268.878 196.012ZM268.482 201.316C268.962 201.316 269.354 201.156 269.658 200.836C269.97 200.508 270.126 200.088 270.126 199.576V199.228H269.91C269.206 199.228 268.67 199.26 268.302 199.324C267.934 199.38 267.67 199.48 267.51 199.624C267.358 199.76 267.282 199.964 267.282 200.236C267.282 200.548 267.394 200.808 267.618 201.016C267.85 201.216 268.138 201.316 268.482 201.316ZM277.065 196.336C277.153 196.144 277.293 196.048 277.485 196.048C277.605 196.048 277.713 196.088 277.809 196.168C277.905 196.248 277.953 196.348 277.953 196.468C277.953 196.54 277.937 196.604 277.905 196.66L275.565 201.7C275.517 201.804 275.445 201.888 275.349 201.952C275.253 202.008 275.149 202.036 275.037 202.036C274.933 202.036 274.833 202.008 274.737 201.952C274.641 201.888 274.565 201.804 274.509 201.7L272.181 196.66C272.149 196.604 272.133 196.544 272.133 196.48C272.133 196.36 272.185 196.256 272.289 196.168C272.401 196.08 272.521 196.036 272.649 196.036C272.729 196.036 272.805 196.06 272.877 196.108C272.957 196.156 273.017 196.224 273.057 196.312L275.061 200.812L277.065 196.336ZM283.471 200.644C283.559 200.644 283.635 200.68 283.699 200.752C283.763 200.824 283.795 200.916 283.795 201.028C283.795 201.228 283.655 201.412 283.375 201.58C283.087 201.748 282.783 201.876 282.463 201.964C282.143 202.044 281.831 202.084 281.527 202.084C280.623 202.084 279.907 201.816 279.379 201.28C278.859 200.744 278.599 200.004 278.599 199.06C278.599 198.46 278.715 197.932 278.947 197.476C279.179 197.012 279.503 196.652 279.919 196.396C280.343 196.14 280.823 196.012 281.359 196.012C282.119 196.012 282.723 196.26 283.171 196.756C283.619 197.252 283.843 197.924 283.843 198.772C283.843 198.932 283.811 199.048 283.747 199.12C283.683 199.192 283.579 199.228 283.435 199.228H279.571C279.643 200.604 280.295 201.292 281.527 201.292C281.839 201.292 282.107 201.252 282.331 201.172C282.555 201.084 282.795 200.968 283.051 200.824C283.259 200.704 283.399 200.644 283.471 200.644ZM281.371 196.768C280.859 196.768 280.447 196.928 280.135 197.248C279.831 197.568 279.651 198.02 279.595 198.604H282.991C282.975 198.012 282.827 197.56 282.547 197.248C282.267 196.928 281.875 196.768 281.371 196.768ZM290.337 202.084C289.969 202.084 289.617 202.04 289.281 201.952C288.953 201.864 288.661 201.74 288.405 201.58C288.261 201.484 288.157 201.396 288.093 201.316C288.037 201.228 288.009 201.124 288.009 201.004C288.009 200.9 288.037 200.816 288.093 200.752C288.157 200.68 288.237 200.644 288.333 200.644C288.429 200.644 288.569 200.704 288.753 200.824C288.993 200.968 289.229 201.084 289.461 201.172C289.701 201.252 289.997 201.292 290.349 201.292C290.781 201.292 291.117 201.216 291.357 201.064C291.597 200.912 291.717 200.692 291.717 200.404C291.717 200.228 291.673 200.088 291.585 199.984C291.497 199.872 291.345 199.776 291.129 199.696C290.913 199.608 290.597 199.52 290.181 199.432C289.477 199.28 288.973 199.076 288.669 198.82C288.365 198.564 288.213 198.216 288.213 197.776C288.213 197.432 288.309 197.128 288.501 196.864C288.693 196.6 288.957 196.392 289.293 196.24C289.637 196.088 290.025 196.012 290.457 196.012C290.769 196.012 291.069 196.056 291.357 196.144C291.653 196.224 291.913 196.34 292.137 196.492C292.409 196.684 292.545 196.884 292.545 197.092C292.545 197.196 292.513 197.284 292.449 197.356C292.385 197.428 292.309 197.464 292.221 197.464C292.125 197.464 291.981 197.396 291.789 197.26C291.565 197.116 291.353 197.004 291.153 196.924C290.953 196.844 290.705 196.804 290.409 196.804C290.033 196.804 289.729 196.888 289.497 197.056C289.273 197.224 289.161 197.448 289.161 197.728C289.161 197.904 289.201 198.048 289.281 198.16C289.369 198.264 289.509 198.36 289.701 198.448C289.901 198.528 290.185 198.608 290.553 198.688C291.097 198.808 291.517 198.94 291.813 199.084C292.117 199.228 292.333 199.404 292.461 199.612C292.589 199.82 292.653 200.084 292.653 200.404C292.653 200.908 292.441 201.316 292.017 201.628C291.593 201.932 291.033 202.084 290.337 202.084ZM298.574 196.036C298.726 196.036 298.842 196.08 298.922 196.168C299.01 196.256 299.054 196.372 299.054 196.516V201.592C299.054 201.728 299.01 201.84 298.922 201.928C298.842 202.016 298.726 202.06 298.574 202.06C298.43 202.06 298.314 202.02 298.226 201.94C298.146 201.852 298.106 201.74 298.106 201.604V201.004C297.922 201.356 297.662 201.624 297.326 201.808C296.998 201.992 296.626 202.084 296.21 202.084C295.514 202.084 294.99 201.892 294.638 201.508C294.286 201.116 294.11 200.54 294.11 199.78V196.516C294.11 196.372 294.154 196.256 294.242 196.168C294.33 196.08 294.45 196.036 294.602 196.036C294.754 196.036 294.87 196.08 294.95 196.168C295.038 196.256 295.082 196.372 295.082 196.516V199.756C295.082 200.276 295.186 200.66 295.394 200.908C295.602 201.148 295.93 201.268 296.378 201.268C296.89 201.268 297.302 201.104 297.614 200.776C297.926 200.44 298.082 200 298.082 199.456V196.516C298.082 196.372 298.126 196.256 298.214 196.168C298.302 196.08 298.422 196.036 298.574 196.036ZM303.273 202.084C302.729 202.084 302.245 201.96 301.821 201.712C301.405 201.464 301.081 201.112 300.849 200.656C300.625 200.2 300.513 199.672 300.513 199.072C300.513 198.472 300.629 197.94 300.861 197.476C301.101 197.012 301.433 196.652 301.857 196.396C302.281 196.14 302.769 196.012 303.321 196.012C303.625 196.012 303.925 196.056 304.221 196.144C304.525 196.224 304.789 196.344 305.013 196.504C305.157 196.6 305.257 196.696 305.313 196.792C305.377 196.88 305.409 196.98 305.409 197.092C305.409 197.204 305.377 197.296 305.313 197.368C305.257 197.44 305.181 197.476 305.085 197.476C305.029 197.476 304.969 197.46 304.905 197.428C304.841 197.396 304.785 197.364 304.737 197.332C304.697 197.3 304.669 197.28 304.653 197.272C304.445 197.136 304.245 197.028 304.053 196.948C303.869 196.868 303.641 196.828 303.369 196.828C302.785 196.828 302.329 197.028 302.001 197.428C301.681 197.82 301.521 198.368 301.521 199.072C301.521 199.776 301.681 200.32 302.001 200.704C302.329 201.088 302.785 201.28 303.369 201.28C303.641 201.28 303.873 201.24 304.065 201.16C304.265 201.08 304.465 200.972 304.665 200.836C304.753 200.78 304.837 200.732 304.917 200.692C304.997 200.652 305.065 200.632 305.121 200.632C305.209 200.632 305.281 200.668 305.337 200.74C305.401 200.812 305.433 200.904 305.433 201.016C305.433 201.12 305.405 201.216 305.349 201.304C305.293 201.384 305.189 201.476 305.037 201.58C304.813 201.732 304.541 201.856 304.221 201.952C303.909 202.04 303.593 202.084 303.273 202.084ZM309.015 202.084C308.471 202.084 307.987 201.96 307.563 201.712C307.147 201.464 306.823 201.112 306.591 200.656C306.367 200.2 306.255 199.672 306.255 199.072C306.255 198.472 306.371 197.94 306.603 197.476C306.843 197.012 307.175 196.652 307.599 196.396C308.023 196.14 308.511 196.012 309.063 196.012C309.367 196.012 309.667 196.056 309.963 196.144C310.267 196.224 310.531 196.344 310.755 196.504C310.899 196.6 310.999 196.696 311.055 196.792C311.119 196.88 311.151 196.98 311.151 197.092C311.151 197.204 311.119 197.296 311.055 197.368C310.999 197.44 310.923 197.476 310.827 197.476C310.771 197.476 310.711 197.46 310.647 197.428C310.583 197.396 310.527 197.364 310.479 197.332C310.439 197.3 310.411 197.28 310.395 197.272C310.187 197.136 309.987 197.028 309.795 196.948C309.611 196.868 309.383 196.828 309.111 196.828C308.527 196.828 308.071 197.028 307.743 197.428C307.423 197.82 307.263 198.368 307.263 199.072C307.263 199.776 307.423 200.32 307.743 200.704C308.071 201.088 308.527 201.28 309.111 201.28C309.383 201.28 309.615 201.24 309.807 201.16C310.007 201.08 310.207 200.972 310.407 200.836C310.495 200.78 310.579 200.732 310.659 200.692C310.739 200.652 310.807 200.632 310.863 200.632C310.951 200.632 311.023 200.668 311.079 200.74C311.143 200.812 311.175 200.904 311.175 201.016C311.175 201.12 311.147 201.216 311.091 201.304C311.035 201.384 310.931 201.476 310.779 201.58C310.555 201.732 310.283 201.856 309.963 201.952C309.651 202.04 309.335 202.084 309.015 202.084ZM316.869 200.644C316.957 200.644 317.033 200.68 317.097 200.752C317.161 200.824 317.193 200.916 317.193 201.028C317.193 201.228 317.053 201.412 316.773 201.58C316.485 201.748 316.181 201.876 315.861 201.964C315.541 202.044 315.229 202.084 314.925 202.084C314.021 202.084 313.305 201.816 312.777 201.28C312.257 200.744 311.997 200.004 311.997 199.06C311.997 198.46 312.113 197.932 312.345 197.476C312.577 197.012 312.901 196.652 313.317 196.396C313.741 196.14 314.221 196.012 314.757 196.012C315.517 196.012 316.121 196.26 316.569 196.756C317.017 197.252 317.241 197.924 317.241 198.772C317.241 198.932 317.209 199.048 317.145 199.12C317.081 199.192 316.977 199.228 316.833 199.228H312.969C313.041 200.604 313.693 201.292 314.925 201.292C315.237 201.292 315.505 201.252 315.729 201.172C315.953 201.084 316.193 200.968 316.449 200.824C316.657 200.704 316.797 200.644 316.869 200.644ZM314.769 196.768C314.257 196.768 313.845 196.928 313.533 197.248C313.229 197.568 313.049 198.02 312.993 198.604H316.389C316.373 198.012 316.225 197.56 315.945 197.248C315.665 196.928 315.273 196.768 314.769 196.768ZM320.641 202.084C320.273 202.084 319.921 202.04 319.585 201.952C319.257 201.864 318.965 201.74 318.709 201.58C318.565 201.484 318.461 201.396 318.397 201.316C318.341 201.228 318.313 201.124 318.313 201.004C318.313 200.9 318.341 200.816 318.397 200.752C318.461 200.68 318.541 200.644 318.637 200.644C318.733 200.644 318.873 200.704 319.057 200.824C319.297 200.968 319.533 201.084 319.765 201.172C320.005 201.252 320.301 201.292 320.653 201.292C321.085 201.292 321.421 201.216 321.661 201.064C321.901 200.912 322.021 200.692 322.021 200.404C322.021 200.228 321.977 200.088 321.889 199.984C321.801 199.872 321.649 199.776 321.433 199.696C321.217 199.608 320.901 199.52 320.485 199.432C319.781 199.28 319.277 199.076 318.973 198.82C318.669 198.564 318.517 198.216 318.517 197.776C318.517 197.432 318.613 197.128 318.805 196.864C318.997 196.6 319.261 196.392 319.597 196.24C319.941 196.088 320.329 196.012 320.761 196.012C321.073 196.012 321.373 196.056 321.661 196.144C321.957 196.224 322.217 196.34 322.441 196.492C322.713 196.684 322.849 196.884 322.849 197.092C322.849 197.196 322.817 197.284 322.753 197.356C322.689 197.428 322.613 197.464 322.525 197.464C322.429 197.464 322.285 197.396 322.093 197.26C321.869 197.116 321.657 197.004 321.457 196.924C321.257 196.844 321.009 196.804 320.713 196.804C320.337 196.804 320.033 196.888 319.801 197.056C319.577 197.224 319.465 197.448 319.465 197.728C319.465 197.904 319.505 198.048 319.585 198.16C319.673 198.264 319.813 198.36 320.005 198.448C320.205 198.528 320.489 198.608 320.857 198.688C321.401 198.808 321.821 198.94 322.117 199.084C322.421 199.228 322.637 199.404 322.765 199.612C322.893 199.82 322.957 200.084 322.957 200.404C322.957 200.908 322.745 201.316 322.321 201.628C321.897 201.932 321.337 202.084 320.641 202.084ZM326.407 202.084C326.039 202.084 325.687 202.04 325.351 201.952C325.023 201.864 324.731 201.74 324.475 201.58C324.331 201.484 324.227 201.396 324.163 201.316C324.107 201.228 324.079 201.124 324.079 201.004C324.079 200.9 324.107 200.816 324.163 200.752C324.227 200.68 324.307 200.644 324.403 200.644C324.499 200.644 324.639 200.704 324.823 200.824C325.063 200.968 325.299 201.084 325.531 201.172C325.771 201.252 326.067 201.292 326.419 201.292C326.851 201.292 327.187 201.216 327.427 201.064C327.667 200.912 327.787 200.692 327.787 200.404C327.787 200.228 327.743 200.088 327.655 199.984C327.567 199.872 327.415 199.776 327.199 199.696C326.983 199.608 326.667 199.52 326.251 199.432C325.547 199.28 325.043 199.076 324.739 198.82C324.435 198.564 324.283 198.216 324.283 197.776C324.283 197.432 324.379 197.128 324.571 196.864C324.763 196.6 325.027 196.392 325.363 196.24C325.707 196.088 326.095 196.012 326.527 196.012C326.839 196.012 327.139 196.056 327.427 196.144C327.723 196.224 327.983 196.34 328.207 196.492C328.479 196.684 328.615 196.884 328.615 197.092C328.615 197.196 328.583 197.284 328.519 197.356C328.455 197.428 328.379 197.464 328.291 197.464C328.195 197.464 328.051 197.396 327.859 197.26C327.635 197.116 327.423 197.004 327.223 196.924C327.023 196.844 326.775 196.804 326.479 196.804C326.103 196.804 325.799 196.888 325.567 197.056C325.343 197.224 325.231 197.448 325.231 197.728C325.231 197.904 325.271 198.048 325.351 198.16C325.439 198.264 325.579 198.36 325.771 198.448C325.971 198.528 326.255 198.608 326.623 198.688C327.167 198.808 327.587 198.94 327.883 199.084C328.187 199.228 328.403 199.404 328.531 199.612C328.659 199.82 328.723 200.084 328.723 200.404C328.723 200.908 328.511 201.316 328.087 201.628C327.663 201.932 327.103 202.084 326.407 202.084ZM332.785 194.308C332.361 194.34 332.041 194.476 331.825 194.716C331.609 194.948 331.501 195.3 331.501 195.772V196.156H332.833C332.969 196.156 333.073 196.192 333.145 196.264C333.217 196.336 333.253 196.432 333.253 196.552C333.253 196.672 333.217 196.764 333.145 196.828C333.073 196.892 332.969 196.924 332.833 196.924H331.501V201.58C331.501 201.732 331.453 201.852 331.357 201.94C331.269 202.02 331.157 202.06 331.021 202.06C330.877 202.06 330.757 202.02 330.661 201.94C330.573 201.852 330.529 201.732 330.529 201.58V196.924H329.725C329.589 196.924 329.481 196.892 329.401 196.828C329.329 196.756 329.293 196.664 329.293 196.552C329.293 196.432 329.329 196.336 329.401 196.264C329.481 196.192 329.589 196.156 329.725 196.156H330.529V195.94C330.529 195.22 330.709 194.656 331.069 194.248C331.429 193.832 331.945 193.6 332.617 193.552L332.929 193.528C333.137 193.512 333.285 193.532 333.373 193.588C333.469 193.644 333.517 193.744 333.517 193.888C333.517 194.12 333.377 194.252 333.097 194.284L332.785 194.308ZM338.582 196.036C338.734 196.036 338.85 196.08 338.93 196.168C339.018 196.256 339.062 196.372 339.062 196.516V201.592C339.062 201.728 339.018 201.84 338.93 201.928C338.85 202.016 338.734 202.06 338.582 202.06C338.438 202.06 338.322 202.02 338.234 201.94C338.154 201.852 338.114 201.74 338.114 201.604V201.004C337.93 201.356 337.67 201.624 337.334 201.808C337.006 201.992 336.634 202.084 336.218 202.084C335.522 202.084 334.998 201.892 334.646 201.508C334.294 201.116 334.118 200.54 334.118 199.78V196.516C334.118 196.372 334.162 196.256 334.25 196.168C334.338 196.08 334.458 196.036 334.61 196.036C334.762 196.036 334.878 196.08 334.958 196.168C335.046 196.256 335.09 196.372 335.09 196.516V199.756C335.09 200.276 335.194 200.66 335.402 200.908C335.61 201.148 335.938 201.268 336.386 201.268C336.898 201.268 337.31 201.104 337.622 200.776C337.934 200.44 338.09 200 338.09 199.456V196.516C338.09 196.372 338.134 196.256 338.222 196.168C338.31 196.08 338.43 196.036 338.582 196.036ZM341.361 202.06C341.217 202.06 341.097 202.02 341.001 201.94C340.913 201.852 340.869 201.732 340.869 201.58V193.96C340.869 193.808 340.913 193.692 341.001 193.612C341.097 193.524 341.217 193.48 341.361 193.48C341.497 193.48 341.609 193.524 341.697 193.612C341.793 193.692 341.841 193.808 341.841 193.96V201.58C341.841 201.732 341.793 201.852 341.697 201.94C341.609 202.02 341.497 202.06 341.361 202.06ZM344.15 202.06C344.006 202.06 343.886 202.02 343.79 201.94C343.702 201.852 343.658 201.732 343.658 201.58V193.96C343.658 193.808 343.702 193.692 343.79 193.612C343.886 193.524 344.006 193.48 344.15 193.48C344.286 193.48 344.398 193.524 344.486 193.612C344.582 193.692 344.63 193.808 344.63 193.96V201.58C344.63 201.732 344.582 201.852 344.486 201.94C344.398 202.02 344.286 202.06 344.15 202.06ZM350.659 196.336C350.747 196.144 350.887 196.048 351.079 196.048C351.199 196.048 351.307 196.088 351.403 196.168C351.499 196.248 351.547 196.348 351.547 196.468C351.547 196.54 351.531 196.604 351.499 196.66L348.127 203.932C348.087 204.02 348.027 204.088 347.947 204.136C347.875 204.184 347.799 204.208 347.719 204.208C347.599 204.208 347.491 204.168 347.395 204.088C347.307 204.016 347.263 203.92 347.263 203.8C347.263 203.736 347.279 203.672 347.311 203.608L348.151 201.796L345.775 196.66C345.743 196.604 345.727 196.544 345.727 196.48C345.727 196.36 345.779 196.256 345.883 196.168C345.995 196.08 346.115 196.036 346.243 196.036C346.323 196.036 346.399 196.06 346.471 196.108C346.551 196.156 346.611 196.224 346.651 196.312L348.655 200.812L350.659 196.336ZM357.673 202.084C357.305 202.084 356.953 202.04 356.617 201.952C356.289 201.864 355.997 201.74 355.741 201.58C355.597 201.484 355.493 201.396 355.429 201.316C355.373 201.228 355.345 201.124 355.345 201.004C355.345 200.9 355.373 200.816 355.429 200.752C355.493 200.68 355.573 200.644 355.669 200.644C355.765 200.644 355.905 200.704 356.089 200.824C356.329 200.968 356.565 201.084 356.797 201.172C357.037 201.252 357.333 201.292 357.685 201.292C358.117 201.292 358.453 201.216 358.693 201.064C358.933 200.912 359.053 200.692 359.053 200.404C359.053 200.228 359.009 200.088 358.921 199.984C358.833 199.872 358.681 199.776 358.465 199.696C358.249 199.608 357.933 199.52 357.517 199.432C356.813 199.28 356.309 199.076 356.005 198.82C355.701 198.564 355.549 198.216 355.549 197.776C355.549 197.432 355.645 197.128 355.837 196.864C356.029 196.6 356.293 196.392 356.629 196.24C356.973 196.088 357.361 196.012 357.793 196.012C358.105 196.012 358.405 196.056 358.693 196.144C358.989 196.224 359.249 196.34 359.473 196.492C359.745 196.684 359.881 196.884 359.881 197.092C359.881 197.196 359.849 197.284 359.785 197.356C359.721 197.428 359.645 197.464 359.557 197.464C359.461 197.464 359.317 197.396 359.125 197.26C358.901 197.116 358.689 197.004 358.489 196.924C358.289 196.844 358.041 196.804 357.745 196.804C357.369 196.804 357.065 196.888 356.833 197.056C356.609 197.224 356.497 197.448 356.497 197.728C356.497 197.904 356.537 198.048 356.617 198.16C356.705 198.264 356.845 198.36 357.037 198.448C357.237 198.528 357.521 198.608 357.889 198.688C358.433 198.808 358.853 198.94 359.149 199.084C359.453 199.228 359.669 199.404 359.797 199.612C359.925 199.82 359.989 200.084 359.989 200.404C359.989 200.908 359.777 201.316 359.353 201.628C358.929 201.932 358.369 202.084 357.673 202.084ZM363.858 196.012C365.322 196.012 366.054 196.78 366.054 198.316V201.58C366.054 201.724 366.01 201.84 365.922 201.928C365.842 202.016 365.73 202.06 365.586 202.06C365.442 202.06 365.326 202.016 365.238 201.928C365.15 201.84 365.106 201.724 365.106 201.58V201.004C364.954 201.348 364.722 201.616 364.41 201.808C364.098 201.992 363.738 202.084 363.33 202.084C362.954 202.084 362.606 202.008 362.286 201.856C361.974 201.704 361.726 201.492 361.542 201.22C361.358 200.948 361.266 200.648 361.266 200.32C361.266 199.88 361.378 199.54 361.602 199.3C361.826 199.052 362.194 198.876 362.706 198.772C363.218 198.66 363.93 198.604 364.842 198.604H365.106V198.208C365.106 197.728 365.006 197.376 364.806 197.152C364.614 196.928 364.298 196.816 363.858 196.816C363.314 196.816 362.762 196.964 362.202 197.26C361.986 197.396 361.834 197.464 361.746 197.464C361.65 197.464 361.57 197.428 361.506 197.356C361.442 197.284 361.41 197.192 361.41 197.08C361.41 196.968 361.442 196.872 361.506 196.792C361.578 196.704 361.69 196.616 361.842 196.528C362.122 196.368 362.438 196.244 362.79 196.156C363.15 196.06 363.506 196.012 363.858 196.012ZM363.462 201.316C363.942 201.316 364.334 201.156 364.638 200.836C364.95 200.508 365.106 200.088 365.106 199.576V199.228H364.89C364.186 199.228 363.65 199.26 363.282 199.324C362.914 199.38 362.65 199.48 362.49 199.624C362.338 199.76 362.262 199.964 362.262 200.236C362.262 200.548 362.374 200.808 362.598 201.016C362.83 201.216 363.118 201.316 363.462 201.316ZM372.046 196.336C372.134 196.144 372.274 196.048 372.466 196.048C372.586 196.048 372.694 196.088 372.79 196.168C372.886 196.248 372.934 196.348 372.934 196.468C372.934 196.54 372.918 196.604 372.886 196.66L370.546 201.7C370.498 201.804 370.426 201.888 370.33 201.952C370.234 202.008 370.13 202.036 370.018 202.036C369.914 202.036 369.814 202.008 369.718 201.952C369.622 201.888 369.546 201.804 369.49 201.7L367.162 196.66C367.13 196.604 367.114 196.544 367.114 196.48C367.114 196.36 367.166 196.256 367.27 196.168C367.382 196.08 367.502 196.036 367.63 196.036C367.71 196.036 367.786 196.06 367.858 196.108C367.938 196.156 367.998 196.224 368.038 196.312L370.042 200.812L372.046 196.336ZM378.451 200.644C378.539 200.644 378.615 200.68 378.679 200.752C378.743 200.824 378.775 200.916 378.775 201.028C378.775 201.228 378.635 201.412 378.355 201.58C378.067 201.748 377.763 201.876 377.443 201.964C377.123 202.044 376.811 202.084 376.507 202.084C375.603 202.084 374.887 201.816 374.359 201.28C373.839 200.744 373.579 200.004 373.579 199.06C373.579 198.46 373.695 197.932 373.927 197.476C374.159 197.012 374.483 196.652 374.899 196.396C375.323 196.14 375.803 196.012 376.339 196.012C377.099 196.012 377.703 196.26 378.151 196.756C378.599 197.252 378.823 197.924 378.823 198.772C378.823 198.932 378.791 199.048 378.727 199.12C378.663 199.192 378.559 199.228 378.415 199.228H374.551C374.623 200.604 375.275 201.292 376.507 201.292C376.819 201.292 377.087 201.252 377.311 201.172C377.535 201.084 377.775 200.968 378.031 200.824C378.239 200.704 378.379 200.644 378.451 200.644ZM376.351 196.768C375.839 196.768 375.427 196.928 375.115 197.248C374.811 197.568 374.631 198.02 374.575 198.604H377.971C377.955 198.012 377.807 197.56 377.527 197.248C377.247 196.928 376.855 196.768 376.351 196.768ZM384.947 193.48C385.099 193.48 385.219 193.524 385.307 193.612C385.395 193.7 385.439 193.812 385.439 193.948V201.58C385.439 201.724 385.395 201.84 385.307 201.928C385.219 202.016 385.099 202.06 384.947 202.06C384.795 202.06 384.675 202.016 384.587 201.928C384.507 201.84 384.467 201.724 384.467 201.58V200.932C384.291 201.3 384.031 201.584 383.687 201.784C383.351 201.984 382.955 202.084 382.499 202.084C381.987 202.084 381.535 201.956 381.143 201.7C380.751 201.444 380.447 201.088 380.231 200.632C380.015 200.168 379.907 199.632 379.907 199.024C379.907 198.424 380.015 197.896 380.231 197.44C380.447 196.984 380.751 196.632 381.143 196.384C381.535 196.136 381.987 196.012 382.499 196.012C382.955 196.012 383.351 196.112 383.687 196.312C384.031 196.512 384.291 196.796 384.467 197.164V193.948C384.467 193.804 384.507 193.692 384.587 193.612C384.675 193.524 384.795 193.48 384.947 193.48ZM382.691 201.28C383.259 201.28 383.695 201.088 383.999 200.704C384.311 200.312 384.467 199.76 384.467 199.048C384.467 198.336 384.311 197.788 383.999 197.404C383.695 197.02 383.259 196.828 382.691 196.828C382.123 196.828 381.679 197.02 381.359 197.404C381.047 197.788 380.891 198.328 380.891 199.024C380.891 199.736 381.047 200.292 381.359 200.692C381.679 201.084 382.123 201.28 382.691 201.28ZM393.034 201.292C393.314 201.316 393.454 201.444 393.454 201.676C393.454 201.812 393.402 201.916 393.298 201.988C393.202 202.052 393.054 202.076 392.854 202.06L392.53 202.036C391.89 201.988 391.418 201.796 391.114 201.46C390.81 201.124 390.658 200.616 390.658 199.936V196.924H389.854C389.718 196.924 389.61 196.892 389.53 196.828C389.458 196.756 389.422 196.664 389.422 196.552C389.422 196.432 389.458 196.336 389.53 196.264C389.61 196.192 389.718 196.156 389.854 196.156H390.658V194.8C390.658 194.648 390.702 194.532 390.79 194.452C390.878 194.364 390.998 194.32 391.15 194.32C391.294 194.32 391.41 194.364 391.498 194.452C391.586 194.532 391.63 194.648 391.63 194.8V196.156H392.962C393.09 196.156 393.19 196.192 393.262 196.264C393.342 196.336 393.382 196.432 393.382 196.552C393.382 196.664 393.342 196.756 393.262 196.828C393.19 196.892 393.09 196.924 392.962 196.924H391.63V199.984C391.63 200.424 391.718 200.744 391.894 200.944C392.078 201.136 392.35 201.244 392.71 201.268L393.034 201.292ZM397.364 196.012C398.052 196.012 398.572 196.208 398.924 196.6C399.276 196.984 399.452 197.56 399.452 198.328V201.58C399.452 201.732 399.408 201.852 399.32 201.94C399.232 202.02 399.116 202.06 398.972 202.06C398.82 202.06 398.7 202.02 398.612 201.94C398.524 201.852 398.48 201.732 398.48 201.58V198.352C398.48 197.832 398.372 197.448 398.156 197.2C397.948 196.952 397.612 196.828 397.148 196.828C396.612 196.828 396.184 196.992 395.864 197.32C395.544 197.648 395.384 198.092 395.384 198.652V201.58C395.384 201.732 395.34 201.852 395.252 201.94C395.172 202.02 395.056 202.06 394.904 202.06C394.752 202.06 394.632 202.02 394.544 201.94C394.456 201.852 394.412 201.732 394.412 201.58V193.948C394.412 193.812 394.456 193.7 394.544 193.612C394.64 193.524 394.76 193.48 394.904 193.48C395.056 193.48 395.172 193.524 395.252 193.612C395.34 193.692 395.384 193.804 395.384 193.948V197.092C395.576 196.74 395.844 196.472 396.188 196.288C396.532 196.104 396.924 196.012 397.364 196.012ZM401.724 202.06C401.58 202.06 401.46 202.02 401.364 201.94C401.276 201.852 401.232 201.732 401.232 201.58V196.516C401.232 196.364 401.276 196.248 401.364 196.168C401.46 196.08 401.58 196.036 401.724 196.036C401.868 196.036 401.984 196.08 402.072 196.168C402.16 196.248 402.204 196.364 402.204 196.516V201.58C402.204 201.74 402.16 201.86 402.072 201.94C401.984 202.02 401.868 202.06 401.724 202.06ZM401.724 194.776C401.532 194.776 401.376 194.72 401.256 194.608C401.136 194.496 401.076 194.348 401.076 194.164C401.076 193.988 401.136 193.844 401.256 193.732C401.376 193.62 401.532 193.564 401.724 193.564C401.916 193.564 402.072 193.62 402.192 193.732C402.312 193.844 402.372 193.988 402.372 194.164C402.372 194.348 402.312 194.496 402.192 194.608C402.072 194.72 401.916 194.776 401.724 194.776ZM405.989 202.084C405.621 202.084 405.269 202.04 404.933 201.952C404.605 201.864 404.313 201.74 404.057 201.58C403.913 201.484 403.809 201.396 403.745 201.316C403.689 201.228 403.661 201.124 403.661 201.004C403.661 200.9 403.689 200.816 403.745 200.752C403.809 200.68 403.889 200.644 403.985 200.644C404.081 200.644 404.221 200.704 404.405 200.824C404.645 200.968 404.881 201.084 405.113 201.172C405.353 201.252 405.649 201.292 406.001 201.292C406.433 201.292 406.769 201.216 407.009 201.064C407.249 200.912 407.369 200.692 407.369 200.404C407.369 200.228 407.325 200.088 407.237 199.984C407.149 199.872 406.997 199.776 406.781 199.696C406.565 199.608 406.249 199.52 405.833 199.432C405.129 199.28 404.625 199.076 404.321 198.82C404.017 198.564 403.865 198.216 403.865 197.776C403.865 197.432 403.961 197.128 404.153 196.864C404.345 196.6 404.609 196.392 404.945 196.24C405.289 196.088 405.677 196.012 406.109 196.012C406.421 196.012 406.721 196.056 407.009 196.144C407.305 196.224 407.565 196.34 407.789 196.492C408.061 196.684 408.197 196.884 408.197 197.092C408.197 197.196 408.165 197.284 408.101 197.356C408.037 197.428 407.961 197.464 407.873 197.464C407.777 197.464 407.633 197.396 407.441 197.26C407.217 197.116 407.005 197.004 406.805 196.924C406.605 196.844 406.357 196.804 406.061 196.804C405.685 196.804 405.381 196.888 405.149 197.056C404.925 197.224 404.813 197.448 404.813 197.728C404.813 197.904 404.853 198.048 404.933 198.16C405.021 198.264 405.161 198.36 405.353 198.448C405.553 198.528 405.837 198.608 406.205 198.688C406.749 198.808 407.169 198.94 407.465 199.084C407.769 199.228 407.985 199.404 408.113 199.612C408.241 199.82 408.305 200.084 408.305 200.404C408.305 200.908 408.093 201.316 407.669 201.628C407.245 201.932 406.685 202.084 405.989 202.084ZM419.384 196.012C420.68 196.012 421.328 196.784 421.328 198.328V201.58C421.328 201.732 421.284 201.852 421.196 201.94C421.108 202.02 420.992 202.06 420.848 202.06C420.704 202.06 420.584 202.02 420.488 201.94C420.4 201.852 420.356 201.732 420.356 201.58V198.352C420.356 197.816 420.26 197.428 420.068 197.188C419.876 196.948 419.576 196.828 419.168 196.828C418.68 196.828 418.296 196.992 418.016 197.32C417.736 197.648 417.596 198.092 417.596 198.652V201.58C417.596 201.732 417.548 201.852 417.452 201.94C417.364 202.02 417.248 202.06 417.104 202.06C416.96 202.06 416.844 202.02 416.756 201.94C416.668 201.852 416.624 201.732 416.624 201.58V198.352C416.624 197.816 416.528 197.428 416.336 197.188C416.144 196.948 415.84 196.828 415.424 196.828C414.944 196.828 414.56 196.992 414.272 197.32C413.992 197.648 413.852 198.092 413.852 198.652V201.58C413.852 201.732 413.808 201.852 413.72 201.94C413.632 202.02 413.516 202.06 413.372 202.06C413.228 202.06 413.108 202.02 413.012 201.94C412.924 201.852 412.88 201.732 412.88 201.58V196.516C412.88 196.372 412.924 196.256 413.012 196.168C413.108 196.08 413.228 196.036 413.372 196.036C413.508 196.036 413.62 196.08 413.708 196.168C413.796 196.248 413.84 196.36 413.84 196.504V197.08C414.016 196.736 414.26 196.472 414.572 196.288C414.884 196.104 415.244 196.012 415.652 196.012C416.564 196.012 417.16 196.396 417.44 197.164C417.608 196.812 417.864 196.532 418.208 196.324C418.552 196.116 418.944 196.012 419.384 196.012ZM427.623 200.644C427.711 200.644 427.787 200.68 427.851 200.752C427.915 200.824 427.947 200.916 427.947 201.028C427.947 201.228 427.807 201.412 427.527 201.58C427.239 201.748 426.935 201.876 426.615 201.964C426.295 202.044 425.983 202.084 425.679 202.084C424.775 202.084 424.059 201.816 423.531 201.28C423.011 200.744 422.751 200.004 422.751 199.06C422.751 198.46 422.867 197.932 423.099 197.476C423.331 197.012 423.655 196.652 424.071 196.396C424.495 196.14 424.975 196.012 425.511 196.012C426.271 196.012 426.875 196.26 427.323 196.756C427.771 197.252 427.995 197.924 427.995 198.772C427.995 198.932 427.963 199.048 427.899 199.12C427.835 199.192 427.731 199.228 427.587 199.228H423.723C423.795 200.604 424.447 201.292 425.679 201.292C425.991 201.292 426.259 201.252 426.483 201.172C426.707 201.084 426.947 200.968 427.203 200.824C427.411 200.704 427.551 200.644 427.623 200.644ZM425.523 196.768C425.011 196.768 424.599 196.928 424.287 197.248C423.983 197.568 423.803 198.02 423.747 198.604H427.143C427.127 198.012 426.979 197.56 426.699 197.248C426.419 196.928 426.027 196.768 425.523 196.768ZM431.395 202.084C431.027 202.084 430.675 202.04 430.339 201.952C430.011 201.864 429.719 201.74 429.463 201.58C429.319 201.484 429.215 201.396 429.151 201.316C429.095 201.228 429.067 201.124 429.067 201.004C429.067 200.9 429.095 200.816 429.151 200.752C429.215 200.68 429.295 200.644 429.391 200.644C429.487 200.644 429.627 200.704 429.811 200.824C430.051 200.968 430.287 201.084 430.519 201.172C430.759 201.252 431.055 201.292 431.407 201.292C431.839 201.292 432.175 201.216 432.415 201.064C432.655 200.912 432.775 200.692 432.775 200.404C432.775 200.228 432.731 200.088 432.643 199.984C432.555 199.872 432.403 199.776 432.187 199.696C431.971 199.608 431.655 199.52 431.239 199.432C430.535 199.28 430.031 199.076 429.727 198.82C429.423 198.564 429.271 198.216 429.271 197.776C429.271 197.432 429.367 197.128 429.559 196.864C429.751 196.6 430.015 196.392 430.351 196.24C430.695 196.088 431.083 196.012 431.515 196.012C431.827 196.012 432.127 196.056 432.415 196.144C432.711 196.224 432.971 196.34 433.195 196.492C433.467 196.684 433.603 196.884 433.603 197.092C433.603 197.196 433.571 197.284 433.507 197.356C433.443 197.428 433.367 197.464 433.279 197.464C433.183 197.464 433.039 197.396 432.847 197.26C432.623 197.116 432.411 197.004 432.211 196.924C432.011 196.844 431.763 196.804 431.467 196.804C431.091 196.804 430.787 196.888 430.555 197.056C430.331 197.224 430.219 197.448 430.219 197.728C430.219 197.904 430.259 198.048 430.339 198.16C430.427 198.264 430.567 198.36 430.759 198.448C430.959 198.528 431.243 198.608 431.611 198.688C432.155 198.808 432.575 198.94 432.871 199.084C433.175 199.228 433.391 199.404 433.519 199.612C433.647 199.82 433.711 200.084 433.711 200.404C433.711 200.908 433.499 201.316 433.075 201.628C432.651 201.932 432.091 202.084 431.395 202.084ZM437.161 202.084C436.793 202.084 436.441 202.04 436.105 201.952C435.777 201.864 435.485 201.74 435.229 201.58C435.085 201.484 434.981 201.396 434.917 201.316C434.861 201.228 434.833 201.124 434.833 201.004C434.833 200.9 434.861 200.816 434.917 200.752C434.981 200.68 435.061 200.644 435.157 200.644C435.253 200.644 435.393 200.704 435.577 200.824C435.817 200.968 436.053 201.084 436.285 201.172C436.525 201.252 436.821 201.292 437.173 201.292C437.605 201.292 437.941 201.216 438.181 201.064C438.421 200.912 438.541 200.692 438.541 200.404C438.541 200.228 438.497 200.088 438.409 199.984C438.321 199.872 438.169 199.776 437.953 199.696C437.737 199.608 437.421 199.52 437.005 199.432C436.301 199.28 435.797 199.076 435.493 198.82C435.189 198.564 435.037 198.216 435.037 197.776C435.037 197.432 435.133 197.128 435.325 196.864C435.517 196.6 435.781 196.392 436.117 196.24C436.461 196.088 436.849 196.012 437.281 196.012C437.593 196.012 437.893 196.056 438.181 196.144C438.477 196.224 438.737 196.34 438.961 196.492C439.233 196.684 439.369 196.884 439.369 197.092C439.369 197.196 439.337 197.284 439.273 197.356C439.209 197.428 439.133 197.464 439.045 197.464C438.949 197.464 438.805 197.396 438.613 197.26C438.389 197.116 438.177 197.004 437.977 196.924C437.777 196.844 437.529 196.804 437.233 196.804C436.857 196.804 436.553 196.888 436.321 197.056C436.097 197.224 435.985 197.448 435.985 197.728C435.985 197.904 436.025 198.048 436.105 198.16C436.193 198.264 436.333 198.36 436.525 198.448C436.725 198.528 437.009 198.608 437.377 198.688C437.921 198.808 438.341 198.94 438.637 199.084C438.941 199.228 439.157 199.404 439.285 199.612C439.413 199.82 439.477 200.084 439.477 200.404C439.477 200.908 439.265 201.316 438.841 201.628C438.417 201.932 437.857 202.084 437.161 202.084ZM443.347 196.012C444.811 196.012 445.543 196.78 445.543 198.316V201.58C445.543 201.724 445.499 201.84 445.411 201.928C445.331 202.016 445.219 202.06 445.075 202.06C444.931 202.06 444.815 202.016 444.727 201.928C444.639 201.84 444.595 201.724 444.595 201.58V201.004C444.443 201.348 444.211 201.616 443.899 201.808C443.587 201.992 443.227 202.084 442.819 202.084C442.443 202.084 442.095 202.008 441.775 201.856C441.463 201.704 441.215 201.492 441.031 201.22C440.847 200.948 440.755 200.648 440.755 200.32C440.755 199.88 440.867 199.54 441.091 199.3C441.315 199.052 441.683 198.876 442.195 198.772C442.707 198.66 443.419 198.604 444.331 198.604H444.595V198.208C444.595 197.728 444.495 197.376 444.295 197.152C444.103 196.928 443.787 196.816 443.347 196.816C442.803 196.816 442.251 196.964 441.691 197.26C441.475 197.396 441.323 197.464 441.235 197.464C441.139 197.464 441.059 197.428 440.995 197.356C440.931 197.284 440.899 197.192 440.899 197.08C440.899 196.968 440.931 196.872 440.995 196.792C441.067 196.704 441.179 196.616 441.331 196.528C441.611 196.368 441.927 196.244 442.279 196.156C442.639 196.06 442.995 196.012 443.347 196.012ZM442.951 201.316C443.431 201.316 443.823 201.156 444.127 200.836C444.439 200.508 444.595 200.088 444.595 199.576V199.228H444.379C443.675 199.228 443.139 199.26 442.771 199.324C442.403 199.38 442.139 199.48 441.979 199.624C441.827 199.76 441.751 199.964 441.751 200.236C441.751 200.548 441.863 200.808 442.087 201.016C442.319 201.216 442.607 201.316 442.951 201.316ZM452.062 196.036C452.214 196.036 452.334 196.08 452.422 196.168C452.51 196.256 452.554 196.372 452.554 196.516V201.604C452.554 202.476 452.33 203.132 451.882 203.572C451.434 204.02 450.77 204.244 449.89 204.244C449.034 204.244 448.322 204.076 447.754 203.74C447.466 203.58 447.322 203.396 447.322 203.188C447.322 203.076 447.35 202.984 447.406 202.912C447.47 202.84 447.55 202.804 447.646 202.804C447.726 202.804 447.87 202.86 448.078 202.972C448.358 203.116 448.634 203.232 448.906 203.32C449.178 203.408 449.502 203.452 449.878 203.452C450.446 203.452 450.874 203.3 451.162 202.996C451.45 202.7 451.594 202.264 451.594 201.688V200.656C451.426 201.032 451.166 201.32 450.814 201.52C450.47 201.72 450.062 201.82 449.59 201.82C449.078 201.82 448.622 201.7 448.222 201.46C447.83 201.22 447.522 200.88 447.298 200.44C447.082 200 446.974 199.492 446.974 198.916C446.974 198.34 447.082 197.832 447.298 197.392C447.522 196.952 447.83 196.612 448.222 196.372C448.622 196.132 449.078 196.012 449.59 196.012C450.054 196.012 450.458 196.112 450.802 196.312C451.146 196.512 451.406 196.796 451.582 197.164V196.516C451.582 196.372 451.622 196.256 451.702 196.168C451.79 196.08 451.91 196.036 452.062 196.036ZM449.782 201.016C450.342 201.016 450.782 200.832 451.102 200.464C451.422 200.088 451.582 199.572 451.582 198.916C451.582 198.268 451.422 197.76 451.102 197.392C450.79 197.016 450.35 196.828 449.782 196.828C449.214 196.828 448.766 197.016 448.438 197.392C448.118 197.76 447.958 198.268 447.958 198.916C447.958 199.572 448.118 200.088 448.438 200.464C448.766 200.832 449.214 201.016 449.782 201.016ZM458.877 200.644C458.965 200.644 459.041 200.68 459.105 200.752C459.169 200.824 459.201 200.916 459.201 201.028C459.201 201.228 459.061 201.412 458.781 201.58C458.493 201.748 458.189 201.876 457.869 201.964C457.549 202.044 457.237 202.084 456.933 202.084C456.029 202.084 455.313 201.816 454.785 201.28C454.265 200.744 454.005 200.004 454.005 199.06C454.005 198.46 454.121 197.932 454.353 197.476C454.585 197.012 454.909 196.652 455.325 196.396C455.749 196.14 456.229 196.012 456.765 196.012C457.525 196.012 458.129 196.26 458.577 196.756C459.025 197.252 459.249 197.924 459.249 198.772C459.249 198.932 459.217 199.048 459.153 199.12C459.089 199.192 458.985 199.228 458.841 199.228H454.977C455.049 200.604 455.701 201.292 456.933 201.292C457.245 201.292 457.513 201.252 457.737 201.172C457.961 201.084 458.201 200.968 458.457 200.824C458.665 200.704 458.805 200.644 458.877 200.644ZM456.777 196.768C456.265 196.768 455.853 196.928 455.541 197.248C455.237 197.568 455.057 198.02 455.001 198.604H458.397C458.381 198.012 458.233 197.56 457.953 197.248C457.673 196.928 457.281 196.768 456.777 196.768Z" fill="#234CAD"/>
<path d="M247.232 168.64C247.531 168.64 247.771 168.736 247.952 168.928C248.133 169.109 248.224 169.355 248.224 169.664V179.136C248.224 179.435 248.139 179.669 247.968 179.84C247.797 180.011 247.573 180.096 247.296 180.096C247.019 180.096 246.8 180.011 246.64 179.84C246.48 179.669 246.4 179.435 246.4 179.136V172.544L243.68 177.696C243.552 177.931 243.413 178.107 243.264 178.224C243.115 178.331 242.939 178.384 242.736 178.384C242.533 178.384 242.357 178.331 242.208 178.224C242.059 178.117 241.92 177.941 241.792 177.696L239.056 172.624V179.136C239.056 179.424 238.971 179.659 238.8 179.84C238.64 180.011 238.421 180.096 238.144 180.096C237.867 180.096 237.648 180.011 237.488 179.84C237.328 179.669 237.248 179.435 237.248 179.136V169.664C237.248 169.355 237.333 169.109 237.504 168.928C237.685 168.736 237.925 168.64 238.224 168.64C238.64 168.64 238.965 168.869 239.2 169.328L242.752 176.096L246.288 169.328C246.523 168.869 246.837 168.64 247.232 168.64ZM256.685 177.856C256.866 177.856 257.01 177.925 257.117 178.064C257.234 178.203 257.293 178.389 257.293 178.624C257.293 178.955 257.096 179.232 256.701 179.456C256.338 179.659 255.928 179.824 255.469 179.952C255.01 180.069 254.573 180.128 254.157 180.128C252.898 180.128 251.901 179.765 251.165 179.04C250.429 178.315 250.061 177.323 250.061 176.064C250.061 175.264 250.221 174.555 250.541 173.936C250.861 173.317 251.309 172.837 251.885 172.496C252.472 172.155 253.133 171.984 253.869 171.984C254.573 171.984 255.186 172.139 255.709 172.448C256.232 172.757 256.637 173.195 256.925 173.76C257.213 174.325 257.357 174.992 257.357 175.76C257.357 176.219 257.154 176.448 256.749 176.448H252.029C252.093 177.184 252.301 177.728 252.653 178.08C253.005 178.421 253.517 178.592 254.189 178.592C254.53 178.592 254.829 178.549 255.085 178.464C255.352 178.379 255.65 178.261 255.981 178.112C256.301 177.941 256.536 177.856 256.685 177.856ZM253.917 173.392C253.373 173.392 252.936 173.563 252.605 173.904C252.285 174.245 252.093 174.736 252.029 175.376H255.645C255.624 174.725 255.464 174.235 255.165 173.904C254.866 173.563 254.45 173.392 253.917 173.392ZM261.825 180.128C260.662 180.128 259.724 179.899 259.009 179.44C258.668 179.237 258.497 178.949 258.497 178.576C258.497 178.363 258.556 178.192 258.673 178.064C258.79 177.925 258.934 177.856 259.105 177.856C259.286 177.856 259.537 177.941 259.857 178.112C260.198 178.272 260.508 178.395 260.785 178.48C261.073 178.565 261.436 178.608 261.873 178.608C262.321 178.608 262.668 178.533 262.913 178.384C263.169 178.235 263.297 178.027 263.297 177.76C263.297 177.579 263.244 177.435 263.137 177.328C263.041 177.221 262.86 177.125 262.593 177.04C262.337 176.944 261.942 176.837 261.409 176.72C260.46 176.528 259.777 176.256 259.361 175.904C258.956 175.552 258.753 175.067 258.753 174.448C258.753 173.979 258.892 173.557 259.169 173.184C259.446 172.8 259.825 172.507 260.305 172.304C260.796 172.091 261.35 171.984 261.969 171.984C262.417 171.984 262.849 172.043 263.265 172.16C263.681 172.267 264.054 172.427 264.385 172.64C264.726 172.853 264.897 173.136 264.897 173.488C264.897 173.701 264.838 173.883 264.721 174.032C264.604 174.171 264.46 174.24 264.289 174.24C264.172 174.24 264.054 174.219 263.937 174.176C263.83 174.123 263.692 174.048 263.521 173.952C263.212 173.792 262.945 173.675 262.721 173.6C262.497 173.515 262.22 173.472 261.889 173.472C261.494 173.472 261.18 173.552 260.945 173.712C260.721 173.872 260.609 174.091 260.609 174.368C260.609 174.635 260.726 174.837 260.961 174.976C261.196 175.115 261.649 175.253 262.321 175.392C263.036 175.541 263.596 175.712 264.001 175.904C264.406 176.096 264.694 176.336 264.865 176.624C265.046 176.912 265.137 177.28 265.137 177.728C265.137 178.453 264.833 179.035 264.225 179.472C263.628 179.909 262.828 180.128 261.825 180.128ZM269.591 180.128C268.428 180.128 267.489 179.899 266.775 179.44C266.433 179.237 266.263 178.949 266.263 178.576C266.263 178.363 266.321 178.192 266.439 178.064C266.556 177.925 266.7 177.856 266.871 177.856C267.052 177.856 267.303 177.941 267.623 178.112C267.964 178.272 268.273 178.395 268.551 178.48C268.839 178.565 269.201 178.608 269.639 178.608C270.087 178.608 270.433 178.533 270.679 178.384C270.935 178.235 271.063 178.027 271.063 177.76C271.063 177.579 271.009 177.435 270.903 177.328C270.807 177.221 270.625 177.125 270.359 177.04C270.103 176.944 269.708 176.837 269.175 176.72C268.225 176.528 267.543 176.256 267.127 175.904C266.721 175.552 266.519 175.067 266.519 174.448C266.519 173.979 266.657 173.557 266.935 173.184C267.212 172.8 267.591 172.507 268.071 172.304C268.561 172.091 269.116 171.984 269.735 171.984C270.183 171.984 270.615 172.043 271.031 172.16C271.447 172.267 271.82 172.427 272.151 172.64C272.492 172.853 272.663 173.136 272.663 173.488C272.663 173.701 272.604 173.883 272.487 174.032C272.369 174.171 272.225 174.24 272.055 174.24C271.937 174.24 271.82 174.219 271.703 174.176C271.596 174.123 271.457 174.048 271.287 173.952C270.977 173.792 270.711 173.675 270.487 173.6C270.263 173.515 269.985 173.472 269.655 173.472C269.26 173.472 268.945 173.552 268.711 173.712C268.487 173.872 268.375 174.091 268.375 174.368C268.375 174.635 268.492 174.837 268.727 174.976C268.961 175.115 269.415 175.253 270.087 175.392C270.801 175.541 271.361 175.712 271.767 175.904C272.172 176.096 272.46 176.336 272.631 176.624C272.812 176.912 272.903 177.28 272.903 177.728C272.903 178.453 272.599 179.035 271.991 179.472C271.393 179.909 270.593 180.128 269.591 180.128ZM277.916 171.984C279.004 171.984 279.81 172.256 280.332 172.8C280.866 173.333 281.132 174.149 281.132 175.248V179.152C281.132 179.44 281.047 179.669 280.876 179.84C280.706 180 280.471 180.08 280.172 180.08C279.895 180.08 279.666 179.995 279.484 179.824C279.314 179.653 279.228 179.429 279.228 179.152V178.8C279.047 179.216 278.759 179.541 278.364 179.776C277.98 180.011 277.532 180.128 277.02 180.128C276.498 180.128 276.023 180.021 275.596 179.808C275.17 179.595 274.834 179.301 274.588 178.928C274.343 178.555 274.22 178.139 274.22 177.68C274.22 177.104 274.364 176.651 274.652 176.32C274.951 175.989 275.431 175.749 276.092 175.6C276.754 175.451 277.666 175.376 278.828 175.376H279.228V175.008C279.228 174.485 279.116 174.107 278.892 173.872C278.668 173.627 278.306 173.504 277.804 173.504C277.495 173.504 277.18 173.552 276.86 173.648C276.54 173.733 276.162 173.861 275.724 174.032C275.447 174.171 275.244 174.24 275.116 174.24C274.924 174.24 274.764 174.171 274.636 174.032C274.519 173.893 274.46 173.712 274.46 173.488C274.46 173.307 274.503 173.152 274.588 173.024C274.684 172.885 274.839 172.757 275.052 172.64C275.426 172.437 275.868 172.277 276.38 172.16C276.903 172.043 277.415 171.984 277.916 171.984ZM277.42 178.688C277.954 178.688 278.386 178.512 278.716 178.16C279.058 177.797 279.228 177.333 279.228 176.768V176.432H278.94C278.226 176.432 277.671 176.464 277.276 176.528C276.882 176.592 276.599 176.704 276.428 176.864C276.258 177.024 276.172 177.243 276.172 177.52C276.172 177.861 276.29 178.144 276.524 178.368C276.77 178.581 277.068 178.688 277.42 178.688ZM289.789 172.016C290.088 172.016 290.328 172.101 290.509 172.272C290.69 172.443 290.781 172.672 290.781 172.96V179.28C290.781 180.507 290.44 181.435 289.757 182.064C289.074 182.693 288.066 183.008 286.733 183.008C285.57 183.008 284.6 182.789 283.821 182.352C283.426 182.117 283.229 181.835 283.229 181.504C283.229 181.269 283.282 181.083 283.389 180.944C283.506 180.805 283.656 180.736 283.837 180.736C283.933 180.736 284.05 180.757 284.189 180.8C284.328 180.853 284.472 180.912 284.621 180.976C285.005 181.136 285.346 181.259 285.645 181.344C285.954 181.429 286.306 181.472 286.701 181.472C288.098 181.472 288.797 180.789 288.797 179.424V178.4C288.562 178.837 288.221 179.179 287.773 179.424C287.325 179.659 286.813 179.776 286.237 179.776C285.554 179.776 284.946 179.616 284.413 179.296C283.89 178.965 283.48 178.507 283.181 177.92C282.882 177.333 282.733 176.656 282.733 175.888C282.733 175.12 282.877 174.443 283.165 173.856C283.464 173.259 283.88 172.8 284.413 172.48C284.946 172.149 285.554 171.984 286.237 171.984C286.813 171.984 287.325 172.107 287.773 172.352C288.221 172.587 288.562 172.923 288.797 173.36V172.944C288.797 172.667 288.888 172.443 289.069 172.272C289.25 172.101 289.49 172.016 289.789 172.016ZM286.765 178.224C287.405 178.224 287.901 178.016 288.253 177.6C288.616 177.184 288.797 176.613 288.797 175.888C288.797 175.152 288.616 174.576 288.253 174.16C287.901 173.744 287.405 173.536 286.765 173.536C286.136 173.536 285.64 173.744 285.277 174.16C284.914 174.576 284.733 175.152 284.733 175.888C284.733 176.613 284.914 177.184 285.277 177.6C285.64 178.016 286.136 178.224 286.765 178.224ZM299.045 177.856C299.226 177.856 299.37 177.925 299.477 178.064C299.594 178.203 299.653 178.389 299.653 178.624C299.653 178.955 299.455 179.232 299.061 179.456C298.698 179.659 298.287 179.824 297.829 179.952C297.37 180.069 296.933 180.128 296.516 180.128C295.258 180.128 294.261 179.765 293.525 179.04C292.789 178.315 292.421 177.323 292.421 176.064C292.421 175.264 292.581 174.555 292.901 173.936C293.221 173.317 293.669 172.837 294.245 172.496C294.831 172.155 295.493 171.984 296.229 171.984C296.933 171.984 297.546 172.139 298.069 172.448C298.591 172.757 298.997 173.195 299.285 173.76C299.573 174.325 299.717 174.992 299.717 175.76C299.717 176.219 299.514 176.448 299.109 176.448H294.389C294.453 177.184 294.661 177.728 295.013 178.08C295.365 178.421 295.877 178.592 296.549 178.592C296.89 178.592 297.189 178.549 297.445 178.464C297.711 178.379 298.01 178.261 298.341 178.112C298.661 177.941 298.895 177.856 299.045 177.856ZM296.277 173.392C295.733 173.392 295.295 173.563 294.965 173.904C294.645 174.245 294.453 174.736 294.389 175.376H298.005C297.983 174.725 297.823 174.235 297.525 173.904C297.226 173.563 296.81 173.392 296.277 173.392ZM309.776 180.144C308.955 180.144 308.176 180.037 307.44 179.824C306.715 179.6 306.123 179.301 305.664 178.928C305.419 178.747 305.296 178.491 305.296 178.16C305.296 177.936 305.36 177.744 305.488 177.584C305.627 177.413 305.787 177.328 305.968 177.328C306.16 177.328 306.379 177.403 306.624 177.552C307.083 177.883 307.563 178.123 308.064 178.272C308.566 178.421 309.12 178.496 309.728 178.496C310.507 178.496 311.104 178.363 311.52 178.096C311.936 177.819 312.144 177.419 312.144 176.896C312.144 176.491 311.947 176.181 311.552 175.968C311.168 175.744 310.523 175.531 309.616 175.328C308.678 175.125 307.915 174.891 307.328 174.624C306.742 174.357 306.299 174.016 306 173.6C305.702 173.184 305.552 172.656 305.552 172.016C305.552 171.355 305.739 170.763 306.112 170.24C306.486 169.717 307.003 169.312 307.664 169.024C308.336 168.725 309.088 168.576 309.92 168.576C311.446 168.576 312.688 168.981 313.648 169.792C313.787 169.909 313.883 170.027 313.936 170.144C314 170.251 314.032 170.389 314.032 170.56C314.032 170.784 313.963 170.981 313.824 171.152C313.696 171.312 313.542 171.392 313.36 171.392C313.254 171.392 313.152 171.376 313.056 171.344C312.971 171.312 312.854 171.253 312.704 171.168C312.267 170.848 311.84 170.613 311.424 170.464C311.019 170.304 310.518 170.224 309.92 170.224C309.195 170.224 308.619 170.373 308.192 170.672C307.776 170.96 307.568 171.365 307.568 171.888C307.568 172.325 307.755 172.661 308.128 172.896C308.502 173.131 309.136 173.349 310.032 173.552C310.982 173.765 311.75 174.005 312.336 174.272C312.934 174.528 313.387 174.859 313.696 175.264C314.016 175.669 314.176 176.176 314.176 176.784C314.176 177.445 313.99 178.032 313.616 178.544C313.254 179.045 312.736 179.44 312.064 179.728C311.403 180.005 310.64 180.144 309.776 180.144ZM319.291 171.984C320.379 171.984 321.185 172.256 321.707 172.8C322.241 173.333 322.507 174.149 322.507 175.248V179.152C322.507 179.44 322.422 179.669 322.251 179.84C322.081 180 321.846 180.08 321.547 180.08C321.27 180.08 321.041 179.995 320.859 179.824C320.689 179.653 320.603 179.429 320.603 179.152V178.8C320.422 179.216 320.134 179.541 319.739 179.776C319.355 180.011 318.907 180.128 318.395 180.128C317.873 180.128 317.398 180.021 316.971 179.808C316.545 179.595 316.209 179.301 315.963 178.928C315.718 178.555 315.595 178.139 315.595 177.68C315.595 177.104 315.739 176.651 316.027 176.32C316.326 175.989 316.806 175.749 317.467 175.6C318.129 175.451 319.041 175.376 320.203 175.376H320.603V175.008C320.603 174.485 320.491 174.107 320.267 173.872C320.043 173.627 319.681 173.504 319.179 173.504C318.87 173.504 318.555 173.552 318.235 173.648C317.915 173.733 317.537 173.861 317.099 174.032C316.822 174.171 316.619 174.24 316.491 174.24C316.299 174.24 316.139 174.171 316.011 174.032C315.894 173.893 315.835 173.712 315.835 173.488C315.835 173.307 315.878 173.152 315.963 173.024C316.059 172.885 316.214 172.757 316.427 172.64C316.801 172.437 317.243 172.277 317.755 172.16C318.278 172.043 318.79 171.984 319.291 171.984ZM318.795 178.688C319.329 178.688 319.761 178.512 320.091 178.16C320.433 177.797 320.603 177.333 320.603 176.768V176.432H320.315C319.601 176.432 319.046 176.464 318.651 176.528C318.257 176.592 317.974 176.704 317.803 176.864C317.633 177.024 317.547 177.243 317.547 177.52C317.547 177.861 317.665 178.144 317.899 178.368C318.145 178.581 318.443 178.688 318.795 178.688ZM329.996 172.592C330.081 172.4 330.193 172.256 330.332 172.16C330.481 172.064 330.641 172.016 330.812 172.016C331.057 172.016 331.276 172.101 331.468 172.272C331.671 172.432 331.772 172.635 331.772 172.88C331.772 173.008 331.74 173.136 331.676 173.264L328.716 179.456C328.62 179.659 328.481 179.813 328.3 179.92C328.129 180.027 327.937 180.08 327.724 180.08C327.521 180.08 327.324 180.027 327.132 179.92C326.951 179.813 326.812 179.659 326.716 179.456L323.74 173.264C323.687 173.157 323.66 173.035 323.66 172.896C323.66 172.651 323.761 172.443 323.964 172.272C324.177 172.101 324.417 172.016 324.684 172.016C325.068 172.016 325.351 172.203 325.532 172.576L327.772 177.52L329.996 172.592ZM339.029 177.856C339.21 177.856 339.354 177.925 339.461 178.064C339.578 178.203 339.637 178.389 339.637 178.624C339.637 178.955 339.44 179.232 339.045 179.456C338.682 179.659 338.272 179.824 337.813 179.952C337.354 180.069 336.917 180.128 336.501 180.128C335.242 180.128 334.245 179.765 333.509 179.04C332.773 178.315 332.405 177.323 332.405 176.064C332.405 175.264 332.565 174.555 332.885 173.936C333.205 173.317 333.653 172.837 334.229 172.496C334.816 172.155 335.477 171.984 336.213 171.984C336.917 171.984 337.53 172.139 338.053 172.448C338.576 172.757 338.981 173.195 339.269 173.76C339.557 174.325 339.701 174.992 339.701 175.76C339.701 176.219 339.498 176.448 339.093 176.448H334.373C334.437 177.184 334.645 177.728 334.997 178.08C335.349 178.421 335.861 178.592 336.533 178.592C336.874 178.592 337.173 178.549 337.429 178.464C337.696 178.379 337.994 178.261 338.325 178.112C338.645 177.941 338.88 177.856 339.029 177.856ZM336.261 173.392C335.717 173.392 335.28 173.563 334.949 173.904C334.629 174.245 334.437 174.736 334.373 175.376H337.989C337.968 174.725 337.808 174.235 337.509 173.904C337.21 173.563 336.794 173.392 336.261 173.392ZM347.865 168.64C348.164 168.64 348.409 168.725 348.601 168.896C348.793 169.067 348.889 169.291 348.889 169.568V179.136C348.889 179.424 348.798 179.653 348.617 179.824C348.436 179.995 348.196 180.08 347.897 180.08C347.598 180.08 347.358 179.995 347.177 179.824C346.996 179.653 346.905 179.424 346.905 179.136V178.736C346.67 179.173 346.329 179.515 345.881 179.76C345.444 180.005 344.942 180.128 344.377 180.128C343.705 180.128 343.102 179.957 342.569 179.616C342.046 179.275 341.636 178.795 341.337 178.176C341.049 177.547 340.905 176.827 340.905 176.016C340.905 175.205 341.049 174.496 341.337 173.888C341.636 173.28 342.046 172.811 342.569 172.48C343.092 172.149 343.694 171.984 344.377 171.984C344.942 171.984 345.444 172.101 345.881 172.336C346.318 172.571 346.654 172.901 346.889 173.328V169.536C346.889 169.269 346.974 169.056 347.145 168.896C347.326 168.725 347.566 168.64 347.865 168.64ZM344.905 178.576C345.545 178.576 346.036 178.357 346.377 177.92C346.729 177.483 346.905 176.859 346.905 176.048C346.905 175.237 346.729 174.619 346.377 174.192C346.036 173.755 345.55 173.536 344.921 173.536C344.281 173.536 343.785 173.749 343.433 174.176C343.081 174.603 342.905 175.216 342.905 176.016C342.905 176.827 343.081 177.456 343.433 177.904C343.785 178.352 344.276 178.576 344.905 178.576Z" fill="#234CAD"/>
</g>
<circle cx="186" cy="186" r="30" fill="#F2F6FF"/>
<path fill-rule="evenodd" clip-rule="evenodd" d="M181.719 178.152H191.281C192.161 178.152 192.875 178.875 192.875 179.766V193.398L187.362 189.808H187.362C186.837 189.467 186.163 189.467 185.638 189.808L180.125 193.398V179.766C180.125 178.875 180.839 178.152 181.719 178.152ZM178 179.766C178 177.686 179.665 176 181.719 176H191.281C193.335 176 195 177.686 195 179.766V194.383C195 195.66 193.605 196.432 192.544 195.741L192.544 195.741L192.545 195.741L193.406 194.383L193.694 193.931L192.875 193.398V194.383C192.875 193.958 193.34 193.701 193.694 193.931L193.406 194.383L192.544 195.741L186.5 191.806L186.787 191.619C186.613 191.732 186.389 191.733 186.215 191.62L186.5 191.806L180.456 195.741C179.395 196.432 178 195.66 178 194.383V179.766ZM180.125 193.398L179.306 193.931C179.66 193.701 180.125 193.958 180.125 194.383V193.398Z" fill="#234CAD"/>
<defs>
<filter id="filter0_f_8786_194" x="0.085907" y="0.085907" width="621.828" height="371.828" filterUnits="userSpaceOnUse" color-interpolation-filters="sRGB">
<feFlood flood-opacity="0" result="BackgroundImageFix"/>
<feBlend mode="normal" in="SourceGraphic" in2="BackgroundImageFix" result="shape"/>
<feGaussianBlur stdDeviation="67.957" result="effect1_foregroundBlur_8786_194"/>
</filter>
<linearGradient id="paint0_linear_8786_194" x1="401.05" y1="272.598" x2="433.39" y2="108.231" gradientUnits="userSpaceOnUse">
<stop stop-color="#234CAD"/>
<stop offset="1" stop-color="#234CAD" stop-opacity="0.5"/>
</linearGradient>
<clipPath id="clip0_8786_194">
<rect width="224" height="45" fill="white" transform="translate(236 164)"/>
</clipPath>
</defs>
</svg>
