<svg width="14" height="9" viewBox="0 0 14 9" fill="none" xmlns="http://www.w3.org/2000/svg">
<path d="M3.91 8.09C3.23 8.09 2.63333 7.94333 2.12 7.65C1.61333 7.35667 1.22333 6.93667 0.95 6.39C0.676667 5.84333 0.54 5.20333 0.54 4.47C0.54 3.73667 0.676667 3.1 0.95 2.56C1.22333 2.01333 1.61333 1.59333 2.12 1.3C2.63333 1.00667 3.23 0.86 3.91 0.86C4.35 0.86 4.76333 0.926666 5.15 1.06C5.53667 1.18667 5.88 1.37333 6.18 1.62C6.26667 1.68667 6.32667 1.75667 6.36 1.83C6.39333 1.90333 6.41 1.99333 6.41 2.1C6.41 2.24667 6.37 2.37 6.29 2.47C6.21 2.57 6.11333 2.62 6 2.62C5.86667 2.62 5.73 2.57333 5.59 2.48C5.30333 2.26667 5.03667 2.12 4.79 2.04C4.54333 1.95333 4.27 1.91 3.97 1.91C3.27667 1.91 2.75 2.12667 2.39 2.56C2.03667 2.99333 1.86 3.63 1.86 4.47C1.86 5.31667 2.03667 5.95667 2.39 6.39C2.75 6.82333 3.27667 7.04 3.97 7.04C4.25667 7.04 4.52 6.99667 4.76 6.91C5.00667 6.82333 5.28333 6.67667 5.59 6.47C5.65667 6.43 5.72333 6.39667 5.79 6.37C5.85667 6.34333 5.92667 6.33 6 6.33C6.11333 6.33 6.21 6.38 6.29 6.48C6.37 6.58 6.41 6.70333 6.41 6.85C6.41 6.95 6.39333 7.04 6.36 7.12C6.32667 7.19333 6.26667 7.26333 6.18 7.33C5.88 7.57667 5.53667 7.76667 5.15 7.9C4.76333 8.02667 4.35 8.09 3.91 8.09ZM10.5504 8.09C9.86372 8.09 9.26706 7.94333 8.76039 7.65C8.26039 7.35667 7.87372 6.93667 7.60039 6.39C7.32706 5.84333 7.19039 5.20333 7.19039 4.47C7.19039 3.73667 7.32372 3.1 7.59039 2.56C7.86372 2.01333 8.25372 1.59333 8.76039 1.3C9.26706 1.00667 9.86372 0.86 10.5504 0.86C11.2371 0.86 11.8304 1.00667 12.3304 1.3C12.8371 1.59333 13.2237 2.01333 13.4904 2.56C13.7637 3.1 13.9004 3.73667 13.9004 4.47C13.9004 5.20333 13.7637 5.84333 13.4904 6.39C13.2171 6.93667 12.8271 7.35667 12.3204 7.65C11.8204 7.94333 11.2304 8.09 10.5504 8.09ZM10.5504 7.06C11.1971 7.06 11.7004 6.83667 12.0604 6.39C12.4271 5.94333 12.6104 5.30333 12.6104 4.47C12.6104 3.63667 12.4271 3 12.0604 2.56C11.7004 2.11333 11.1971 1.89 10.5504 1.89C9.89706 1.89 9.38706 2.11333 9.02039 2.56C8.66039 3 8.48039 3.63667 8.48039 4.47C8.48039 5.30333 8.66039 5.94333 9.02039 6.39C9.38706 6.83667 9.89706 7.06 10.5504 7.06Z" fill="#234CAD"/>
</svg>
