<svg width="14" height="8" viewBox="0 0 14 8" fill="none" xmlns="http://www.w3.org/2000/svg">
<path d="M1.38 8C1.18667 8 1.03333 7.94667 0.92 7.84C0.813333 7.73333 0.76 7.58333 0.76 7.39V1.56C0.76 1.36667 0.813333 1.21667 0.92 1.11C1.03333 1.00333 1.18667 0.95 1.38 0.95H3.36C4.51333 0.95 5.40667 1.26 6.04 1.88C6.68 2.49333 7 3.35667 7 4.47C7 5.59 6.68 6.46 6.04 7.08C5.40667 7.69333 4.51333 8 3.36 8H1.38ZM3.28 6.95C4.9 6.95 5.71 6.12333 5.71 4.47C5.71 2.82333 4.9 2 3.28 2H2.05V6.95H3.28ZM8.91906 8C8.72573 8 8.5724 7.94667 8.45906 7.84C8.3524 7.73333 8.29906 7.58333 8.29906 7.39V1.56C8.29906 1.36667 8.3524 1.21667 8.45906 1.11C8.5724 1.00333 8.72573 0.95 8.91906 0.95H12.5291C12.7224 0.95 12.8724 0.993333 12.9791 1.08C13.0857 1.16667 13.1391 1.29 13.1391 1.45C13.1391 1.61667 13.0857 1.74667 12.9791 1.84C12.8724 1.92667 12.7224 1.97 12.5291 1.97H9.55906V3.91H12.3291C12.5224 3.91 12.6724 3.95333 12.7791 4.04C12.8857 4.12667 12.9391 4.25333 12.9391 4.42C12.9391 4.58 12.8857 4.70333 12.7791 4.79C12.6724 4.87667 12.5224 4.92 12.3291 4.92H9.55906V6.98H12.5291C12.7224 6.98 12.8724 7.02667 12.9791 7.12C13.0857 7.20667 13.1391 7.33333 13.1391 7.5C13.1391 7.66 13.0857 7.78333 12.9791 7.87C12.8724 7.95667 12.7224 8 12.5291 8H8.91906Z" fill="#234CAD"/>
</svg>
