<svg width="75" height="75" viewBox="0 0 75 75" fill="none" xmlns="http://www.w3.org/2000/svg">
<g clip-path="url(#clip0_10_8)">
<circle cx="37.5" cy="37.5" r="37.5" fill="#F2F6FF"/>
<path d="M40.73 43.306C40.818 43.4967 40.862 43.6873 40.862 43.878C40.862 44.2153 40.7227 44.5013 40.444 44.736C40.18 44.9707 39.872 45.088 39.52 45.088C39.2853 45.088 39.0653 45.0293 38.86 44.912C38.6547 44.78 38.4933 44.582 38.376 44.318L37.056 41.37H29.312L27.992 44.318C27.8747 44.582 27.7133 44.78 27.508 44.912C27.3027 45.0293 27.0753 45.088 26.826 45.088C26.4887 45.088 26.1807 44.9707 25.902 44.736C25.6233 44.5013 25.484 44.2153 25.484 43.878C25.484 43.6873 25.528 43.4967 25.616 43.306L31.688 30.26C31.82 29.9667 32.018 29.7467 32.282 29.6C32.5607 29.4387 32.854 29.358 33.162 29.358C33.47 29.358 33.756 29.4387 34.02 29.6C34.2987 29.7467 34.504 29.9667 34.636 30.26L40.73 43.306ZM30.28 39.17H36.088L33.184 32.636L30.28 39.17ZM43.1438 45.132C42.0145 45.176 41.4498 44.7873 41.4498 43.966C41.4498 43.614 41.5451 43.35 41.7358 43.174C41.9118 42.9833 42.1978 42.8733 42.5938 42.844L43.2978 42.8C43.8991 42.7707 44.3538 42.58 44.6618 42.228C44.9698 41.876 45.1238 41.3407 45.1238 40.622V30.788C45.1238 30.3627 45.2485 30.0253 45.4978 29.776C45.7618 29.512 46.1065 29.38 46.5318 29.38C46.9718 29.38 47.3165 29.512 47.5658 29.776C47.8298 30.0253 47.9618 30.3627 47.9618 30.788V40.622C47.9618 43.394 46.5905 44.8827 43.8478 45.088L43.1438 45.132Z" fill="#234CAD"/>
</g>
<g clip-path="url(#clip1_10_8)">
<circle cx="65" cy="10" r="8.75" fill="#234CAD" stroke="white" stroke-width="2.5"/>
<path d="M66.486 11.272C66.766 11.272 66.906 11.391 66.906 11.629C66.906 11.8763 66.766 12 66.486 12H63.826C63.7047 12 63.609 11.965 63.539 11.895C63.469 11.8203 63.434 11.7293 63.434 11.622C63.434 11.482 63.4877 11.356 63.595 11.244L65.191 9.529C65.387 9.31433 65.5293 9.11833 65.618 8.941C65.7113 8.759 65.758 8.57933 65.758 8.402C65.758 8.18267 65.695 8.01467 65.569 7.898C65.443 7.78133 65.2633 7.723 65.03 7.723C64.8387 7.723 64.652 7.76033 64.47 7.835C64.2927 7.905 64.113 8.003 63.931 8.129C63.8843 8.16167 63.8377 8.18967 63.791 8.213C63.7443 8.23167 63.6977 8.241 63.651 8.241C63.5717 8.241 63.5017 8.20367 63.441 8.129C63.385 8.05433 63.357 7.96567 63.357 7.863C63.357 7.793 63.3687 7.73233 63.392 7.681C63.42 7.62967 63.462 7.58067 63.518 7.534C63.7233 7.37067 63.9637 7.24233 64.239 7.149C64.5143 7.051 64.7897 7.002 65.065 7.002C65.5457 7.002 65.9283 7.12333 66.213 7.366C66.5023 7.60867 66.647 7.93533 66.647 8.346C66.647 8.63067 66.5863 8.899 66.465 9.151C66.3437 9.39833 66.1383 9.676 65.849 9.984L64.638 11.272H66.486Z" fill="#F7FAFC"/>
</g>
<defs>
<clipPath id="clip0_10_8">
<rect width="75" height="75" fill="white"/>
</clipPath>
<clipPath id="clip1_10_8">
<rect width="20" height="20" fill="white" transform="translate(55)"/>
</clipPath>
</defs>
</svg>
