<svg width="60" height="60" viewBox="0 0 60 60" fill="none" xmlns="http://www.w3.org/2000/svg">
<g clip-path="url(#clip0_14_15)">
<circle cx="30" cy="30" r="30" fill="#F2F6FF"/>
<path d="M20.484 36C20.136 36 19.86 35.904 19.656 35.712C19.464 35.52 19.368 35.25 19.368 34.902V24.408C19.368 24.06 19.464 23.79 19.656 23.598C19.86 23.406 20.136 23.31 20.484 23.31H24.048C26.124 23.31 27.732 23.868 28.872 24.984C30.024 26.088 30.6 27.642 30.6 29.646C30.6 31.662 30.024 33.228 28.872 34.344C27.732 35.448 26.124 36 24.048 36H20.484ZM23.904 34.11C26.82 34.11 28.278 32.622 28.278 29.646C28.278 26.682 26.82 25.2 23.904 25.2H21.69V34.11H23.904ZM34.0363 36C33.6883 36 33.4183 35.904 33.2263 35.712C33.0343 35.52 32.9383 35.256 32.9383 34.92V24.372C32.9383 24.024 33.0403 23.748 33.2443 23.544C33.4603 23.328 33.7423 23.22 34.0903 23.22C34.4503 23.22 34.7323 23.328 34.9363 23.544C35.1523 23.748 35.2603 24.024 35.2603 24.372V34.092H40.3183C41.0383 34.092 41.3983 34.41 41.3983 35.046C41.3983 35.682 41.0383 36 40.3183 36H34.0363Z" fill="#234CAD"/>
</g>
<g clip-path="url(#clip1_14_15)">
<circle cx="52" cy="8" r="7" fill="#234CAD" stroke="white" stroke-width="2"/>
<path d="M53.006 9.376C53.246 9.376 53.366 9.478 53.366 9.682C53.366 9.894 53.246 10 53.006 10H50.978C50.734 10 50.612 9.894 50.612 9.682C50.612 9.478 50.734 9.376 50.978 9.376H51.602V6.64L51.026 6.994C50.97 7.026 50.92 7.042 50.876 7.042C50.792 7.042 50.72 7.006 50.66 6.934C50.604 6.862 50.576 6.782 50.576 6.694C50.576 6.578 50.628 6.488 50.732 6.424L51.662 5.848C51.782 5.776 51.896 5.74 52.004 5.74C52.116 5.74 52.206 5.774 52.274 5.842C52.342 5.91 52.376 6.004 52.376 6.124V9.376H53.006Z" fill="#F7FAFC"/>
</g>
<defs>
<clipPath id="clip0_14_15">
<rect width="60" height="60" fill="white"/>
</clipPath>
<clipPath id="clip1_14_15">
<rect width="16" height="16" fill="white" transform="translate(44)"/>
</clipPath>
</defs>
</svg>
