<svg width="45" height="45" viewBox="0 0 45 45" fill="none" xmlns="http://www.w3.org/2000/svg">
<g clip-path="url(#clip0_14_22)">
<circle cx="22.5" cy="22.5" r="22.5" fill="#F2F6FF"/>
<path d="M22.126 17.77C22.3687 17.77 22.5637 17.848 22.711 18.004C22.8583 18.1513 22.932 18.3507 22.932 18.602V26.298C22.932 26.5407 22.8627 26.7313 22.724 26.87C22.5853 27.0087 22.4033 27.078 22.178 27.078C21.9527 27.078 21.775 27.0087 21.645 26.87C21.515 26.7313 21.45 26.5407 21.45 26.298V20.942L19.24 25.128C19.136 25.3187 19.0233 25.4617 18.902 25.557C18.7807 25.6437 18.6377 25.687 18.473 25.687C18.3083 25.687 18.1653 25.6437 18.044 25.557C17.9227 25.4703 17.81 25.3273 17.706 25.128L15.483 21.007V26.298C15.483 26.532 15.4137 26.7227 15.275 26.87C15.145 27.0087 14.9673 27.078 14.742 27.078C14.5167 27.078 14.339 27.0087 14.209 26.87C14.079 26.7313 14.014 26.5407 14.014 26.298V18.602C14.014 18.3507 14.0833 18.1513 14.222 18.004C14.3693 17.848 14.5643 17.77 14.807 17.77C15.145 17.77 15.4093 17.9563 15.6 18.329L18.486 23.828L21.359 18.329C21.5497 17.9563 21.8053 17.77 22.126 17.77ZM29.0137 27.117C28.1297 27.117 27.354 26.9263 26.6867 26.545C26.028 26.1637 25.521 25.6177 25.1657 24.907C24.8103 24.1963 24.6327 23.3643 24.6327 22.411C24.6327 21.4577 24.8103 20.63 25.1657 19.928C25.521 19.2173 26.028 18.6713 26.6867 18.29C27.354 17.9087 28.1297 17.718 29.0137 17.718C29.5857 17.718 30.123 17.8047 30.6257 17.978C31.1283 18.1427 31.5747 18.3853 31.9647 18.706C32.0773 18.7927 32.1553 18.8837 32.1987 18.979C32.242 19.0743 32.2637 19.1913 32.2637 19.33C32.2637 19.5207 32.2117 19.681 32.1077 19.811C32.0037 19.941 31.878 20.006 31.7307 20.006C31.5573 20.006 31.3797 19.9453 31.1977 19.824C30.825 19.5467 30.4783 19.356 30.1577 19.252C29.837 19.1393 29.4817 19.083 29.0917 19.083C28.1903 19.083 27.5057 19.3647 27.0377 19.928C26.5783 20.4913 26.3487 21.319 26.3487 22.411C26.3487 23.5117 26.5783 24.3437 27.0377 24.907C27.5057 25.4703 28.1903 25.752 29.0917 25.752C29.4643 25.752 29.8067 25.6957 30.1187 25.583C30.4393 25.4703 30.799 25.2797 31.1977 25.011C31.2843 24.959 31.371 24.9157 31.4577 24.881C31.5443 24.8463 31.6353 24.829 31.7307 24.829C31.878 24.829 32.0037 24.894 32.1077 25.024C32.2117 25.154 32.2637 25.3143 32.2637 25.505C32.2637 25.635 32.242 25.752 32.1987 25.856C32.1553 25.9513 32.0773 26.0423 31.9647 26.129C31.5747 26.4497 31.1283 26.6967 30.6257 26.87C30.123 27.0347 29.5857 27.117 29.0137 27.117Z" fill="#234CAD"/>
</g>
<g clip-path="url(#clip1_14_22)">
<circle cx="39" cy="6" r="5.25" fill="#234CAD" stroke="white" stroke-width="1.5"/>
<path d="M40.1 6.048C40.18 6.048 40.24 6.06533 40.28 6.1C40.32 6.13467 40.34 6.184 40.34 6.248C40.34 6.38133 40.26 6.448 40.1 6.448H39.896V6.764C39.896 6.84667 39.872 6.91067 39.824 6.956C39.7787 7.00133 39.7187 7.024 39.644 7.024C39.5693 7.024 39.508 7.00133 39.46 6.956C39.4147 6.91067 39.392 6.84667 39.392 6.764V6.448H38.344C38.272 6.448 38.216 6.428 38.176 6.388C38.136 6.34533 38.116 6.29333 38.116 6.232C38.116 6.168 38.1373 6.10667 38.18 6.048L39.416 4.272C39.4427 4.23467 39.476 4.20667 39.516 4.188C39.556 4.16667 39.5973 4.156 39.64 4.156C39.7093 4.156 39.7693 4.17867 39.82 4.224C39.8707 4.26933 39.896 4.33333 39.896 4.416V6.048H40.1ZM38.648 6.048H39.392V4.972L38.648 6.048Z" fill="#F7FAFC"/>
</g>
<defs>
<clipPath id="clip0_14_22">
<rect width="45" height="45" fill="white"/>
</clipPath>
<clipPath id="clip1_14_22">
<rect width="12" height="12" fill="white" transform="translate(33)"/>
</clipPath>
</defs>
</svg>
