<svg width="14" height="9" viewBox="0 0 14 9" fill="none" xmlns="http://www.w3.org/2000/svg">
<path d="M6.23 7.03C6.36333 7.15667 6.43 7.3 6.43 7.46C6.43 7.61333 6.37 7.75 6.25 7.87C6.13667 7.98333 6 8.04 5.84 8.04C5.67333 8.04 5.52 7.97 5.38 7.83L2.05 4.71V7.41C2.05 7.60333 1.99 7.76 1.87 7.88C1.75667 8 1.6 8.06 1.4 8.06C1.20667 8.06 1.05 8 0.93 7.88C0.816667 7.76 0.76 7.60333 0.76 7.41V1.54C0.76 1.34667 0.816667 1.19333 0.93 1.08C1.05 0.96 1.20667 0.9 1.4 0.9C1.6 0.9 1.75667 0.96 1.87 1.08C1.99 1.19333 2.05 1.34667 2.05 1.54V4.11L5.27 1.09C5.39 0.97 5.52667 0.909999 5.68 0.909999C5.83333 0.909999 5.96667 0.97 6.08 1.09C6.2 1.20333 6.26 1.33667 6.26 1.49C6.26 1.64333 6.19333 1.78333 6.06 1.91L3.37 4.37L6.23 7.03ZM10.1739 8.09C9.20724 8.09 8.47391 7.84 7.97391 7.34C7.47391 6.84 7.22391 6.11 7.22391 5.15V1.54C7.22391 1.34667 7.28057 1.19333 7.39391 1.08C7.50724 0.96 7.66057 0.9 7.85391 0.9C8.04724 0.9 8.20057 0.96 8.31391 1.08C8.42724 1.19333 8.48391 1.34667 8.48391 1.54V5.22C8.48391 5.82667 8.62724 6.28667 8.91391 6.6C9.20057 6.90667 9.62057 7.06 10.1739 7.06C10.7206 7.06 11.1372 6.90333 11.4239 6.59C11.7106 6.27667 11.8539 5.82 11.8539 5.22V1.54C11.8539 1.34667 11.9106 1.19333 12.0239 1.08C12.1372 0.96 12.2906 0.9 12.4839 0.9C12.6772 0.9 12.8306 0.96 12.9439 1.08C13.0572 1.19333 13.1139 1.34667 13.1139 1.54V5.15C13.1139 6.10333 12.8639 6.83333 12.3639 7.34C11.8639 7.84 11.1339 8.09 10.1739 8.09Z" fill="#234CAD"/>
</svg>
