<svg width="15" height="9" viewBox="0 0 15 9" fill="none" xmlns="http://www.w3.org/2000/svg">
<path d="M7.02 0.9C7.20667 0.9 7.35667 0.96 7.47 1.08C7.58333 1.19333 7.64 1.34667 7.64 1.54V7.46C7.64 7.64667 7.58667 7.79333 7.48 7.9C7.37333 8.00667 7.23333 8.06 7.06 8.06C6.88667 8.06 6.75 8.00667 6.65 7.9C6.55 7.79333 6.5 7.64667 6.5 7.46V3.34L4.8 6.56C4.72 6.70667 4.63333 6.81667 4.54 6.89C4.44667 6.95667 4.33667 6.99 4.21 6.99C4.08333 6.99 3.97333 6.95667 3.88 6.89C3.78667 6.82333 3.7 6.71333 3.62 6.56L1.91 3.39V7.46C1.91 7.64 1.85667 7.78667 1.75 7.9C1.65 8.00667 1.51333 8.06 1.34 8.06C1.16667 8.06 1.03 8.00667 0.93 7.9C0.83 7.79333 0.78 7.64667 0.78 7.46V1.54C0.78 1.34667 0.833333 1.19333 0.94 1.08C1.05333 0.96 1.20333 0.9 1.39 0.9C1.65 0.9 1.85333 1.04333 2 1.33L4.22 5.56L6.43 1.33C6.57667 1.04333 6.77333 0.9 7.02 0.9ZM12.3182 8.09C11.6382 8.09 11.0415 7.94333 10.5282 7.65C10.0215 7.35667 9.63154 6.93667 9.3582 6.39C9.08487 5.84333 8.9482 5.20333 8.9482 4.47C8.9482 3.73667 9.08487 3.1 9.3582 2.56C9.63154 2.01333 10.0215 1.59333 10.5282 1.3C11.0415 1.00667 11.6382 0.86 12.3182 0.86C12.7582 0.86 13.1715 0.926666 13.5582 1.06C13.9449 1.18667 14.2882 1.37333 14.5882 1.62C14.6749 1.68667 14.7349 1.75667 14.7682 1.83C14.8015 1.90333 14.8182 1.99333 14.8182 2.1C14.8182 2.24667 14.7782 2.37 14.6982 2.47C14.6182 2.57 14.5215 2.62 14.4082 2.62C14.2749 2.62 14.1382 2.57333 13.9982 2.48C13.7115 2.26667 13.4449 2.12 13.1982 2.04C12.9515 1.95333 12.6782 1.91 12.3782 1.91C11.6849 1.91 11.1582 2.12667 10.7982 2.56C10.4449 2.99333 10.2682 3.63 10.2682 4.47C10.2682 5.31667 10.4449 5.95667 10.7982 6.39C11.1582 6.82333 11.6849 7.04 12.3782 7.04C12.6649 7.04 12.9282 6.99667 13.1682 6.91C13.4149 6.82333 13.6915 6.67667 13.9982 6.47C14.0649 6.43 14.1315 6.39667 14.1982 6.37C14.2649 6.34333 14.3349 6.33 14.4082 6.33C14.5215 6.33 14.6182 6.38 14.6982 6.48C14.7782 6.58 14.8182 6.70333 14.8182 6.85C14.8182 6.95 14.8015 7.04 14.7682 7.12C14.7349 7.19333 14.6749 7.26333 14.5882 7.33C14.2882 7.57667 13.9449 7.76667 13.5582 7.9C13.1715 8.02667 12.7582 8.09 12.3182 8.09Z" fill="#234CAD"/>
</svg>
