<svg width="13" height="9" viewBox="0 0 13 9" fill="none" xmlns="http://www.w3.org/2000/svg">
<path d="M1.4 8.06C1.20667 8.06 1.05 8.00333 0.93 7.89C0.816667 7.77 0.76 7.61 0.76 7.41V1.56C0.76 1.36667 0.813333 1.21667 0.92 1.11C1.03333 1.00333 1.18667 0.95 1.38 0.95H3.84C4.59333 0.95 5.18 1.14 5.6 1.52C6.02 1.89333 6.23 2.42 6.23 3.1C6.23 3.78 6.02 4.31 5.6 4.69C5.18 5.07 4.59333 5.26 3.84 5.26H2.05V7.41C2.05 7.61 1.99 7.77 1.87 7.89C1.75667 8.00333 1.6 8.06 1.4 8.06ZM3.68 4.27C4.56667 4.27 5.01 3.88333 5.01 3.11C5.01 2.33667 4.56667 1.95 3.68 1.95H2.05V4.27H3.68ZM11.7016 4.36C12.1082 4.47333 12.4216 4.68 12.6416 4.98C12.8682 5.28 12.9816 5.64667 12.9816 6.08C12.9816 6.68 12.7649 7.15 12.3316 7.49C11.9049 7.83 11.3149 8 10.5616 8H7.98156C7.78823 8 7.6349 7.94667 7.52156 7.84C7.4149 7.73333 7.36156 7.58333 7.36156 7.39V1.56C7.36156 1.36667 7.4149 1.21667 7.52156 1.11C7.6349 1.00333 7.78823 0.95 7.98156 0.95H10.4616C11.1949 0.95 11.7682 1.11333 12.1816 1.44C12.6016 1.76 12.8116 2.21 12.8116 2.79C12.8116 3.16333 12.7116 3.48667 12.5116 3.76C12.3182 4.03333 12.0482 4.23333 11.7016 4.36ZM8.62156 3.92H10.2516C11.1382 3.92 11.5816 3.59 11.5816 2.93C11.5816 2.59667 11.4716 2.35 11.2516 2.19C11.0316 2.03 10.6982 1.95 10.2516 1.95H8.62156V3.92ZM10.4216 7C10.8882 7 11.2282 6.91667 11.4416 6.75C11.6549 6.58333 11.7616 6.32333 11.7616 5.97C11.7616 5.61667 11.6516 5.35333 11.4316 5.18C11.2182 5.00667 10.8816 4.92 10.4216 4.92H8.62156V7H10.4216Z" fill="#234CAD"/>
</svg>
