<svg width="13" height="9" viewBox="0 0 13 9" fill="none" xmlns="http://www.w3.org/2000/svg">
<path d="M3.07 8.05C2.87 8.05 2.71 7.99333 2.59 7.88C2.47667 7.76 2.42 7.60333 2.42 7.41V2.01H0.6C0.2 2.01 0 1.83333 0 1.48C0 1.12667 0.2 0.95 0.6 0.95H5.53C5.93 0.95 6.13 1.12667 6.13 1.48C6.13 1.83333 5.93 2.01 5.53 2.01H3.71V7.41C3.71 7.60333 3.65 7.76 3.53 7.88C3.41667 7.99333 3.26333 8.05 3.07 8.05ZM12.5328 7.19C12.6128 7.31 12.6528 7.42667 12.6528 7.54C12.6528 7.69333 12.5895 7.82 12.4628 7.92C12.3428 8.02 12.1995 8.07 12.0328 8.07C11.9261 8.07 11.8228 8.04667 11.7228 8C11.6295 7.94667 11.5495 7.87 11.4828 7.77L10.1528 5.75C10.0195 5.53667 9.87615 5.38667 9.72281 5.3C9.57615 5.21333 9.38281 5.17 9.14281 5.17H8.16281V7.41C8.16281 7.61 8.10615 7.77 7.99281 7.89C7.87948 8.00333 7.72615 8.06 7.53281 8.06C7.33948 8.06 7.18281 8.00333 7.06281 7.89C6.94948 7.77 6.89281 7.61 6.89281 7.41V1.56C6.89281 1.36667 6.94615 1.21667 7.05281 1.11C7.16615 1.00333 7.31948 0.95 7.51281 0.95H10.0128C10.8128 0.95 11.4195 1.13 11.8328 1.49C12.2528 1.84333 12.4628 2.35667 12.4628 3.03C12.4628 3.57667 12.3061 4.02667 11.9928 4.38C11.6861 4.72667 11.2495 4.95 10.6828 5.05C10.8761 5.09667 11.0461 5.18 11.1928 5.3C11.3395 5.42 11.4828 5.58667 11.6228 5.8L12.5328 7.19ZM9.83281 4.18C10.3195 4.18 10.6761 4.09 10.9028 3.91C11.1295 3.72333 11.2428 3.44 11.2428 3.06C11.2428 2.67333 11.1295 2.39333 10.9028 2.22C10.6761 2.04 10.3195 1.95 9.83281 1.95H8.15281V4.18H9.83281Z" fill="#234CAD"/>
</svg>
