<svg width="14" height="9" viewBox="0 0 14 9" fill="none" xmlns="http://www.w3.org/2000/svg">
<path d="M5.89 1.23C5.99667 1.00333 6.17333 0.89 6.42 0.89C6.58667 0.89 6.73667 0.943333 6.87 1.05C7.00333 1.15667 7.07 1.29 7.07 1.45C7.07 1.52333 7.05 1.60667 7.01 1.7L4.24 7.66C4.18 7.78667 4.08667 7.88667 3.96 7.96C3.84 8.02667 3.71 8.06 3.57 8.06C3.43 8.06 3.29667 8.02667 3.17 7.96C3.05 7.88667 2.96 7.78667 2.9 7.66L0.14 1.7C0.1 1.60667 0.08 1.52667 0.08 1.46C0.08 1.29333 0.146667 1.15667 0.28 1.05C0.42 0.943333 0.576667 0.89 0.75 0.89C0.863333 0.89 0.966667 0.92 1.06 0.98C1.16 1.03333 1.23667 1.11667 1.29 1.23L3.59 6.34L5.89 1.23ZM13.2387 0.9C13.4253 0.9 13.572 0.96 13.6787 1.08C13.792 1.19333 13.8487 1.34667 13.8487 1.54V7.41C13.8487 7.60333 13.792 7.76 13.6787 7.88C13.5653 8 13.4187 8.06 13.2387 8.06C13.0253 8.06 12.862 7.98333 12.7487 7.83L9.09867 3.08V7.41C9.09867 7.60333 9.04534 7.76 8.93867 7.88C8.83201 8 8.68534 8.06 8.49867 8.06C8.31201 8.06 8.16534 8 8.05867 7.88C7.95201 7.76 7.89867 7.60333 7.89867 7.41V1.54C7.89867 1.34667 7.95534 1.19333 8.06867 1.08C8.18201 0.96 8.33201 0.9 8.51867 0.9C8.72534 0.9 8.88534 0.976666 8.99867 1.13L12.6387 5.86V1.54C12.6387 1.34667 12.692 1.19333 12.7987 1.08C12.912 0.96 13.0587 0.9 13.2387 0.9Z" fill="#234CAD"/>
</svg>
