<svg width="60" height="60" viewBox="0 0 60 60" fill="none" xmlns="http://www.w3.org/2000/svg">
<g clip-path="url(#clip0_9_8)">
<circle cx="30" cy="30" r="30" fill="#F2F6FF"/>
<path d="M30.87 34.614C30.942 34.77 30.978 34.926 30.978 35.082C30.978 35.358 30.864 35.592 30.636 35.784C30.42 35.976 30.168 36.072 29.88 36.072C29.688 36.072 29.508 36.024 29.34 35.928C29.172 35.82 29.04 35.658 28.944 35.442L27.864 33.03H21.528L20.448 35.442C20.352 35.658 20.22 35.82 20.052 35.928C19.884 36.024 19.698 36.072 19.494 36.072C19.218 36.072 18.966 35.976 18.738 35.784C18.51 35.592 18.396 35.358 18.396 35.082C18.396 34.926 18.432 34.77 18.504 34.614L23.472 23.94C23.58 23.7 23.742 23.52 23.958 23.4C24.186 23.268 24.426 23.202 24.678 23.202C24.93 23.202 25.164 23.268 25.38 23.4C25.608 23.52 25.776 23.7 25.884 23.94L30.87 34.614ZM22.32 31.23H27.072L24.696 25.884L22.32 31.23ZM36.9788 36.162C36.0548 36.162 35.1788 36.042 34.3508 35.802C33.5348 35.55 32.8688 35.214 32.3528 34.794C32.0768 34.59 31.9388 34.302 31.9388 33.93C31.9388 33.678 32.0108 33.462 32.1548 33.282C32.3108 33.09 32.4908 32.994 32.6948 32.994C32.9108 32.994 33.1568 33.078 33.4328 33.246C33.9488 33.618 34.4888 33.888 35.0528 34.056C35.6168 34.224 36.2408 34.308 36.9248 34.308C37.8008 34.308 38.4728 34.158 38.9408 33.858C39.4088 33.546 39.6428 33.096 39.6428 32.508C39.6428 32.052 39.4208 31.704 38.9768 31.464C38.5448 31.212 37.8188 30.972 36.7988 30.744C35.7428 30.516 34.8848 30.252 34.2248 29.952C33.5648 29.652 33.0668 29.268 32.7308 28.8C32.3948 28.332 32.2268 27.738 32.2268 27.018C32.2268 26.274 32.4368 25.608 32.8568 25.02C33.2768 24.432 33.8588 23.976 34.6028 23.652C35.3588 23.316 36.2048 23.148 37.1408 23.148C38.8568 23.148 40.2548 23.604 41.3348 24.516C41.4908 24.648 41.5988 24.78 41.6588 24.912C41.7308 25.032 41.7668 25.188 41.7668 25.38C41.7668 25.632 41.6888 25.854 41.5328 26.046C41.3888 26.226 41.2148 26.316 41.0108 26.316C40.8908 26.316 40.7768 26.298 40.6688 26.262C40.5728 26.226 40.4408 26.16 40.2728 26.064C39.7808 25.704 39.3008 25.44 38.8328 25.272C38.3768 25.092 37.8128 25.002 37.1408 25.002C36.3248 25.002 35.6768 25.17 35.1968 25.506C34.7288 25.83 34.4948 26.286 34.4948 26.874C34.4948 27.366 34.7048 27.744 35.1248 28.008C35.5448 28.272 36.2588 28.518 37.2668 28.746C38.3348 28.986 39.1988 29.256 39.8588 29.556C40.5308 29.844 41.0408 30.216 41.3887 30.672C41.7488 31.128 41.9288 31.698 41.9288 32.382C41.9288 33.126 41.7188 33.786 41.2988 34.362C40.8908 34.926 40.3088 35.37 39.5528 35.694C38.8088 36.006 37.9508 36.162 36.9788 36.162Z" fill="#234CAD"/>
</g>
<g clip-path="url(#clip1_9_8)">
<circle cx="52" cy="8" r="7" fill="#234CAD" stroke="white" stroke-width="2"/>
<path d="M52.988 9.376C53.228 9.376 53.348 9.478 53.348 9.682C53.348 9.894 53.228 10 52.988 10H50.708C50.604 10 50.522 9.97 50.462 9.91C50.402 9.846 50.372 9.768 50.372 9.676C50.372 9.556 50.418 9.448 50.51 9.352L51.878 7.882C52.046 7.698 52.168 7.53 52.244 7.378C52.324 7.222 52.364 7.068 52.364 6.916C52.364 6.728 52.31 6.584 52.202 6.484C52.094 6.384 51.94 6.334 51.74 6.334C51.576 6.334 51.416 6.366 51.26 6.43C51.108 6.49 50.954 6.574 50.798 6.682C50.758 6.71 50.718 6.734 50.678 6.754C50.638 6.77 50.598 6.778 50.558 6.778C50.49 6.778 50.43 6.746 50.378 6.682C50.33 6.618 50.306 6.542 50.306 6.454C50.306 6.394 50.316 6.342 50.336 6.298C50.36 6.254 50.396 6.212 50.444 6.172C50.62 6.032 50.826 5.922 51.062 5.842C51.298 5.758 51.534 5.716 51.77 5.716C52.182 5.716 52.51 5.82 52.754 6.028C53.002 6.236 53.126 6.516 53.126 6.868C53.126 7.112 53.074 7.342 52.97 7.558C52.866 7.77 52.69 8.008 52.442 8.272L51.404 9.376H52.988Z" fill="#F7FAFC"/>
</g>
<defs>
<clipPath id="clip0_9_8">
<rect width="60" height="60" fill="white"/>
</clipPath>
<clipPath id="clip1_9_8">
<rect width="16" height="16" fill="white" transform="translate(44)"/>
</clipPath>
</defs>
</svg>
